<svg viewBox="0 0 71 70" fill="none" xmlns="http://www.w3.org/2000/svg" class="icon"><path d="M53.4711 5.83337H18.4711C13.6294 5.83337 9.72107 9.71254 9.72107 14.4959V46.3167C9.72107 51.1 13.6294 54.9792 18.4711 54.9792H20.6877C23.0211 54.9792 25.2377 55.8834 26.8711 57.5167L31.8586 62.4459C34.1336 64.6917 37.8377 64.6917 40.1127 62.4459L45.1002 57.5167C46.7336 55.8834 48.9794 54.9792 51.2836 54.9792H53.4711C58.3127 54.9792 62.2211 51.1 62.2211 46.3167V14.4959C62.2211 9.71254 58.3127 5.83337 53.4711 5.83337ZM31.2461 37.9459C32.4419 37.9459 33.4336 38.9375 33.4336 40.1334C33.4336 41.3292 32.4419 42.3209 31.2461 42.3209H23.4294C22.1461 42.3209 20.9502 41.7084 20.1919 40.6584C19.4627 39.6667 19.2877 38.4417 19.6377 37.275C20.6586 34.1542 23.1669 32.4625 25.3836 30.9459C27.7169 29.3709 29.0294 28.3792 29.0294 26.6875C29.0294 25.1709 27.8044 23.9459 26.2877 23.9459C24.7711 23.9459 23.5752 25.2 23.5752 26.7167C23.5752 27.9125 22.5836 28.9042 21.3877 28.9042C20.1919 28.9042 19.2002 27.9125 19.2002 26.7167C19.2002 22.8084 22.3794 19.6 26.3169 19.6C30.2544 19.6 33.4336 22.7792 33.4336 26.7167C33.4336 30.8292 30.3419 32.9292 27.8627 34.6209C26.3169 35.6709 24.8586 36.6625 24.1294 37.975H31.2461V37.9459ZM50.5544 38.15H49.9419V40.1625C49.9419 41.3584 48.9502 42.35 47.7544 42.35C46.5586 42.35 45.5669 41.3584 45.5669 40.1625V38.15H39.8502C39.8502 38.15 39.8502 38.15 39.8211 38.15C38.3919 38.15 37.0794 37.3917 36.3502 36.1667C35.6211 34.9125 35.6211 33.3667 36.3502 32.1417C38.3336 28.7292 40.6377 24.85 42.7377 21.4667C43.6711 19.9792 45.4502 19.3084 47.1127 19.775C48.7752 20.2709 49.9419 21.7875 49.9127 23.5375V33.8042H50.5544C51.7502 33.8042 52.7419 34.7959 52.7419 35.9917C52.7419 37.1875 51.7502 38.15 50.5544 38.15Z" fill="#485FE6"></path><path d="M45.5669 33.775V25.2C43.8461 28 42.0669 31.0041 40.4628 33.7458H45.5669V33.775Z" fill="#292D32"></path></svg>