<svg viewBox="0 0 500 500" fill="none" xmlns="http://www.w3.org/2000/svg" class="about-svg"><path d="M79.3395 449.78C-14.9205 395.36 -14.9205 307.14 79.3395 252.72C173.6 198.3 326.41 198.3 420.66 252.72C514.91 307.14 514.92 395.36 420.66 449.78C326.4 504.2 173.59 504.2 79.3395 449.78Z" fill="#F5F5F5"/><path d="M385.75 151C385.973 151.176 386.12 151.431 386.159 151.713C386.198 151.994 386.127 152.28 385.96 152.51L382.96 156.51C382.784 156.733 382.529 156.88 382.247 156.919C381.966 156.958 381.68 156.887 381.45 156.72L378.23 154.3C378.002 154.128 377.851 153.873 377.81 153.59C377.786 153.449 377.792 153.305 377.828 153.167C377.864 153.029 377.93 152.901 378.02 152.79L381.02 148.79C381.104 148.677 381.211 148.581 381.333 148.509C381.455 148.437 381.59 148.39 381.73 148.37C381.87 148.346 382.015 148.352 382.152 148.388C382.29 148.425 382.419 148.49 382.53 148.58L385.75 151ZM378.89 145.84C379.004 145.923 379.1 146.029 379.171 146.151C379.242 146.273 379.285 146.409 379.3 146.55C379.342 146.833 379.27 147.12 379.1 147.35L376.1 151.35C376.017 151.465 375.911 151.56 375.789 151.631C375.666 151.702 375.53 151.746 375.39 151.76C375.25 151.785 375.106 151.781 374.968 151.746C374.83 151.712 374.701 151.648 374.59 151.56L360.84 141.21C360.727 141.124 360.632 141.015 360.561 140.892C360.491 140.768 360.446 140.631 360.43 140.49C360.406 140.352 360.411 140.21 360.446 140.074C360.48 139.938 360.543 139.81 360.63 139.7L363.63 135.7C363.711 135.584 363.817 135.486 363.939 135.413C364.062 135.341 364.198 135.295 364.34 135.28C364.622 135.238 364.91 135.31 365.14 135.48L378.89 145.84Z" fill="#F09242"/><path d="M392.44 138.44C392.498 138.569 392.528 138.709 392.528 138.85C392.528 138.991 392.498 139.131 392.44 139.26C392.389 139.392 392.312 139.512 392.212 139.612C392.112 139.712 391.992 139.79 391.86 139.84L387.19 141.74C387.06 141.794 386.92 141.823 386.78 141.823C386.639 141.823 386.499 141.794 386.37 141.74C386.236 141.689 386.116 141.61 386.016 141.508C385.916 141.406 385.839 141.284 385.79 141.15L384.27 137.41C384.164 137.145 384.168 136.849 384.281 136.586C384.393 136.324 384.605 136.117 384.87 136.01L389.53 134.12C389.658 134.062 389.798 134.032 389.94 134.032C390.081 134.032 390.221 134.062 390.35 134.12C390.482 134.17 390.602 134.248 390.702 134.348C390.802 134.448 390.879 134.568 390.93 134.7L392.44 138.44ZM389.21 130.44C389.269 130.57 389.3 130.712 389.3 130.855C389.3 130.998 389.269 131.14 389.21 131.27C389.156 131.4 389.078 131.519 388.978 131.618C388.878 131.718 388.76 131.797 388.63 131.85L384 133.78C383.734 133.886 383.438 133.884 383.174 133.774C382.91 133.663 382.7 133.454 382.59 133.19L376.12 117.19C376.014 116.923 376.018 116.626 376.13 116.362C376.242 116.098 376.454 115.889 376.72 115.78L381.38 113.89C381.509 113.832 381.648 113.802 381.79 113.802C381.931 113.802 382.071 113.832 382.2 113.89C382.332 113.94 382.452 114.018 382.552 114.118C382.652 114.218 382.729 114.338 382.78 114.47L389.21 130.44Z" fill="#F09242"/><g opacity="0.3"><path d="M392.44 138.44C392.498 138.569 392.528 138.709 392.528 138.85C392.528 138.991 392.498 139.131 392.44 139.26C392.389 139.392 392.312 139.512 392.212 139.612C392.112 139.712 391.992 139.79 391.86 139.84L387.19 141.74C387.06 141.794 386.92 141.823 386.78 141.823C386.639 141.823 386.499 141.794 386.37 141.74C386.236 141.689 386.116 141.61 386.016 141.508C385.916 141.406 385.839 141.284 385.79 141.15L384.27 137.41C384.164 137.145 384.168 136.849 384.281 136.586C384.393 136.324 384.605 136.117 384.87 136.01L389.53 134.12C389.658 134.062 389.798 134.032 389.94 134.032C390.081 134.032 390.221 134.062 390.35 134.12C390.482 134.17 390.602 134.248 390.702 134.348C390.802 134.448 390.879 134.568 390.93 134.7L392.44 138.44ZM389.21 130.44C389.269 130.57 389.3 130.712 389.3 130.855C389.3 130.998 389.269 131.14 389.21 131.27C389.156 131.4 389.078 131.519 388.978 131.618C388.878 131.718 388.76 131.797 388.63 131.85L384 133.78C383.734 133.886 383.438 133.884 383.174 133.774C382.91 133.663 382.7 133.454 382.59 133.19L376.12 117.19C376.014 116.923 376.018 116.626 376.13 116.362C376.242 116.098 376.454 115.889 376.72 115.78L381.38 113.89C381.509 113.832 381.648 113.802 381.79 113.802C381.931 113.802 382.071 113.832 382.2 113.89C382.332 113.94 382.452 114.018 382.552 114.118C382.652 114.218 382.729 114.338 382.78 114.47L389.21 130.44Z" fill="#F09242"/></g><path d="M70.39 408.9C70.396 409.478 70.2596 410.049 69.9927 410.561C69.7259 411.074 69.3369 411.513 68.86 411.84C65.0672 413.734 60.6903 414.092 56.64 412.84C52.04 411.42 49.96 409.02 49.06 405.84C48.16 402.66 48.4 399.18 49.69 394.98C50.53 392.26 49.95 388.56 49.61 385.8C49.03 381.09 49.47 378.26 51 376.09C51.8209 374.906 53.0029 374.02 54.3692 373.564C55.7356 373.108 57.2128 373.107 58.58 373.56L57.67 405.9L70.39 408.9Z" fill="black"/><path d="M64.7204 394.55C64.7204 398.8 65.6604 400.33 67.5204 402.84C69.1504 405.05 73.3904 408.54 67.9604 411.21C63.7304 413.29 53.2104 413.06 50.4104 406.06C48.2304 400.62 51.5104 395.53 50.7004 388.4C50.1604 383.62 50.5804 375.27 56.1304 373.99C59.1304 373.29 60.1304 373.35 64.9104 375.78C68.2204 377.47 68.5004 378.23 68.3704 378.68L67.5604 378.31C66.3585 378.065 65.1104 378.191 63.9817 378.671C62.853 379.152 61.8969 379.964 61.2404 381C59.3204 384 59.0904 388.43 61.1504 391.35L64.7204 394.55Z" fill="#263238"/><path d="M60.38 380.63C63.03 375.84 66.61 376.16 66.61 376.16L84 385C84 385 77 372.31 74.85 364.72C72.7 357.13 73.51 347.18 74.73 342.14L101.66 344.14C101.66 344.14 122.66 387.05 125.38 402.01C126.99 410.83 126.1 417.01 121.94 420.31C114.94 425.94 106.74 423.52 93.83 415.75C80.77 407.9 60.19 395.75 60.19 395.75C60.19 395.75 56.2 388.19 60.38 380.63Z" fill="#455A64"/><path d="M93.7801 415.78C80.7201 407.93 60.1401 395.78 60.1401 395.78C60.1401 395.78 56.2001 388.19 60.3801 380.63C63.0101 375.88 66.5401 376.15 66.6101 376.16L84.0001 385C84.0001 385 80.8001 379.23 78.0701 373.15L77.7401 372.41V372.36C77.6301 372.12 77.5301 371.88 77.4301 371.64C76.9501 370.51 76.4901 369.39 76.0801 368.3V368.24C75.9401 367.88 75.8201 367.53 75.6901 367.19L99.5301 359.71C99.8101 367.71 91.3301 375 91.3301 375C91.3301 375 98.4101 398 102.69 409.17C106.05 417.91 113.8 420.5 119.38 419.17C120.838 418.879 122.197 418.219 123.326 417.252C124.455 416.286 125.318 415.045 125.83 413.65C125.696 414.346 125.508 415.032 125.27 415.7C125.165 416.02 125.041 416.334 124.9 416.64C124.77 416.92 124.63 417.2 124.49 417.47L124.42 417.58C124.28 417.82 124.14 418.06 123.98 418.28L123.83 418.49L123.41 419.04L123.1 419.37C122.99 419.49 122.88 419.62 122.76 419.74C122.528 419.966 122.285 420.18 122.03 420.38C121.193 421.052 120.288 421.635 119.33 422.12C118.649 422.458 117.94 422.735 117.21 422.95C116.728 423.091 116.237 423.201 115.74 423.28C114.979 423.401 114.21 423.461 113.44 423.46C112.94 423.46 112.44 423.46 111.92 423.38C110.75 423.258 109.593 423.037 108.46 422.72C107.57 422.48 106.66 422.18 105.71 421.83C105.08 421.59 104.44 421.33 103.78 421.05C100.388 419.525 97.1012 417.778 93.9401 415.82L93.7801 415.78Z" fill="#37474F"/><path opacity="0.15" d="M84.7503 395.68C79.6203 389.11 65.4403 380.11 62.3203 378.06C62.8711 377.471 63.5348 377 64.2719 376.673C65.009 376.347 65.8043 376.172 66.6103 376.16L75.2803 380.57L84.0003 385C84.0003 385 92.3703 403.12 99.1903 405.88C93.5218 403.89 88.521 400.357 84.7503 395.68Z" fill="black"/><path d="M48.0697 422.48C48.0715 423.056 47.9331 423.623 47.6666 424.134C47.4 424.644 47.0133 425.082 46.5397 425.41C42.7452 427.298 38.3706 427.656 34.3197 426.41C29.7197 424.98 27.6397 422.58 26.7397 419.41C25.8397 416.24 26.0797 412.75 27.3697 408.55C28.1997 405.83 27.6297 402.14 27.2897 399.37C26.7097 394.66 27.1497 391.83 28.6797 389.66C29.4995 388.475 30.6814 387.588 32.0481 387.132C33.4148 386.676 34.8926 386.675 36.2597 387.13L35.3497 419.47L48.0697 422.48Z" fill="#263238"/><path d="M42.4001 408.13C42.4001 412.37 43.3401 413.9 45.2001 416.41C46.8301 418.62 51.0701 422.11 45.6401 424.78C41.4101 426.86 30.8901 426.64 28.0901 419.63C25.9101 414.19 29.1901 409.1 28.3801 401.97C27.8401 397.19 28.2601 388.84 33.8101 387.56C36.8101 386.86 37.8101 386.92 42.5901 389.35C45.9001 391.04 46.1701 391.81 46.0501 392.25L45.2401 391.88C44.0361 391.637 42.7866 391.766 41.6577 392.25C40.5287 392.734 39.5739 393.55 38.9201 394.59C37.0001 397.59 36.7601 402.02 38.8201 404.94L42.4001 408.13Z" fill="#37474F"/><path d="M37.4294 394C38.1869 392.433 39.4821 391.191 41.0789 390.499C42.6758 389.807 44.4681 389.711 46.1294 390.23L59.1294 397.4C59.1294 397.4 51.5694 385 48.6994 377.66C45.2894 368.97 42.6994 363.81 44.2594 351.24L80.7094 350.63L101.999 348.42C101.379 366.1 86.5294 374.42 86.5294 374.42C86.5294 374.42 98.2794 403.42 100.639 413.24C102.859 422.47 101.289 429.42 97.1294 432.75C90.1294 438.37 80.9394 437.49 68.0294 429.75C55.1194 422.01 36.6694 408.95 36.6694 408.95C35.6401 406.567 35.1732 403.979 35.305 401.386C35.4368 398.794 36.1637 396.266 37.4294 394Z" fill="#455A64"/><path d="M59.9998 408.08C51.9998 397.16 44.9298 392.63 41.2598 390.4C42.8384 389.816 44.5626 389.753 46.1798 390.22L59.1798 397.39C59.1798 397.39 67.5598 415.51 74.3798 418.27C68.6534 416.431 63.6324 412.873 59.9998 408.08Z" fill="#37474F"/><path d="M94.0996 280.26C101.2 280.86 102.95 284.18 111.97 296.87C120.31 308.6 124.73 315.18 124.73 315.18C124.73 315.18 145.73 307.06 147.67 305.71C149.61 304.36 150.56 300.12 152.87 297.62C155.18 295.12 157.31 293.38 159.04 291.62C160.77 289.86 162.9 292.62 160.78 295.67C158.66 298.72 157.69 300.49 158.27 300.67C158.85 300.85 165.98 297.2 167.72 293.35C169.46 289.5 170.37 290.65 171.46 290.65C171.46 290.65 172.56 288.22 174.46 289.19C175.01 289.46 175.19 289.83 174.83 292.38C175.417 292.533 175.931 292.887 176.284 293.38C176.637 293.874 176.805 294.475 176.76 295.08C176.659 296.8 176.267 298.491 175.6 300.08C175.6 300.08 176.6 301.82 174.25 305.48C171.9 309.14 166.52 312.38 159.97 314.69C153.42 317 151.55 318.69 143.65 323.29C137.815 326.854 131.789 330.095 125.6 333C118.92 335.88 116.43 333.4 112.45 329.16C107.45 323.9 96.1396 310.21 96.1396 310.21L94.0996 280.26Z" fill="#FFA8A7"/><path d="M94.2598 279.17C102.84 280.39 104.26 283.98 108.33 289.87C112.81 296.34 124.71 314.68 124.71 314.68L132.63 311.74C132.63 311.74 129.77 314.36 132.14 320.31C134.51 326.26 138.14 326.92 138.14 326.92C138.14 326.92 131.45 330.76 126.71 332.92C121.97 335.08 118.79 335.7 114.71 332.02C110.63 328.34 95.7098 310.56 95.7098 310.56L94.2598 279.17Z" fill="#37474F"/><path d="M104.07 302.38C105.24 285.99 98.1898 281.63 94.2598 279.17L75.5798 275.76C71.5798 276.11 63.5798 279.96 53.7898 284.62C50.9998 286 49.8798 287.47 47.9998 297.45C46.5098 305.55 45.5798 312.85 44.7598 327.65C44.2398 337.17 43.7598 346.97 43.7598 358.32C54.2298 363.93 89.0098 361.53 103.47 348.15C102.67 345.58 102.59 335.37 102.74 330.47C103.2 316.9 103.7 307.54 104.07 302.38Z" fill="#263238"/><path d="M70.0594 271.86C69.2094 267.56 64.7894 263.18 62.7494 259.46C60.7494 255.89 59.5994 253.1 59.7494 249.68C59.8194 247.68 61.0194 244.88 62.4994 244.27C62.1094 236.88 69.9194 232.53 79.7094 231.27C89.4994 230.01 94.7094 234.57 97.1894 237.33C98.9002 239.221 99.8944 241.652 99.9994 244.2C99.9994 245.2 99.9994 246.86 99.1994 247.5C99.0194 247.64 98.6194 247.45 98.4594 247.62C98.2994 247.79 98.3194 248.4 98.2694 248.62C98.1869 249.31 97.9512 249.973 97.5794 250.56C96.9711 251.511 96.1449 252.302 95.1694 252.87C92.0194 254.47 88.5094 255.06 85.0994 255.87L81.0994 256.82C80.8594 256.88 79.6294 256.99 79.4894 257.2L70.0594 271.86Z" fill="#263238"/><path d="M64.8492 266.46C65.6093 266.979 66.5197 267.232 67.4386 267.18C68.3575 267.127 69.2332 266.772 69.9292 266.17L69.1392 279.17C71.6892 284.99 80.2192 286.17 86.8192 292.62C86.8192 292.62 89.3992 288.38 87.2792 279.98L87.6692 275.62C89.3852 275.603 91.0985 275.479 92.7992 275.25C94.52 274.919 96.1038 274.085 97.35 272.853C98.5962 271.621 99.4486 270.047 99.7992 268.33C100.709 264.47 100.469 258.21 99.5092 253.64C99.2516 252.475 99.1573 251.281 99.2292 250.09C99.4032 247.493 98.9719 244.892 97.9692 242.49C94.1592 239.59 85.5192 238.81 77.6192 243.91C78.6792 248.67 76.9192 252.51 73.4892 254.43C73.6892 255.71 73.9392 258.97 71.8192 258.97C70.2892 258.97 70.1292 257.05 68.5192 255.41C66.9092 253.77 63.2292 253.41 61.8792 255.94C61.0053 257.754 60.8248 259.825 61.3719 261.762C61.9189 263.7 63.1557 265.371 64.8492 266.46Z" fill="#FFA8A7"/><path d="M89.0693 251.57L97.0493 259.04L91.4093 261.65L89.0693 251.57Z" fill="#F28F8F"/><path d="M84.4893 249.41L81.1793 251C80.9662 250.547 80.9379 250.028 81.1002 249.554C81.2626 249.08 81.6029 248.688 82.0493 248.46C82.271 248.356 82.5114 248.299 82.7561 248.291C83.0007 248.283 83.2444 248.324 83.4725 248.413C83.7006 248.502 83.9083 248.636 84.0831 248.807C84.2578 248.979 84.396 249.184 84.4893 249.41Z" fill="#263238"/><path d="M97.999 250.18L94.709 248.43C94.8121 248.211 94.9586 248.014 95.1399 247.853C95.3211 247.692 95.5332 247.569 95.7632 247.493C95.9933 247.416 96.2365 247.387 96.4781 247.407C96.7198 247.427 96.9548 247.496 97.169 247.61C97.6035 247.857 97.9297 248.258 98.0833 248.734C98.2369 249.209 98.2068 249.725 97.999 250.18Z" fill="#263238"/><path d="M87.6692 275.62C82.2792 275.13 78.0192 274.62 75.1092 270.8C73.7525 268.834 72.6093 266.729 71.6992 264.52C72.1128 267.277 72.9635 269.951 74.2192 272.44C75.6392 274.88 79.0592 277.06 87.4992 277.55L87.6692 275.62Z" fill="#F28F8F"/><path d="M85.7099 254.51C85.7208 254.808 85.6439 255.103 85.4886 255.357C85.3332 255.612 85.1064 255.815 84.8364 255.942C84.5663 256.069 84.265 256.113 83.9699 256.07C83.6748 256.026 83.3989 255.897 83.1768 255.698C82.9546 255.499 82.7959 255.239 82.7204 254.951C82.6449 254.662 82.656 254.358 82.7523 254.075C82.8485 253.793 83.0257 253.545 83.2618 253.363C83.4979 253.181 83.7824 253.072 84.0799 253.05C84.4888 253.031 84.8889 253.173 85.1938 253.446C85.4987 253.719 85.6841 254.101 85.7099 254.51Z" fill="#263238"/><path d="M84.1093 263.43L90.1093 265.04C89.8712 265.85 89.3292 266.536 88.5968 266.955C87.8643 267.375 86.9981 267.495 86.1793 267.29C85.7825 267.184 85.4116 266.998 85.0896 266.744C84.7677 266.489 84.5014 266.171 84.3073 265.809C84.1133 265.447 83.9956 265.049 83.9615 264.64C83.9274 264.231 83.9777 263.819 84.1093 263.43Z" fill="#B16668"/><path d="M87.9298 267.25C87.7492 266.363 87.249 265.574 86.5245 265.032C85.7999 264.49 84.9014 264.233 83.9998 264.31C83.9766 264.987 84.1834 265.652 84.5865 266.197C84.9896 266.742 85.5653 267.134 86.2198 267.31C86.7835 267.456 87.3777 267.436 87.9298 267.25Z" fill="#F28F8F"/><path d="M97.6794 253.93C97.6618 254.225 97.558 254.508 97.3808 254.745C97.2037 254.982 96.961 255.161 96.6829 255.261C96.4047 255.361 96.1034 255.377 95.8162 255.307C95.5289 255.238 95.2685 255.085 95.0671 254.869C94.8657 254.653 94.7321 254.382 94.6831 254.091C94.634 253.799 94.6715 253.5 94.791 253.229C94.9105 252.959 95.1067 252.73 95.3553 252.57C95.6039 252.41 95.8939 252.327 96.1894 252.33C96.5979 252.348 96.9829 252.526 97.2616 252.825C97.5403 253.125 97.6903 253.521 97.6794 253.93Z" fill="#263238"/><path d="M86.8202 292.62C85.1302 290.62 85.4802 288.96 81.7102 287.23C77.9402 285.5 70.7602 280.42 69.3002 276.52L69.4502 274.13C69.4502 274.13 68.9202 273.88 68.1002 274.91C67.2802 275.94 64.1002 279.34 61.7002 280.56C62.9402 285.2 68.4202 293.1 79.0302 296.65C79.1602 291.43 81.9702 289.19 83.4602 290.07C84.9502 290.95 85.9002 292.19 86.8202 292.62Z" fill="#37474F"/><path d="M86.8193 292.62C87.6457 289.974 87.9214 287.187 87.6293 284.43C87.3558 282.963 87.2385 281.472 87.2793 279.98L87.6693 275.62C88.5999 275.886 89.4491 276.381 90.1393 277.06C91.181 277.92 92.3611 278.596 93.6293 279.06C94.8647 281.189 95.5542 283.591 95.6362 286.051C95.7182 288.511 95.1902 290.953 94.0993 293.16C93.5193 288.02 89.2793 287.63 88.6793 289.16C88.2763 290.417 87.6458 291.59 86.8193 292.62Z" fill="#37474F"/><path d="M107 342C109.14 342.28 111.4 341.29 113.5 341.09C115.346 341.003 117.196 341.077 119.03 341.31C120.95 341.47 122.86 341.69 124.78 341.84C125.27 341.84 125.38 342.35 125.33 342.78C125.261 343.18 125.104 343.559 124.87 343.891C124.637 344.223 124.333 344.499 123.98 344.7C123.277 345.096 122.502 345.348 121.7 345.44C120.985 345.555 120.264 345.625 119.54 345.65C118.79 345.65 117 345.7 117.19 346.84L107 342Z" fill="#FFA8A7"/><path d="M107 342C108.496 342.192 110.015 342.087 111.47 341.69C112.19 341.544 112.918 341.437 113.65 341.37C114.383 341.325 115.117 341.325 115.85 341.37C117.32 341.44 118.85 341.59 120.3 341.67C121.75 341.75 123.3 341.83 124.78 341.84C123.31 341.57 121.78 341.38 120.34 341.19C118.9 341 117.34 340.84 115.87 340.75C115.114 340.695 114.356 340.695 113.6 340.75C112.846 340.839 112.101 340.986 111.37 341.19C110.64 341.39 109.93 341.59 109.2 341.73C108.482 341.915 107.742 342.006 107 342Z" fill="#F28F8F"/><path d="M129.86 352.42C127.53 351.71 122.54 351.98 119.25 349.07C118.65 348.55 117.33 347.66 117.19 346.83L107 342C102.88 342 101.74 342 94.0003 339.66C87.3703 337.6 71.5003 330.14 71.5003 330.14L62.8603 304.89C60.9103 296.17 55.8603 286.71 50.6803 286.6C38.8403 290.88 43.5803 300.98 48.1703 315.28C51.6003 325.98 52.4403 332.05 54.7603 338.28C57.0803 344.51 57.3803 346.37 64.5503 347.55C77.9903 349.78 89.3003 353.26 100.64 354.9C102.12 355.11 103.89 355.53 106.76 358.06C107.89 359.06 109.93 360.93 110.76 361.54C111.812 362.245 112.935 362.839 114.11 363.31C116.587 364.636 119.31 365.439 122.11 365.67C122.64 365.74 123.56 365.87 123.82 365.42C123.935 365.233 123.987 365.014 123.971 364.796C123.955 364.577 123.871 364.368 123.73 364.2C123.21 363.59 122.43 363.49 121.27 362.9C123.094 363.424 125.016 363.513 126.88 363.16C127.247 363.046 127.587 362.859 127.88 362.61C128.015 362.441 128.105 362.24 128.141 362.027C128.178 361.814 128.16 361.595 128.09 361.39C128.722 361.328 129.35 361.232 129.97 361.1C130.65 360.88 132.03 360.34 131.29 359.44C130.04 357.9 127.29 358.49 124.58 357.88C121.87 357.27 119.17 354.53 119.17 354.53C120.843 354.974 122.544 355.308 124.26 355.53C126.42 355.77 130.76 355.64 131.54 354.82C132.32 354 132.19 353.12 129.86 352.42Z" fill="#FFA8A7"/><path d="M128.09 361.39C125.839 361.303 123.601 360.995 121.41 360.47C120.355 360.128 119.347 359.655 118.41 359.06L115.41 357.38C116.294 358.096 117.215 358.763 118.17 359.38C119.119 360.032 120.161 360.538 121.26 360.88C123.495 361.411 125.801 361.583 128.09 361.39Z" fill="#F28F8F"/><path d="M121.22 362.9C120.101 362.511 119.015 362.036 117.97 361.48C116.97 360.96 115.97 360.31 114.85 359.78C115.727 360.601 116.709 361.304 117.77 361.87C118.834 362.452 120.01 362.803 121.22 362.9Z" fill="#F28F8F"/><path d="M52.9999 284.94C46.9999 287.36 41.8499 290.87 42.3199 298.45C42.8199 306.73 43.8699 309.84 46.7499 320.93C49.9099 333.1 52.5599 339.64 54.0899 342.85C55.6199 346.06 58.4799 347 63.8799 348C69.2799 349 83.3899 351.52 83.3899 351.52C83.3899 351.52 82.3899 348.52 84.0799 342.63C85.7699 336.74 88.6799 337.03 88.6799 337.03L72.0999 329.82C72.0999 329.82 66.0999 309.38 63.7399 301.63C61.3799 293.88 59.2899 287.66 52.9999 284.94Z" fill="#37474F"/><path d="M81.5596 144.47C75.0838 144.468 68.7529 146.387 63.3675 149.983C57.9821 153.579 53.7842 158.692 51.3046 164.674C48.8251 170.656 48.1753 177.24 49.4375 183.591C50.6996 189.943 53.817 195.777 58.3954 200.357C62.9737 204.937 68.8074 208.056 75.1587 209.32C81.5099 210.584 88.0933 209.936 94.0763 207.459C100.059 204.981 105.173 200.785 108.771 195.4C112.369 190.016 114.29 183.686 114.29 177.21C114.282 168.531 110.831 160.21 104.695 154.072C98.559 147.934 90.2386 144.481 81.5596 144.47ZM81.5596 207C75.6673 207.002 69.9067 205.257 65.0064 201.984C60.1062 198.712 56.2864 194.06 54.0301 188.617C51.7738 183.174 51.1825 177.184 52.3308 171.404C53.4791 165.625 56.3155 160.316 60.4813 156.149C64.6471 151.982 69.9552 149.143 75.7342 147.993C81.5131 146.843 87.5034 147.432 92.9474 149.687C98.3914 151.941 103.045 155.759 106.318 160.659C109.592 165.558 111.34 171.318 111.34 177.21C111.329 185.106 108.188 192.675 102.606 198.259C97.0239 203.844 89.4554 206.987 81.5596 207Z" fill="#455A64"/><path d="M111.34 177.21C111.34 183.102 109.592 188.862 106.319 193.761C103.045 198.661 98.3916 202.479 92.9476 204.733C87.5036 206.988 81.5133 207.577 75.7344 206.427C69.9554 205.277 64.6473 202.438 60.4815 198.271C56.3157 194.104 53.4793 188.795 52.331 183.016C51.1826 177.236 51.774 171.246 54.0303 165.803C56.2865 160.36 60.1064 155.708 65.0066 152.436C69.9069 149.163 75.6674 147.418 81.5598 147.42C89.4564 147.431 97.0264 150.573 102.609 156.158C108.192 161.742 111.332 169.313 111.34 177.21Z" fill="white"/><path d="M79.7798 219L75.5898 208.18H87.5198L83.3298 219C83.1926 219.36 82.9494 219.669 82.6324 219.887C82.3154 220.105 81.9397 220.222 81.5548 220.222C81.17 220.222 80.7943 220.105 80.4773 219.887C80.1603 219.669 79.9171 219.36 79.7798 219Z" fill="#455A64"/><path d="M86.5492 191H76.5492C76.4427 191.012 76.3349 191.002 76.2327 190.97C76.1306 190.937 76.0364 190.884 75.9565 190.812C75.8765 190.741 75.8125 190.654 75.7686 190.556C75.7248 190.458 75.7021 190.352 75.7021 190.245C75.7021 190.138 75.7248 190.032 75.7686 189.934C75.8125 189.836 75.8765 189.749 75.9565 189.678C76.0364 189.606 76.1306 189.553 76.2327 189.52C76.3349 189.488 76.4427 189.478 76.5492 189.49H86.5492C86.6556 189.478 86.7635 189.488 86.8656 189.52C86.9678 189.553 87.0619 189.606 87.1419 189.678C87.2219 189.749 87.2859 189.836 87.3297 189.934C87.3736 190.032 87.3962 190.138 87.3962 190.245C87.3962 190.352 87.3736 190.458 87.3297 190.556C87.2859 190.654 87.2219 190.741 87.1419 190.812C87.0619 190.884 86.9678 190.937 86.8656 190.97C86.7635 191.002 86.6556 191.012 86.5492 191Z" fill="#455A64"/><path d="M81.5393 198.79C80.7808 198.789 80.0299 198.638 79.3297 198.346C78.6295 198.054 77.9937 197.627 77.4587 197.089C76.9237 196.552 76.5 195.914 76.2118 195.212C75.9237 194.51 75.7767 193.759 75.7793 193C75.7793 192.9 75.799 192.801 75.8372 192.709C75.8754 192.617 75.9314 192.533 76.0019 192.463C76.0725 192.392 76.1563 192.336 76.2485 192.298C76.3407 192.26 76.4395 192.24 76.5393 192.24H86.5393C86.7409 192.24 86.9342 192.32 87.0767 192.463C87.2193 192.605 87.2993 192.798 87.2993 193C87.302 193.759 87.155 194.51 86.8668 195.212C86.5787 195.914 86.155 196.552 85.62 197.089C85.085 197.627 84.4492 198.054 83.749 198.346C83.0488 198.638 82.2979 198.789 81.5393 198.79Z" fill="#455A64"/><path d="M92.2394 159.91C90.7241 158.454 88.926 157.325 86.9565 156.592C84.9869 155.859 82.8879 155.538 80.7894 155.65C76.874 155.888 73.1897 157.584 70.4616 160.402C67.7336 163.221 66.1596 166.959 66.0494 170.88C66.0106 173.613 66.6938 176.308 68.03 178.692C69.3662 181.077 71.3081 183.066 73.6594 184.46C74.2848 184.816 74.8054 185.331 75.1688 185.953C75.5322 186.574 75.7255 187.28 75.7294 188C75.7266 188.089 75.7421 188.177 75.7748 188.26C75.8074 188.342 75.8567 188.417 75.9195 188.48C75.9822 188.543 76.0572 188.592 76.1398 188.625C76.2223 188.657 76.3107 188.673 76.3994 188.67H86.6894C86.8671 188.67 87.0375 188.599 87.1632 188.474C87.2888 188.348 87.3594 188.178 87.3594 188C87.368 187.284 87.5624 186.582 87.9234 185.963C88.2845 185.344 88.8 184.83 89.4194 184.47C91.7352 183.095 93.6552 181.143 94.9923 178.805C96.3295 176.468 97.0382 173.823 97.0494 171.13C97.0559 169.031 96.6325 166.952 95.8053 165.022C94.9781 163.093 93.7645 161.353 92.2394 159.91Z" fill="#485FE6"/><g opacity="0.35"><path d="M92.2394 159.91C90.7241 158.454 88.926 157.325 86.9565 156.592C84.9869 155.859 82.8879 155.538 80.7894 155.65C76.874 155.888 73.1897 157.584 70.4616 160.402C67.7336 163.221 66.1596 166.959 66.0494 170.88C66.0106 173.613 66.6938 176.308 68.03 178.692C69.3662 181.077 71.3081 183.066 73.6594 184.46C74.2848 184.816 74.8054 185.331 75.1688 185.953C75.5322 186.574 75.7255 187.28 75.7294 188C75.7266 188.089 75.7421 188.177 75.7748 188.26C75.8074 188.342 75.8567 188.417 75.9195 188.48C75.9822 188.543 76.0572 188.592 76.1398 188.625C76.2223 188.657 76.3107 188.673 76.3994 188.67H86.6894C86.8671 188.67 87.0375 188.599 87.1632 188.474C87.2888 188.348 87.3594 188.178 87.3594 188C87.368 187.284 87.5624 186.582 87.9234 185.963C88.2845 185.344 88.8 184.83 89.4194 184.47C91.7352 183.095 93.6552 181.143 94.9923 178.805C96.3295 176.468 97.0382 173.823 97.0494 171.13C97.0559 169.031 96.6325 166.952 95.8053 165.022C94.9781 163.093 93.7645 161.353 92.2394 159.91Z" fill="white"/></g><path d="M90.129 174.32C90.0302 174.003 89.8298 173.727 89.5587 173.536C89.2875 173.344 88.9607 173.247 88.629 173.26C88.0636 173.326 87.5211 173.522 87.044 173.832C86.567 174.143 86.1682 174.56 85.879 175.05L85.759 175.22L85.559 175.15C84.7352 174.876 83.9642 174.463 83.279 173.93C82.8966 173.629 82.5419 173.294 82.219 172.93L82.059 172.77L82.189 172.59C82.6315 172.061 82.9507 171.44 83.1237 170.773C83.2967 170.105 83.3189 169.407 83.189 168.73C83.0668 168.394 82.8444 168.105 82.5519 167.9C82.2594 167.695 81.911 167.585 81.554 167.585C81.1969 167.585 80.8485 167.695 80.556 167.9C80.2635 168.105 80.0411 168.394 79.919 168.73C79.789 169.407 79.8113 170.105 79.9842 170.773C80.1572 171.44 80.4765 172.061 80.919 172.59L81.049 172.77L80.889 172.93C80.566 173.294 80.2113 173.629 79.829 173.93C79.1424 174.461 78.3718 174.874 77.549 175.15L77.349 175.22L77.229 175.05C76.9397 174.56 76.5409 174.143 76.0639 173.832C75.5868 173.522 75.0443 173.326 74.479 173.26C74.1472 173.247 73.8204 173.344 73.5493 173.536C73.2781 173.727 73.0777 174.003 72.979 174.32C72.896 174.584 72.9053 174.868 73.0052 175.126C73.1051 175.384 73.2898 175.601 73.529 175.74C74.1473 176.118 74.8648 176.303 75.5889 176.27C75.9913 176.267 76.3927 176.23 76.789 176.16H76.979L77.079 176.34C77.4285 176.978 77.7165 177.647 77.939 178.34C78.714 181.229 79.0079 184.226 78.809 187.21C78.809 187.72 78.809 188.21 78.809 188.7H79.599C79.599 188.21 79.599 187.7 79.599 187.19C79.7977 184.131 79.4902 181.059 78.689 178.1C78.4787 177.455 78.2213 176.827 77.919 176.22L77.779 175.94L78.079 175.83C78.8789 175.528 79.6303 175.11 80.309 174.59C80.6845 174.306 81.0388 173.995 81.369 173.66L81.559 173.46L81.759 173.66C82.0888 173.996 82.4431 174.307 82.819 174.59C83.4828 175.097 84.2172 175.505 84.999 175.8L85.299 175.91L85.159 176.19C84.8524 176.795 84.5949 177.424 84.389 178.07C83.5822 181.032 83.2747 184.107 83.479 187.17C83.479 187.68 83.479 188.17 83.479 188.67H84.269C84.269 188.18 84.269 187.67 84.269 187.13C84.08 184.162 84.3773 181.182 85.149 178.31C85.3714 177.617 85.6594 176.948 86.009 176.31L86.109 176.13H86.299C86.6951 176.2 87.0966 176.237 87.499 176.24C88.223 176.272 88.9401 176.087 89.559 175.71C89.7942 175.574 89.9777 175.364 90.0808 175.112C90.1839 174.861 90.2009 174.582 90.129 174.32ZM75.999 175.47H75.649C75.0751 175.505 74.5031 175.376 73.999 175.1C73.919 175.03 73.669 174.85 73.749 174.57C73.7963 174.411 73.8963 174.273 74.0327 174.178C74.169 174.084 74.3335 174.039 74.499 174.05C75.1618 174.134 75.765 174.475 76.179 175L76.579 175.43L75.999 175.47ZM81.579 172.17L81.349 171.79C81.0622 171.395 80.857 170.946 80.7454 170.47C80.6338 169.995 80.618 169.502 80.699 169.02C80.7662 168.841 80.8865 168.687 81.0437 168.578C81.2009 168.469 81.3877 168.41 81.579 168.41C81.7702 168.41 81.957 168.469 82.1142 168.578C82.2714 168.687 82.3917 168.841 82.459 169.02C82.5447 169.501 82.5323 169.994 82.4223 170.47C82.3123 170.946 82.107 171.395 81.819 171.79L81.579 172.17ZM89.169 175.1C88.6611 175.376 88.086 175.504 87.509 175.47H87.169H86.589L86.999 175C87.4129 174.475 88.0161 174.134 88.679 174.05C88.8428 174.04 89.0055 174.084 89.1412 174.177C89.277 174.269 89.3782 174.404 89.429 174.56C89.469 174.85 89.209 175 89.129 175.1H89.169Z" fill="#FAFAFA"/><path d="M316.88 419.95L347.74 402.13V378.37L316.88 396.19V419.95Z" fill="#37474F"/><path d="M316.879 396.19L224.279 342.73V366.49L316.879 419.95V396.19Z" fill="black"/><path d="M347.739 378.37L255.139 324.91L224.279 342.73L316.879 396.19L347.739 378.37Z" fill="#455A64"/><path d="M255.139 325.64L346.479 378.37L316.879 395.46L225.539 342.73L255.139 325.64ZM255.139 324.91L224.279 342.73L316.879 396.19L347.739 378.37L255.139 324.91Z" fill="#263238"/><path d="M252 457.15L282.87 439.33V415.57L252 433.39V457.15Z" fill="#37474F"/><path d="M251.999 433.39L159.399 379.93V403.69L251.999 457.15V433.39Z" fill="#263238"/><path d="M282.869 415.57L190.269 362.11L159.399 379.93L251.999 433.39L282.869 415.57Z" fill="#455A64"/><path d="M190.269 362.84L281.599 415.57L251.999 432.66L160.669 379.93L190.269 362.84ZM190.269 362.11L159.399 379.93L251.999 433.39L282.869 415.57L190.269 362.11Z" fill="#263238"/><path d="M222.71 409.61L191.84 391.79V368.03L222.71 385.85V409.61Z" fill="#263238"/><path d="M222.71 385.85L315.3 332.39V356.15L222.71 409.61V385.85Z" fill="black"/><path d="M191.84 368.03L284.44 314.57L315.3 332.39L222.71 385.85L191.84 368.03Z" fill="#455A64"/><path d="M284.44 315.3L314 332.39L222.67 385.12L193.11 368L284.44 315.27M284.44 314.54L191.84 368L222.71 385.82L315.3 332.36L284.44 314.54Z" fill="#263238"/><path d="M255.139 428.21L224.279 410.39V386.63L255.139 404.45V428.21Z" fill="#263238"/><path d="M255.14 404.45L347.74 350.99V374.75L255.14 428.21V404.45Z" fill="#37474F"/><path d="M224.279 386.63L316.879 333.17L347.739 350.99L255.139 404.45L224.279 386.63Z" fill="#455A64"/><path d="M316.879 333.9L346.479 351L255.139 403.73L225.539 386.64L316.879 333.91M316.879 333.18L224.279 386.64L255.139 404.46L347.739 351L316.879 333.18Z" fill="#263238"/><path d="M284.439 379.15L315.299 361.33V337.57L284.439 355.39V379.15Z" fill="#37474F"/><path d="M284.44 355.39L191.84 301.93V325.69L284.44 379.15V355.39Z" fill="black"/><path d="M315.3 337.57L222.71 284.11L191.84 301.93L284.44 355.39L315.3 337.57Z" fill="#455A64"/><path d="M222.71 284.84L314 337.57L284.4 354.66L193.07 301.93L222.67 284.84M222.67 284.11L191.8 301.93L284.4 355.39L315.26 337.57L222.67 284.11Z" fill="#263238"/><path opacity="0.3" d="M273.919 384.77V392.69L260.139 418.78L159.399 397.55V389.64L260.139 410.86L273.919 384.77Z" fill="black"/><path d="M260.14 410.86L273.92 384.77V361.01L260.14 387.1V410.86Z" fill="#485FE6"/><path opacity="0.2" d="M260.14 410.86L273.92 384.77V361.01L260.14 387.1V410.86Z" fill="white"/><path d="M260.14 387.09L135.89 360.92V384.68L260.14 410.86V387.09Z" fill="#485FE6"/><path opacity="0.3" d="M260.14 387.09L135.89 360.92V384.68L260.14 410.86V387.09Z" fill="black"/><path d="M273.92 361.01L149.67 334.84L135.89 360.92L260.14 387.09L273.92 361.01Z" fill="#485FE6"/><path d="M190.269 331.61L159.399 313.79V290.03L190.269 307.85V331.61Z" fill="#263238"/><path d="M190.27 307.85L282.87 254.39V278.15L190.27 331.61V307.85Z" fill="#37474F"/><path d="M159.399 290.03L251.999 236.56L282.869 254.39L190.269 307.85L159.399 290.03Z" fill="#455A64"/><path d="M251.999 237.3L281.599 254.39L190.269 307.12L160.669 290L251.999 237.3ZM251.999 236.56L159.399 290L190.269 307.82L282.869 254.36L251.999 236.56Z" fill="#263238"/><path d="M255.139 368.81L224.279 350.99V327.23L255.139 345.05V368.81Z" fill="#263238"/><path d="M255.14 345.05L347.74 291.59V315.35L255.14 368.81V345.05Z" fill="#37474F"/><path d="M224.279 327.23L316.879 273.77L347.739 291.59L255.139 345.05L224.279 327.23Z" fill="#455A64"/><path d="M316.879 274.5L346.479 291.59L255.139 344.32L225.539 327.23L316.879 274.5ZM316.879 273.77L224.279 327.23L255.139 345.05L347.739 291.59L316.879 273.77Z" fill="#263238"/><path d="M284.439 319.75L315.299 301.93V278.17L284.439 295.99V319.75Z" fill="#37474F"/><path d="M284.44 295.99L191.84 242.53V266.29L284.44 319.75V295.99Z" fill="black"/><path d="M315.3 278.17L222.71 224.71L191.84 242.53L284.44 295.99L315.3 278.17Z" fill="#455A64"/><path d="M222.71 225.44L314 278.17L284.4 295.26L193.07 242.53L222.67 225.44M222.67 224.71L191.8 242.53L284.44 296L315.3 278.18L222.71 224.72L222.67 224.71Z" fill="#263238"/><path d="M190.269 272.21L159.399 254.38V230.63L190.269 248.44V272.21Z" fill="#263238"/><path d="M190.27 248.44L282.87 194.98V218.75L190.27 272.2V248.44Z" fill="black"/><path d="M159.399 230.63L251.999 177.16L282.869 194.98L190.269 248.44L159.399 230.63Z" fill="#455A64"/><path d="M251.999 177.89L281.599 195L190.269 247.73L160.669 230.64L251.999 177.89ZM251.999 177.16L159.399 230.62L190.269 248.44L282.869 195L251.999 177.16Z" fill="#263238"/><path d="M222.71 290.81L191.84 272.99V249.23L222.71 267.05V290.81Z" fill="#263238"/><path d="M222.71 267.05L315.3 213.59V237.35L222.71 290.81V267.05Z" fill="#37474F"/><path d="M191.84 249.23L284.44 195.76L315.3 213.59L222.71 267.05L191.84 249.23Z" fill="#455A64"/><path d="M284.44 196.49L314.04 213.59L222.71 266.32L193.11 249.23L284.44 196.49ZM284.44 195.76L191.84 249.23L222.71 267.05L315.3 213.59L284.44 195.76Z" fill="#263238"/><path opacity="0.3" d="M338.52 286.26L347.74 291.59L256.72 317.15L238.14 295.1V287.04L256.72 309.09L338.52 286.26Z" fill="black"/><path d="M256.72 309.09L238.14 286.13V262.37L256.72 285.33V309.09Z" fill="#485FE6"/><path opacity="0.2" d="M256.72 309.09L238.14 286.13V262.37L256.72 285.33V309.09Z" fill="#F09242"/><path d="M256.72 285.33L367.82 254.33V278.09L256.72 309.09V285.33Z" fill="#485FE6"/><path d="M238.14 262.37L349.24 231.37L367.82 254.33L256.72 285.33L238.14 262.37Z" fill="#485FE6"/><path d="M284.439 261.44L315.299 243.62V219.86L284.439 237.68V261.44Z" fill="#37474F"/><path d="M284.44 237.68L191.84 184.22V207.98L284.44 261.44V237.68Z" fill="#263238"/><path d="M315.3 219.86L222.71 166.4L191.84 184.22L284.44 237.68L315.3 219.86Z" fill="#455A64"/><path d="M222.71 167.13L314 219.86L284.44 237L193.11 184.27L222.71 167.18M222.71 166.45L191.84 184.27L284.44 237.73L315.3 219.91L222.71 166.4V166.45Z" fill="#263238"/><path d="M252 280.18L282.87 262.36V238.6L252 256.42V280.18Z" fill="#37474F"/><path d="M251.999 256.42L159.399 202.96V226.72L251.999 280.18V256.42Z" fill="#263238"/><path d="M282.869 238.6L190.269 185.14L159.399 202.96L251.999 256.42L282.869 238.6Z" fill="#455A64"/><path d="M190.269 185.87L281.599 238.6L251.999 255.69L160.669 203L190.269 185.91M190.269 185.18L159.399 203L251.999 256.42L282.869 238.6L190.269 185.14V185.18Z" fill="#263238"/><path d="M190.269 212.09L159.399 194.27V170.51L190.269 188.33V212.09Z" fill="#263238"/><path d="M190.27 188.33L282.87 134.87V158.63L190.27 212.09V188.33Z" fill="black"/><path d="M159.399 170.51L251.999 117.05L282.869 134.87L190.269 188.33L159.399 170.51Z" fill="#455A64"/><path d="M251.999 117.78L281.599 134.87L190.269 187.6L160.669 170.51L251.999 117.78ZM251.999 117.05L159.399 170.51L190.269 188.33L282.869 134.87L251.999 117.05Z" fill="#263238"/><path d="M255.93 249.52L225.06 231.7V207.94L255.93 225.76V249.52Z" fill="#263238"/><path d="M255.93 225.76L348.53 172.3V196.06L255.93 249.52V225.76Z" fill="#37474F"/><path d="M225.06 207.94L317.66 154.48L348.53 172.3L255.93 225.76L225.06 207.94Z" fill="#455A64"/><path d="M317.66 155.21L347.26 172.3L255.93 225L226.33 207.91L317.66 155.18M317.66 154.45L225.06 207.91L255.93 225.73L348.53 172.27L317.66 154.45Z" fill="#263238"/><path d="M284.439 206.15L315.299 188.33V164.57L284.439 182.39V206.15Z" fill="#37474F"/><path d="M284.44 182.39L191.84 128.93V152.69L284.44 206.15V182.39Z" fill="#263238"/><path d="M315.3 164.57L222.71 111.11L191.84 128.93L284.44 182.39L315.3 164.57Z" fill="#455A64"/><path d="M222.71 111.84L314 164.57L284.4 181.66L193.07 128.93L222.67 111.84M222.67 111.11L191.8 128.93L284.4 182.39L315.26 164.57L222.67 111.11Z" fill="#263238"/><path d="M276.34 47.55L279 42L267.37 35.29C265.997 34.4963 264.528 33.8813 263 33.46C262.47 33.32 261.92 33.2 261.37 33.1C258.653 32.6552 255.877 32.7333 253.19 33.33C252.176 33.5395 251.175 33.8032 250.19 34.12C249.154 34.4616 248.136 34.8554 247.14 35.3C245.796 35.8909 244.487 36.5586 243.22 37.3C241.822 38.1313 240.467 39.0324 239.16 40C238.16 40.74 237.16 41.52 236.16 42.36C221.72 54.55 210.36 76.27 207.47 97.17C207.27 98.59 207.12 100.01 207.01 101.42C206.84 103.42 206.75 105.42 206.76 107.42C206.76 109.04 206.83 110.61 206.95 112.13C207.06 113.44 207.21 114.71 207.39 115.94C207.57 117.17 207.81 118.34 208.08 119.47C208.776 122.614 209.914 125.644 211.46 128.47C211.77 129.03 212.09 129.56 212.46 130.08C213.84 132.222 215.582 134.107 217.61 135.65C218.216 136.104 218.85 136.518 219.51 136.89L230.51 143.24L232.94 138.16C233.59 138.02 234.24 137.85 234.94 137.65C237.616 136.831 240.185 135.693 242.59 134.26C244.147 133.349 245.649 132.347 247.09 131.26C249.025 129.809 250.869 128.24 252.61 126.56C264.66 114.96 274.16 96.81 277.61 78.75C278.123 76.1041 278.504 73.4341 278.75 70.75C278.95 68.53 279.05 66.33 279.04 64.17C279.047 61.0405 278.789 57.9161 278.27 54.83C277.858 52.3478 277.211 49.9102 276.34 47.55Z" fill="#F09242"/><path opacity="0.25" d="M210.14 84.79L233.74 98.42L236.85 89.42L213.22 75.8C212.05 78.75 211 81.76 210.14 84.79Z" fill="white"/><path opacity="0.25" d="M267.37 35.29C265.997 34.4963 264.528 33.8813 263 33.46C262.47 33.32 261.92 33.2 261.37 33.1C258.653 32.6552 255.877 32.7333 253.19 33.33C252.83 33.4 252.47 33.5 252.1 33.59L276.38 47.59C276.384 47.5702 276.384 47.5498 276.38 47.53L279 42L267.37 35.29Z" fill="white"/><path opacity="0.25" d="M264.84 69.76L268 66L232.56 45.65C231.44 46.7567 230.34 47.9233 229.26 49.15L264.84 69.76Z" fill="white"/><path opacity="0.25" d="M221.739 59.17L252.399 76.87L255.779 68.05L227.229 51.56C225.26 53.9936 223.428 56.5341 221.739 59.17Z" fill="white"/><path opacity="0.4" d="M267.369 35.29C265.996 34.4963 264.528 33.8813 262.999 33.46C262.469 33.32 261.919 33.2 261.369 33.1C258.653 32.6552 255.876 32.7333 253.189 33.33C252.176 33.5395 251.174 33.8032 250.189 34.12C249.153 34.4616 248.135 34.8554 247.139 35.3C245.795 35.8909 244.486 36.5586 243.219 37.3C241.821 38.1313 240.466 39.0324 239.159 40C238.159 40.74 237.159 41.52 236.159 42.36C222.709 53.71 211.929 73.36 208.159 92.86L257.399 121.29C267.536 108.993 274.453 94.3668 277.529 78.73C278.043 76.0841 278.423 73.4141 278.669 70.73C278.869 68.51 278.969 66.31 278.959 64.15C278.966 61.0205 278.709 57.8961 278.189 54.81C277.787 52.3495 277.154 49.9322 276.299 47.59L278.999 42L267.369 35.29Z" fill="white"/><path opacity="0.1" d="M230.489 143.19L232.919 138.11C233.569 137.97 234.219 137.8 234.919 137.6C237.596 136.781 240.165 135.643 242.569 134.21C244.127 133.299 245.629 132.297 247.069 131.21C249.005 129.759 250.849 128.19 252.589 126.51C254.269 124.89 255.899 123.12 257.479 121.26L208.199 92.84C207.919 94.28 207.679 95.72 207.479 97.15C207.279 98.58 207.129 99.99 207.019 101.4C206.849 103.4 206.759 105.4 206.769 107.4C206.769 109.02 206.839 110.59 206.959 112.11C207.069 113.42 207.219 114.69 207.399 115.92C207.579 117.15 207.819 118.32 208.089 119.45C208.786 122.594 209.924 125.624 211.469 128.45C211.779 129.01 212.099 129.54 212.469 130.06C213.849 132.202 215.592 134.087 217.619 135.63C218.225 136.084 218.86 136.498 219.519 136.87L230.489 143.19Z" fill="black"/><path opacity="0.1" d="M211.47 128.42C211.78 128.98 212.1 129.51 212.47 130.03C213.85 132.172 215.592 134.057 217.62 135.6C218.226 136.054 218.86 136.468 219.52 136.84L230.52 143.19L232.95 138.11H233.05L233.23 136.03L208.77 121.91C209.427 124.173 210.333 126.356 211.47 128.42Z" fill="black"/><path d="M290.669 62C290.177 58.7897 289.28 55.6547 287.999 52.67C286.451 48.9727 283.996 45.7258 280.859 43.23C278.951 41.7614 276.773 40.6811 274.449 40.05C273.909 39.91 273.369 39.8 272.819 39.7C270.101 39.247 267.32 39.3216 264.629 39.92C263.631 40.1297 262.646 40.3968 261.679 40.72C260.642 41.0537 259.624 41.4443 258.629 41.89C257.284 42.4788 255.975 43.1467 254.709 43.89C253.303 44.7141 251.941 45.612 250.629 46.58C249.629 47.31 248.629 48.1 247.629 48.93C233.189 61.12 221.819 82.85 218.939 103.74C218.739 105.17 218.579 106.58 218.469 107.99C218.299 109.99 218.219 111.99 218.229 113.99C218.229 115.61 218.289 117.18 218.419 118.69C218.519 120.01 218.669 121.27 218.859 122.5C219.049 123.73 219.279 124.9 219.549 126.04C220.243 129.184 221.378 132.214 222.919 135.04C223.239 135.6 223.559 136.14 223.919 136.65C225.288 138.801 227.033 140.687 229.069 142.22C232.017 144.436 235.565 145.709 239.249 145.87C242 145.993 244.752 145.634 247.379 144.81C250.056 143.991 252.625 142.853 255.029 141.42C256.587 140.509 258.089 139.507 259.529 138.42C261.465 136.969 263.309 135.4 265.049 133.72C276.999 122.1 286.529 104 289.999 85.89C290.513 83.2441 290.893 80.5741 291.139 77.89C291.339 75.67 291.439 73.47 291.429 71.31C291.438 68.1908 291.184 65.0765 290.669 62Z" fill="#F09242"/><path opacity="0.1" d="M290.669 62C290.177 58.7897 289.28 55.6547 287.999 52.67C286.451 48.9727 283.996 45.7258 280.859 43.23C278.951 41.7614 276.773 40.6811 274.449 40.05C273.909 39.91 273.369 39.8 272.819 39.7C270.101 39.247 267.32 39.3216 264.629 39.92C263.631 40.1297 262.646 40.3968 261.679 40.72C260.642 41.0537 259.624 41.4443 258.629 41.89C257.284 42.4788 255.975 43.1467 254.709 43.89C253.303 44.7141 251.941 45.612 250.629 46.58C249.629 47.31 248.629 48.1 247.629 48.93C233.189 61.12 221.819 82.85 218.939 103.74C218.739 105.17 218.579 106.58 218.469 107.99C218.299 109.99 218.219 111.99 218.229 113.99C218.229 115.61 218.289 117.18 218.419 118.69C218.519 120.01 218.669 121.27 218.859 122.5C219.049 123.73 219.279 124.9 219.549 126.04C220.243 129.184 221.378 132.214 222.919 135.04C223.239 135.6 223.559 136.14 223.919 136.65C225.288 138.801 227.033 140.687 229.069 142.22C232.017 144.436 235.565 145.709 239.249 145.87C242 145.993 244.752 145.634 247.379 144.81C250.056 143.991 252.625 142.853 255.029 141.42C256.587 140.509 258.089 139.507 259.529 138.42C261.465 136.969 263.309 135.4 265.049 133.72C276.999 122.1 286.529 104 289.999 85.89C290.513 83.2441 290.893 80.5741 291.139 77.89C291.339 75.67 291.439 73.47 291.429 71.31C291.438 68.1908 291.184 65.0765 290.669 62Z" fill="white"/><path opacity="0.05" d="M219.619 99.41C219.339 100.85 219.099 102.3 218.899 103.74C218.699 105.18 218.549 106.58 218.429 107.99C218.259 109.99 218.179 111.99 218.189 113.99C218.189 115.61 218.249 117.18 218.379 118.69C218.479 120.01 218.629 121.27 218.819 122.5C219.009 123.73 219.239 124.9 219.509 126.04C220.203 129.184 221.337 132.214 222.879 135.04C223.199 135.6 223.519 136.14 223.879 136.65C225.248 138.801 226.992 140.687 229.029 142.22C231.977 144.436 235.525 145.709 239.209 145.87C241.96 145.993 244.712 145.634 247.339 144.81C250.016 143.991 252.585 142.853 254.989 141.42C256.368 140.611 257.704 139.73 258.989 138.78L219.619 99.41Z" fill="black"/><path opacity="0.05" d="M220.189 128.58C220.852 130.814 221.754 132.97 222.879 135.01C223.199 135.57 223.519 136.11 223.879 136.62C225.248 138.771 226.993 140.657 229.029 142.19C231.443 144.005 234.272 145.187 237.259 145.63L220.189 128.58Z" fill="black"/><path opacity="0.15" d="M224.63 82.41C223.45 85.35 222.43 88.41 221.55 91.41L264.41 134.26L264.99 133.72C266.838 131.92 268.591 130.024 270.24 128.04L224.63 82.41Z" fill="white"/><path opacity="0.15" d="M238.639 58.15C236.678 60.5873 234.849 63.1275 233.159 65.76L280.329 112.93C281.859 110.06 283.259 107.08 284.519 104.03L238.639 58.15Z" fill="white"/><path opacity="0.15" d="M244 52.23C242.873 53.35 241.763 54.5267 240.67 55.76L285.77 100.86C286.4 99.17 287 97.47 287.53 95.76L244 52.23Z" fill="white"/><path opacity="0.15" d="M291.339 68C291.339 67.12 291.219 66.27 291.139 65.43L291.049 64.6C291.049 64.31 290.979 64.03 290.949 63.75C290.859 63.13 290.779 62.51 290.669 61.91C290.169 58.7305 289.272 55.6263 287.999 52.67C286.451 48.9727 283.995 45.7258 280.859 43.23C278.951 41.7614 276.773 40.6811 274.449 40.05C273.909 39.91 273.369 39.8 272.819 39.7C270.1 39.247 267.32 39.3216 264.629 39.92L263.539 40.18L291.339 68Z" fill="white"/><path d="M282.11 76.89C282.11 96.17 270.87 118.43 256.64 127.89C256.04 128.3 255.43 128.68 254.81 129.04C239.74 137.74 227.52 128.5 227.52 108.4C227.52 88.3 239.74 65 254.81 56.25C255.43 55.9 256.04 55.57 256.64 55.25C270.87 48.32 282.11 57.61 282.11 76.89Z" fill="#F09242"/><path opacity="0.4" d="M282.11 76.89C282.11 96.17 270.87 118.43 256.64 127.89C256.04 128.3 255.43 128.68 254.81 129.04C239.74 137.74 227.52 128.5 227.52 108.4C227.52 88.3 239.74 65 254.81 56.25C255.43 55.9 256.04 55.57 256.64 55.25C270.87 48.32 282.11 57.61 282.11 76.89Z" fill="black"/><path d="M280.89 77.59C280.89 78.21 280.89 78.83 280.89 79.46C280.21 97.46 269.74 117.58 256.6 126.33L256.25 126.56C255.78 126.86 255.32 127.15 254.85 127.42C252.339 128.94 249.558 129.959 246.66 130.42C240.54 131.25 235.42 128.57 232.25 123.08C230.192 119.248 229.036 114.997 228.87 110.65C228.81 109.7 228.77 108.73 228.77 107.72C228.77 106.71 228.77 105.88 228.85 104.94C228.966 102.953 229.189 100.973 229.52 99.01C231.82 85.13 239.23 71.01 248.65 62.47C249.955 61.2784 251.342 60.1791 252.8 59.18C253.48 58.72 254.16 58.29 254.85 57.89C255.54 57.49 256.03 57.24 256.6 56.96L257.09 56.73C260.401 55.0335 264.163 54.428 267.84 55C273.33 56.06 277.56 60.44 279.58 67.43C280.488 70.7389 280.929 74.1588 280.89 77.59Z" fill="#F09242"/><path opacity="0.5" d="M280.89 77.59C280.89 78.21 280.89 78.83 280.89 79.46C280.21 97.46 269.74 117.58 256.6 126.33L256.25 126.56C255.78 126.86 255.32 127.15 254.85 127.42C252.339 128.94 249.558 129.959 246.66 130.42C240.54 131.25 235.42 128.57 232.25 123.08C230.192 119.248 229.036 114.997 228.87 110.65C228.81 109.7 228.77 108.73 228.77 107.72C228.77 106.71 228.77 105.88 228.85 104.94C228.966 102.953 229.189 100.973 229.52 99.01C231.82 85.13 239.23 71.01 248.65 62.47C249.955 61.2784 251.342 60.1791 252.8 59.18C253.48 58.72 254.16 58.29 254.85 57.89C255.54 57.49 256.03 57.24 256.6 56.96L257.09 56.73C260.401 55.0335 264.163 54.428 267.84 55C273.33 56.06 277.56 60.44 279.58 67.43C280.488 70.7389 280.929 74.1588 280.89 77.59Z" fill="black"/><path d="M276.529 77C276.529 76.37 276.529 75.74 276.529 75.12C276.571 71.6848 276.126 68.2609 275.209 64.95C274.292 61.3326 272.343 58.0598 269.6 55.53C269.011 55.3271 268.41 55.1634 267.799 55.04C264.111 54.4562 260.333 55.0585 257.01 56.76L256.519 56.99C255.949 57.27 255.36 57.58 254.77 57.92C254.18 58.26 253.399 58.75 252.719 59.21C251.262 60.2091 249.875 61.3084 248.57 62.5C239.19 71 231.779 85.11 229.479 99C229.149 100.963 228.926 102.943 228.809 104.93C228.759 105.87 228.729 106.79 228.729 107.71C228.729 108.63 228.729 109.71 228.829 110.64C228.996 114.987 230.152 119.238 232.21 123.07C233.11 124.661 234.269 126.09 235.639 127.3C237.778 128.021 240.057 128.223 242.289 127.89C245.188 127.431 247.97 126.412 250.479 124.89C250.949 124.62 251.42 124.33 251.88 124.03L252.229 123.8C265.369 115.07 275.839 94.92 276.529 77Z" fill="#F09242"/><path opacity="0.25" d="M276.529 77C276.529 76.37 276.529 75.74 276.529 75.12C276.571 71.6848 276.126 68.2609 275.209 64.95C274.292 61.3326 272.343 58.0598 269.6 55.53C269.011 55.3271 268.41 55.1634 267.799 55.04C264.111 54.4562 260.333 55.0585 257.01 56.76L256.519 56.99C255.949 57.27 255.36 57.58 254.77 57.92C254.18 58.26 253.399 58.75 252.719 59.21C251.262 60.2091 249.875 61.3084 248.57 62.5C239.19 71 231.779 85.11 229.479 99C229.149 100.963 228.926 102.943 228.809 104.93C228.759 105.87 228.729 106.79 228.729 107.71C228.729 108.63 228.729 109.71 228.829 110.64C228.996 114.987 230.152 119.238 232.21 123.07C233.11 124.661 234.269 126.09 235.639 127.3C237.778 128.021 240.057 128.223 242.289 127.89C245.188 127.431 247.97 126.412 250.479 124.89C250.949 124.62 251.42 124.33 251.88 124.03L252.229 123.8C265.369 115.07 275.839 94.92 276.529 77Z" fill="black"/><path d="M272.77 39.7C257 37.92 244.19 51 235.63 62.71C223.27 80.93 215.44 104 219.71 126.05C221.1 132.19 223.9 138.34 229.01 142.24C223.79 138.42 220.77 132.24 219.3 126.1C215.37 108.04 220.3 89.1 228.58 72.92C237.42 56.93 252.42 37.52 272.77 39.7Z" fill="#F5F5F5"/><path opacity="0.35" d="M260.839 82.43L255.609 79.4L265.739 70.76L270.969 73.78L260.839 82.43Z" fill="black"/><path opacity="0.35" d="M264.059 84.42C261.379 82.52 256.729 83.96 252.799 85.2C251.846 85.52 250.986 85.8 250.219 86.04C249.968 86.6144 249.836 87.2333 249.829 87.86C249.829 90.86 252.419 90.08 258.039 88.23C259.933 87.5802 261.871 87.0688 263.839 86.7C264.009 88.25 265.089 89.7 269.299 87.45L264.059 84.42Z" fill="black"/><path opacity="0.45" d="M251.09 124.13L245.85 121.1V114.92L251.09 117.95V124.13Z" fill="black"/><path opacity="0.35" d="M260 100.66C260 103.12 258.15 105.31 255.41 106.9C251.05 109.43 249.35 107.37 248.98 105.35L248.06 104.82C248.802 104.59 249.514 104.271 250.18 103.87C252.075 102.901 253.58 101.308 254.44 99.36C257.63 98.31 260 97.89 260 100.66Z" fill="black"/><path opacity="0.35" d="M240.49 115.81C239.912 115.472 239.248 115.311 238.58 115.35C238.468 115.022 238.374 114.688 238.3 114.35L233.06 111.35C233.2 112.262 233.535 113.134 234.043 113.905C234.55 114.677 235.217 115.33 236 115.82L241.23 118.82C241.23 118.82 242.1 116.87 240.49 115.81Z" fill="black"/><path d="M257.999 88.23C252.379 90.08 249.789 90.91 249.789 87.86C249.796 87.2333 249.928 86.6144 250.179 86.04C246.339 87.22 244.549 87.37 244.549 84.84C244.549 82.98 245.809 80.68 249.279 78.66C252.979 76.52 255.049 77.02 255.569 79.4L265.689 70.76C265.689 70.63 265.599 70.51 265.549 70.39C266.179 70.2481 266.786 70.0157 267.349 69.7L263.169 67.21L262.769 66.97H262.709C261.467 66.3693 260.077 66.1435 258.709 66.32C256.902 66.5262 255.137 67.012 253.479 67.76V67.65L258.709 64.6L253.479 61.6L249.999 63.61L245.189 66.4V72.57C238.099 77.74 233.659 84.49 233.659 91.78C233.659 95.11 234.559 97 236.009 97.96H236.079C236.205 98.0377 236.335 98.1078 236.469 98.17L240.849 100.64C240.981 99.9618 240.886 99.259 240.579 98.64C241.972 98.4569 243.347 98.1558 244.689 97.74C250.009 96.13 254.739 93.6 254.739 97.55C254.739 98.1414 254.631 98.7278 254.419 99.28C257.649 98.28 259.979 97.81 259.979 100.58C259.979 103.04 258.129 105.23 255.389 106.82C251.029 109.35 249.329 107.29 248.959 105.27L248.039 104.74L243.729 102.24L233.079 111.24L238.319 114.24C238.492 115.011 238.761 115.756 239.119 116.46C241.46 116.374 243.758 115.806 245.869 114.79V117.29L254.149 116.16V109.98C261.319 104.69 266.269 97.57 266.269 90.13C266.308 88.8607 266.108 87.5953 265.679 86.4C263.048 86.6571 260.464 87.2728 257.999 88.23Z" fill="#F09242"/><path opacity="0.15" d="M257.999 88.23C252.379 90.08 249.789 90.91 249.789 87.86C249.796 87.2333 249.928 86.6144 250.179 86.04C246.339 87.22 244.549 87.37 244.549 84.84C244.549 82.98 245.809 80.68 249.279 78.66C252.979 76.52 255.049 77.02 255.569 79.4L265.689 70.76C265.689 70.63 265.599 70.51 265.549 70.39C266.179 70.2481 266.786 70.0157 267.349 69.7L263.169 67.21L262.769 66.97H262.709C261.467 66.3693 260.077 66.1435 258.709 66.32C256.902 66.5262 255.137 67.012 253.479 67.76V67.65L258.709 64.6L253.479 61.6L249.999 63.61L245.189 66.4V72.57C238.099 77.74 233.659 84.49 233.659 91.78C233.659 95.11 234.559 97 236.009 97.96H236.079C236.205 98.0377 236.335 98.1078 236.469 98.17L240.849 100.64C240.981 99.9618 240.886 99.259 240.579 98.64C241.972 98.4569 243.347 98.1558 244.689 97.74C250.009 96.13 254.739 93.6 254.739 97.55C254.739 98.1414 254.631 98.7278 254.419 99.28C257.649 98.28 259.979 97.81 259.979 100.58C259.979 103.04 258.129 105.23 255.389 106.82C251.029 109.35 249.329 107.29 248.959 105.27L248.039 104.74L243.729 102.24L233.079 111.24L238.319 114.24C238.492 115.011 238.761 115.756 239.119 116.46C241.46 116.374 243.758 115.806 245.869 114.79V117.29L254.149 116.16V109.98C261.319 104.69 266.269 97.57 266.269 90.13C266.308 88.8607 266.108 87.5953 265.679 86.4C263.048 86.6571 260.464 87.2728 257.999 88.23Z" fill="black"/><g opacity="0.2"><path d="M245.179 72.58C241.309 75.75 237.789 79.46 235.729 84C234.674 86.245 234.063 88.6729 233.929 91.15C233.822 92.3842 233.896 93.6274 234.149 94.84C234.357 96.0847 235.016 97.2095 235.999 98C234.931 97.3039 234.161 96.2341 233.839 95C233.519 93.7634 233.381 92.4866 233.429 91.21C233.5 88.6539 234.081 86.1378 235.139 83.81C236.237 81.5127 237.677 79.3952 239.409 77.53C241.124 75.6508 243.061 73.9884 245.179 72.58Z" fill="black"/></g><path d="M265.659 86.53C263.054 86.7506 260.491 87.3225 258.039 88.23C252.419 90.08 249.829 90.91 249.829 87.86C249.836 87.2333 249.968 86.6144 250.219 86.04C251.156 84.158 252.679 82.6314 254.559 81.69C258.259 79.54 260.329 80.05 260.839 82.43L270.999 73.78C270.675 72.4741 269.916 71.3173 268.848 70.4995C267.779 69.6818 266.464 69.2517 265.119 69.28C262.933 69.3237 260.78 69.8244 258.799 70.75V64.58L253.569 67.58L250.449 69.39V75.57C243.349 80.74 238.919 87.49 238.919 94.78C238.872 96.1414 239.085 97.4992 239.549 98.78C241.119 102.69 245.409 102.15 249.929 100.78C251.519 100.3 253.059 99.78 254.429 99.29C257.659 98.29 259.989 97.82 259.989 100.59C259.989 103.05 258.139 105.24 255.399 106.83C251.039 109.36 249.339 107.3 248.969 105.28L238.329 114.28C238.502 115.051 238.771 115.796 239.129 116.5C240.519 119.1 242.989 119.81 245.879 119.43C247.69 119.151 249.453 118.622 251.119 117.86V124.04L259.389 119.26V113.04C266.559 107.76 271.519 100.64 271.519 93.19C271.489 87.93 268.999 86.45 265.659 86.53Z" fill="#F09242"/><g opacity="0.1"><path d="M265.659 86.53C263.054 86.7506 260.491 87.3225 258.039 88.23C252.419 90.08 249.829 90.91 249.829 87.86C249.836 87.2333 249.968 86.6144 250.219 86.04C251.156 84.158 252.679 82.6314 254.559 81.69C258.259 79.54 260.329 80.05 260.839 82.43L270.999 73.78C270.675 72.4741 269.916 71.3173 268.848 70.4995C267.779 69.6818 266.464 69.2517 265.119 69.28C262.933 69.3237 260.78 69.8244 258.799 70.75V64.58L253.569 67.58L250.449 69.39V75.57C243.349 80.74 238.919 87.49 238.919 94.78C238.872 96.1414 239.085 97.4992 239.549 98.78C241.119 102.69 245.409 102.15 249.929 100.78C251.519 100.3 253.059 99.78 254.429 99.29C257.659 98.29 259.989 97.82 259.989 100.59C259.989 103.05 258.139 105.24 255.399 106.83C251.039 109.36 249.339 107.3 248.969 105.28L238.329 114.28C238.502 115.051 238.771 115.796 239.129 116.5C240.519 119.1 242.989 119.81 245.879 119.43C247.69 119.151 249.453 118.622 251.119 117.86V124.04L259.389 119.26V113.04C266.559 107.76 271.519 100.64 271.519 93.19C271.489 87.93 268.999 86.45 265.659 86.53Z" fill="white"/></g><path opacity="0.15" d="M248.2 106L241.67 111.53L248.93 118.79C249.65 118.55 250.36 118.28 251.09 117.97V120.97L253.09 122.97L259.33 119.37V117.16L248.2 106Z" fill="white"/><path opacity="0.15" d="M265.66 86.53C263.055 86.7506 260.491 87.3225 258.04 88.23L256.22 88.82L269.3 101.91C270.697 99.2449 271.447 96.2886 271.49 93.28C271.495 92.434 271.415 91.5897 271.25 90.76L267.1 86.61C266.622 86.5473 266.141 86.5206 265.66 86.53Z" fill="white"/><path opacity="0.15" d="M251.49 84.1C252.382 83.1417 253.417 82.3286 254.56 81.69C258.26 79.54 260.33 80.05 260.84 82.43L261.96 81.43L250.42 69.94V75.61C249.009 76.645 247.672 77.7778 246.42 79L251.49 84.1Z" fill="white"/><path opacity="0.15" d="M261.55 69.79C260.603 70.0652 259.675 70.3992 258.77 70.79V67L257.23 65.46L253.54 67.61L252.89 67.98L264.34 79.43L268.04 76.27L261.55 69.79Z" fill="white"/><path opacity="0.15" d="M244 101.81L239 96.81C239.087 97.4941 239.255 98.1654 239.5 98.81C239.844 99.7168 240.462 100.494 241.269 101.032C242.076 101.569 243.031 101.842 244 101.81Z" fill="white"/><path d="M250.42 75.61L245.18 72.58V66.4L250.42 69.43V75.61Z" fill="#F09242"/><path opacity="0.35" d="M250.42 75.61L245.18 72.58V66.4L250.42 69.43V75.61Z" fill="black"/><path d="M259.359 113.13L260.179 112.49C260.429 112.29 260.749 112.04 261.089 111.73C261.429 111.42 261.839 111.1 262.249 110.73C262.659 110.36 263.109 109.94 263.559 109.47L264.259 108.77L264.959 108C265.199 107.74 265.429 107.47 265.659 107.19C265.889 106.91 266.129 106.63 266.349 106.34C266.799 105.75 267.249 105.15 267.659 104.52C268.069 103.89 268.459 103.25 268.829 102.61C269.199 101.97 269.519 101.32 269.779 100.67C270.039 100.02 270.289 99.38 270.519 98.78C270.613 98.4667 270.703 98.1667 270.789 97.88L270.909 97.45C270.909 97.2967 270.939 97.1567 270.999 97.03C271.119 96.48 271.239 95.97 271.289 95.52C271.355 95.1295 271.399 94.7355 271.419 94.34C271.419 93.68 271.489 93.34 271.489 93.34C271.489 93.34 271.489 93.72 271.489 94.34C271.48 94.7379 271.449 95.1351 271.399 95.53C271.352 96.0412 271.271 96.5489 271.159 97.05L271.069 97.48L270.949 97.91C270.879 98.21 270.789 98.51 270.709 98.83C270.479 99.44 270.299 100.1 269.989 100.74C269.679 101.38 269.389 102.05 269.049 102.74C268.709 103.43 268.309 104.05 267.869 104.67C267.429 105.29 266.999 105.91 266.549 106.5C266.319 106.79 266.069 107.07 265.839 107.35C265.609 107.63 265.379 107.9 265.129 108.16L264.419 108.92L263.699 109.62C263.249 110.08 262.779 110.48 262.359 110.86C261.939 111.24 261.529 111.55 261.169 111.86C260.809 112.17 260.489 112.39 260.229 112.59L259.359 113.13Z" fill="white"/><path d="M250.42 69.43L258.77 64.58V70.75L258.21 65.58L250.42 69.43Z" fill="#FAFAFA"/><path d="M251.09 117.95L251.53 123.31L259.37 119.35L251.09 124.13V117.95Z" fill="#FAFAFA"/><path d="M282.639 53.02L283.339 43.83L284.039 53.02L293.229 53.72L284.039 54.42L283.339 63.61L282.639 54.42L273.449 53.72L282.639 53.02Z" fill="white"/><path d="M273.58 46.3L273.92 41.85L274.26 46.3L278.72 46.64L274.26 46.98L273.92 51.43L273.58 46.98L269.13 46.64L273.58 46.3Z" fill="white"/></svg>