<svg viewBox="0 0 52 60" fill="currentColor" xmlns="http://www.w3.org/2000/svg" class="icon sm"><path d="M51.9877 27.4334V14.6292C51.9877 12.2375 50.1794 9.52502 47.9335 8.62085L31.6877 1.97085C28.0419 0.48335 23.9294 0.48335 20.2835 1.97085L4.03769 8.62085C1.82103 9.52502 0.0126953 12.2375 0.0126953 14.6292V27.4334C0.0126953 41.6959 10.3669 55.0542 24.5127 58.9625C25.4752 59.225 26.5252 59.225 27.4877 58.9625C41.6335 55.0542 51.9877 41.6959 51.9877 27.4334ZM28.1877 32.5375V40.2084C28.1877 41.4042 27.196 42.3959 26.0002 42.3959C24.8044 42.3959 23.8127 41.4042 23.8127 40.2084V32.5375C20.8669 31.6042 18.7085 28.8625 18.7085 25.625C18.7085 21.6 21.9752 18.3333 26.0002 18.3333C30.0252 18.3333 33.2919 21.6 33.2919 25.625C33.2919 28.8917 31.1335 31.6042 28.1877 32.5375Z" fill="currentColor"/></svg>