<svg viewBox="0 0 71 70" fill="#485fe6" xmlns="http://www.w3.org/2000/svg" class="icon"><path d="M50.8462 5.83337H38.5962C28.8858 5.83337 24.7434 9.5545 24.3606 18.6743C24.3373 19.2307 24.7887 19.6875 25.3456 19.6875H33.3462C45.5962 19.6875 51.2837 25.375 51.2837 37.625V45.6256C51.2837 46.1825 51.7406 46.634 52.297 46.6106C61.4168 46.2278 65.1379 42.0855 65.1379 32.375V20.125C65.1379 9.91671 61.0546 5.83337 50.8462 5.83337Z" fill="#485fe6"></path><path d="M33.3461 23.3334H21.0961C10.8878 23.3334 6.80444 27.4167 6.80444 37.625V49.875C6.80444 60.0834 10.8878 64.1667 21.0961 64.1667H33.3461C43.5544 64.1667 47.6378 60.0834 47.6378 49.875V37.625C47.6378 27.4167 43.5544 23.3334 33.3461 23.3334ZM36.8169 39.8125L25.9961 50.6334C25.5878 51.0417 25.0628 51.2459 24.5086 51.2459C23.9544 51.2459 23.4294 51.0417 23.0211 50.6334L17.5961 45.2084C16.7794 44.3917 16.7794 43.0792 17.5961 42.2625C18.4128 41.4459 19.7253 41.4459 20.5419 42.2625L24.4794 46.2L33.8419 36.8375C34.6586 36.0209 35.9711 36.0209 36.7878 36.8375C37.6044 37.6542 37.6336 38.9959 36.8169 39.8125Z" fill="#485fe6"></path></svg>