<svg viewBox="0 0 330 30" fill="none" xmlns="http://www.w3.org/2000/svg"><path fill-rule="evenodd" clip-rule="evenodd" d="M30 15C30 23.2843 23.2843 30 15 30C6.71573 30 0 23.2843 0 15C0 6.71573 6.71573 0 15 0C23.2843 0 30 6.71573 30 15Z" fill="#E84142"></path><path fill-rule="evenodd" clip-rule="evenodd" d="M10.7494 20.9689H7.83832C7.22664 20.9689 6.92446 20.9689 6.74019 20.851C6.54123 20.722 6.41961 20.5083 6.40486 20.2725C6.39383 20.0551 6.54489 19.7898 6.84707 19.2591L14.0349 6.58961C14.3407 6.05161 14.4955 5.78263 14.6908 5.68312C14.9008 5.57629 15.1514 5.57629 15.3615 5.68312C15.5568 5.78263 15.7115 6.05161 16.0174 6.58961L17.495 9.16906L17.5026 9.18222C17.8329 9.75941 18.0004 10.0521 18.0736 10.3593C18.1546 10.6946 18.1546 11.0483 18.0736 11.3837C17.9999 11.6932 17.834 11.988 17.4987 12.5739L13.7231 19.2481L13.7134 19.2652C13.3808 19.8471 13.2123 20.142 12.9788 20.3646C12.7245 20.6078 12.4187 20.7847 12.0833 20.8842C11.7775 20.9689 11.4348 20.9689 10.7494 20.9689Z" fill="white"></path><path fill-rule="evenodd" clip-rule="evenodd" d="M18.1015 20.9693H22.2728C22.8882 20.9693 23.1977 20.9693 23.382 20.8477C23.581 20.7187 23.7063 20.5013 23.7173 20.2654C23.728 20.0552 23.5802 19.8001 23.2905 19.3004C23.2806 19.2833 23.2706 19.266 23.2604 19.2484L21.1711 15.6741L21.1473 15.6339C20.8537 15.1373 20.7054 14.8866 20.5151 14.7897C20.3051 14.6828 20.0582 14.6828 19.8482 14.7897C19.6565 14.8891 19.5018 15.1508 19.1959 15.6777L17.114 19.2521L17.1068 19.2644C16.802 19.7905 16.6497 20.0534 16.6607 20.2692C16.6755 20.505 16.797 20.7224 16.996 20.8513C17.1766 20.9693 17.4861 20.9693 18.1015 20.9693Z" fill="white"></path><circle cx="65" cy="15" r="15" fill="#EDEFF1"></circle><path d="M58.75 15.1855L64.9981 18.814V12.3953V5L58.75 15.1855Z" fill="#898989"></path><path d="M64.998 5V12.3953V18.814L71.2462 15.1855L64.998 5Z" fill="#323232"></path><path d="M65 12.3962L71.2463 15.1856L65 18.8131V12.3962Z" fill="#141414"></path><path d="M64.9981 12.3954L65 12.396V18.8123L64.9981 18.8141L58.75 15.1855L64.9981 12.3954Z" fill="#373737"></path><path d="M58.75 16.3495L64.9981 24.9999V19.9762L58.75 16.3495Z" fill="#898989"></path><path d="M64.998 19.9763V25L71.2499 16.3496L64.998 19.9763Z" fill="#323232"></path><circle cx="115" cy="15" r="15" fill="#22A079"></circle><path fill-rule="evenodd" clip-rule="evenodd" d="M117.03 10.0513V12.5441L117.033 12.5468C121.581 12.7599 125 13.6799 125 14.7779C125 15.8786 121.581 16.7959 117.033 17.009V25H112.98V17.009C108.427 16.7932 105 15.8759 105 14.7752C105 13.6745 108.424 12.7572 112.98 12.5441V10.0513H107.375V6.25H122.636V10.0513H117.03ZM117.03 16.3237V16.3264V16.3291C121.046 16.1457 124.043 15.4335 124.043 14.5809C124.043 13.7284 121.048 13.0162 117.03 12.8327V15.6169C116.914 15.6277 116.288 15.6817 115.037 15.6817C113.995 15.6817 113.24 15.6358 112.978 15.6169V12.83C108.954 13.0108 105.949 13.7257 105.949 14.5782C105.949 15.4335 108.952 16.1457 112.978 16.3264V16.3237C113.237 16.3372 113.972 16.3669 115.019 16.3669C116.328 16.3669 116.916 16.3318 117.03 16.3237Z" fill="white"></path><path d="M179.551 18.6287C177.547 26.6644 169.408 31.5548 161.37 29.5509C153.336 27.5475 148.445 19.4082 150.449 11.373C152.452 3.33634 160.592 -1.55455 168.627 0.448868C176.664 2.45229 181.555 10.5925 179.551 18.6287Z" fill="#F7931A"></path><path fill-rule="evenodd" clip-rule="evenodd" d="M171.836 13.0404C172.148 10.9388 170.559 9.80912 168.387 9.05547L169.092 6.2087L167.372 5.77684L166.686 8.5486C166.233 8.43509 165.769 8.32799 165.307 8.22187L165.998 5.43185L164.279 5L163.574 7.84579C163.2 7.75991 162.832 7.67502 162.475 7.58569L162.477 7.57681L160.105 6.98011L159.647 8.83091C159.647 8.83091 160.924 9.12556 160.897 9.14382C161.593 9.31903 161.719 9.78346 161.698 10.1516L160.896 13.3947C160.944 13.4071 161.006 13.4248 161.075 13.4525L161.016 13.4378C160.976 13.4277 160.935 13.4173 160.893 13.4071L159.768 17.9502C159.683 18.1634 159.466 18.4832 158.979 18.3618C158.997 18.387 157.729 18.0474 157.729 18.0474L156.875 20.031L159.114 20.5931C159.364 20.6562 159.611 20.7211 159.855 20.7853L159.855 20.7853C160.018 20.8281 160.179 20.8705 160.34 20.912L159.628 23.7913L161.346 24.2232L162.052 21.3744C162.521 21.5027 162.977 21.6212 163.422 21.7327L162.72 24.5681L164.44 25L165.152 22.1261C168.086 22.6853 170.291 22.4597 171.22 19.7872C171.968 17.6353 171.183 16.394 169.639 15.5846C170.763 15.3235 171.61 14.5788 171.836 13.0404ZM167.905 18.5923C167.418 20.5665 164.35 19.7503 162.946 19.3769L162.946 19.3768C162.82 19.3433 162.707 19.3132 162.611 19.2892L163.555 15.4745C163.672 15.504 163.816 15.5364 163.978 15.573L163.978 15.573C165.43 15.9012 168.405 16.5737 167.905 18.5923ZM164.27 13.8028C165.44 14.1174 167.993 14.8036 168.437 13.0093C168.891 11.1739 166.41 10.6207 165.199 10.3505C165.062 10.3201 164.942 10.2933 164.844 10.2686L163.987 13.7284C164.068 13.7487 164.163 13.7742 164.27 13.8028Z" fill="white"></path><circle cx="215" cy="15" r="15" fill="#C2A633"></circle><path fill-rule="evenodd" clip-rule="evenodd" d="M214.392 5.00101L214.797 5.01168L215.172 5.03116L215.376 5.04571L215.698 5.07475L215.923 5.09954L216.156 5.12916L216.519 5.1836L216.769 5.22719L217.025 5.27709L217.285 5.33375C217.329 5.34378 217.372 5.35411 217.416 5.36474L217.683 5.43232L217.952 5.50772L218.224 5.59135C218.27 5.606 218.315 5.62101 218.361 5.63639L218.636 5.73318C218.865 5.81765 219.095 5.91181 219.325 6.01676L219.6 6.14796C222.07 7.37666 224.375 9.91612 224.375 15.1606C224.375 19.8166 222.537 22.2786 220.472 23.5756L220.228 23.7229C219.984 23.8649 219.737 23.9914 219.49 24.1039L219.244 24.2119L218.999 24.311L218.755 24.4016L218.513 24.484L218.273 24.5587L218.037 24.626L217.804 24.6862C217.766 24.6957 217.728 24.7049 217.69 24.7138L217.464 24.7642L217.243 24.8085L216.923 24.8644L216.718 24.895L216.425 24.9322L216.239 24.9516L215.977 24.9736L215.661 24.9915L215.452 24.9981L215.198 25L214.987 24.9957L214.834 24.9881L208.021 24.987V16.0842H205.625V13.9033H208.021V5L214.392 5.00101ZM214.531 8.69436H211.849V13.9032H216.068V16.084H211.849V21.2925L214.759 21.2925L215.054 21.2869L215.387 21.2673L215.618 21.2451L215.87 21.2127L216.047 21.1845L216.232 21.1502L216.422 21.1095C216.454 21.1021 216.487 21.0945 216.519 21.0865L216.717 21.0349L216.918 20.9753C217.019 20.9435 217.122 20.9084 217.225 20.8698L217.431 20.7878L217.639 20.6959C219.124 20.0002 220.592 18.4937 220.588 15.2325C220.584 11.932 219.124 10.2907 217.619 9.47838L217.408 9.37034C217.303 9.31892 217.198 9.27135 217.094 9.22735L216.886 9.14402L216.68 9.0697C216.646 9.05803 216.613 9.04672 216.579 9.03575L216.379 8.974C216.345 8.96437 216.313 8.95506 216.28 8.94607L216.087 8.89576L215.899 8.85245L215.718 8.81565L215.545 8.78485L215.38 8.75955L215.224 8.73925L215.01 8.71707L214.881 8.70708L214.711 8.69801L214.531 8.69436Z" fill="white"></path><circle cx="265" cy="15" r="15" fill="#A5A8A9"></circle><path d="M265.243 15.4935L263.683 20.7583H272.028C272.163 20.7587 272.289 20.8222 272.37 20.93C272.45 21.0377 272.476 21.1771 272.438 21.3062L271.712 23.8062C271.641 24.0516 271.416 24.2203 271.161 24.2199H258.414L260.569 16.9412L258.186 17.6669L258.712 15.9652L261.099 15.2395L264.125 5.01451C264.194 4.76827 264.418 4.59769 264.673 4.59724H267.903C268.037 4.59676 268.164 4.65936 268.245 4.76632C268.326 4.87328 268.353 5.0122 268.316 5.14151L265.776 13.7881L268.16 13.0624L267.649 14.7932L265.243 15.4935Z" fill="white"></path><circle cx="315" cy="15" r="15" fill="#2775CA"></circle><path d="M312.556 23.912C312.556 24.238 312.333 24.3467 312 24.3467C307.889 23.0425 305 19.3473 305 15C305 10.6527 307.889 6.95747 312 5.65327C312.333 5.54459 312.556 5.76195 312.556 6.088V6.84878C312.556 7.06615 312.444 7.28352 312.222 7.3922C309 8.58771 306.778 11.5221 306.778 15C306.778 18.4779 309.111 21.521 312.222 22.6078C312.444 22.7165 312.556 22.9339 312.556 23.1512V23.912Z" fill="white"></path><path d="M315.889 21.1949C315.889 21.4123 315.667 21.6297 315.445 21.6297H314.556C314.334 21.6297 314.111 21.4123 314.111 21.1949V19.8907C312.334 19.6734 311.445 18.6952 311.111 17.2823C311.111 17.065 311.222 16.8476 311.445 16.8476H312.445C312.667 16.8476 312.778 16.9563 312.889 17.1737C313.111 17.9344 313.556 18.5865 315 18.5865C316.111 18.5865 316.889 18.0431 316.889 17.1737C316.889 16.3042 316.445 15.9781 314.889 15.7608C312.556 15.4347 311.445 14.7826 311.445 12.935C311.445 11.5221 312.556 10.4353 314.111 10.218V8.91376C314.111 8.69639 314.334 8.47903 314.556 8.47903H315.445C315.667 8.47903 315.889 8.69639 315.889 8.91376V10.218C317.222 10.4353 318.111 11.1961 318.334 12.3916C318.334 12.609 318.222 12.8263 318 12.8263H317.111C316.889 12.8263 316.778 12.7177 316.667 12.5003C316.445 11.7395 315.889 11.4135 314.889 11.4135C313.778 11.4135 313.222 11.9569 313.222 12.7177C313.222 13.4784 313.556 13.9132 315.222 14.1305C317.556 14.4566 318.667 15.1087 318.667 16.9563C318.667 18.3692 317.556 19.5647 315.889 19.8907V21.1949Z" fill="white"></path><path d="M318.001 24.3467C317.668 24.4554 317.445 24.2381 317.445 23.912V23.1512C317.445 22.9339 317.556 22.7165 317.779 22.6078C321.001 21.4123 323.223 18.4779 323.223 15C323.223 11.5222 320.89 8.47903 317.779 7.3922C317.556 7.28352 317.445 7.06615 317.445 6.84879V6.08801C317.445 5.76196 317.668 5.65327 318.001 5.65327C322.001 6.95747 325.001 10.6527 325.001 15C325.001 19.3473 322.112 23.0425 318.001 24.3467Z" fill="white"></path></svg>