<svg viewBox="0 0 500 500" fill="none" xmlns="http://www.w3.org/2000/svg" class="form-svg"><path d="M36.0001 90.19L134.1 64.51C134.477 64.409 134.877 64.4565 135.22 64.6426C135.562 64.8287 135.82 65.1392 135.94 65.51L155.36 130.63C155.417 130.828 155.434 131.035 155.409 131.239C155.385 131.443 155.319 131.641 155.216 131.819C155.114 131.997 154.976 132.153 154.812 132.277C154.647 132.401 154.46 132.49 154.26 132.54L52.3401 157.47C52.1457 157.519 51.9435 157.529 51.7452 157.499C51.5469 157.469 51.3566 157.4 51.1853 157.296C51.014 157.192 50.8652 157.054 50.7476 156.892C50.6299 156.729 50.5458 156.545 50.5001 156.35L34.9301 92C34.8409 91.6186 34.9023 91.2174 35.1017 90.8801C35.301 90.5429 35.6229 90.2957 36.0001 90.19Z" fill="#EBEBEB"/><path d="M34.5801 90.57L72.5801 39.66C73.3649 38.6042 74.4918 37.8536 75.7684 37.5363C77.0451 37.2189 78.3923 37.3546 79.5801 37.92L135.58 64.13" fill="#EBEBEB"/><path d="M40.6299 93.03L34.8799 71.05L124.26 48.34L130.2 70.92L94.9199 117.09L40.6299 93.03Z" fill="#FAFAFA"/><path d="M40.63 93L41.63 93.43L44.52 94.7L55.52 99.55L95 117H94.9L130.17 70.82V70.9C129.33 67.7 128.43 64.29 127.53 60.9C126.41 56.66 125.31 52.46 124.23 48.37L124.34 48.44L34.89 71.1V71.04C36.69 77.98 38.12 83.48 39.1 87.24C39.59 89.12 39.96 90.56 40.21 91.54C40.34 92.03 40.43 92.4 40.5 92.65L40.59 93.03C40.59 93.03 40.59 92.91 40.49 92.66L40.19 91.56C39.93 90.56 39.55 89.14 39.05 87.27C38.05 83.51 36.62 78.01 34.79 71.06L124.17 48.31H124.25V48.4C125.32 52.49 126.43 56.68 127.54 60.92C128.45 64.36 129.34 67.77 130.18 70.92L95 117.14H94.94L55.46 99.65L44.46 94.76L41.58 93.48L40.63 93Z" fill="#E0E0E0"/><path d="M105.25 68.3C105.25 68.3 95.2502 71.02 82.8802 74.3C70.5102 77.58 60.4802 80.15 60.4702 80.1C60.4602 80.05 70.4702 77.38 82.8302 74.1C95.1902 70.82 105.23 68.25 105.25 68.3Z" fill="#E0E0E0"/><path d="M115.68 76.6C115.68 76.65 102.17 80.21 85.4898 84.6C68.8098 88.99 55.2798 92.43 55.2598 92.38C55.2398 92.33 68.7598 88.77 85.4498 84.38C102.14 79.99 115.66 76.55 115.68 76.6Z" fill="#E0E0E0"/><path d="M118.29 86.89C118.29 86.89 105.41 90.34 89.4999 94.48C73.5899 98.62 60.6699 102 60.6499 101.9C60.6299 101.8 73.5299 98.45 89.4499 94.31C105.37 90.17 118.28 86.84 118.29 86.89Z" fill="#E0E0E0"/><path d="M109.26 98.79H109.17L108.91 98.86L107.91 99.15L104.19 100.15L91.8599 103.5C87.0599 104.8 82.6999 105.94 79.5399 106.75L75.7999 107.75L74.7999 108L74.5299 108.06H74.4399C74.4399 108.06 74.4399 108.06 74.5299 108.06L74.7899 107.99L75.7899 107.71L79.5199 106.71L91.8299 103.4C96.6299 102.1 100.99 100.96 104.14 100.15L107.89 99.2L108.89 98.95L109.15 98.89L109.26 98.79Z" fill="#E0E0E0"/><path d="M100.06 110.37C100.06 110.37 97.1902 111.19 93.6302 112.1C90.0702 113.01 87.1702 113.7 87.1602 113.65C87.1502 113.6 90.0202 112.83 93.5902 111.92C97.1602 111.01 100.05 110.32 100.06 110.37Z" fill="#E0E0E0"/><path d="M155.14 132C155.037 132.011 154.933 132.011 154.83 132L153.94 131.79L150.5 130.93L137.89 127.68L119.21 122.79L108.21 119.88L102.37 118.34L100.89 117.95C100.39 117.82 99.8898 117.68 99.3998 117.57C98.4124 117.374 97.4006 117.33 96.3998 117.44C94.3809 117.671 92.487 118.536 90.9898 119.91L86.5798 124L78.3298 131.87L64.3298 145.18L54.8598 154.12L52.2698 156.53L51.5798 157.15L51.3398 157.35C51.3398 157.35 51.3998 157.26 51.5398 157.11L52.1898 156.45L54.7098 154L64.0598 144.94L77.9998 131.54L86.2298 123.64L90.5998 119.47C92.1795 118.018 94.1785 117.105 96.3098 116.86C97.3738 116.736 98.4509 116.783 99.4998 117C100.03 117.12 100.5 117.25 101.02 117.38L102.5 117.78C104.5 118.3 106.29 119.34 108.2 119.84C112.02 120.84 115.84 121.33 119.35 122.26L138.01 127.26L150.57 130.67L153.98 131.67L154.87 131.93C155.05 132 155.15 132 155.14 132Z" fill="#E0E0E0"/><path d="M66.42 249.8C69.717 248.945 72.6912 247.142 74.9749 244.615C77.2586 242.088 78.7519 238.947 79.27 235.58C80.86 226.09 74.95 217.19 66.05 215.68C57.15 214.17 48.66 220.68 47.05 230.14C46.4284 233.518 46.8214 237.005 48.1793 240.161C49.5372 243.316 51.7992 245.999 54.68 247.87C29.28 247.54 26 274.68 26 274.68L84.6 284.58C84.6 284.58 90.39 257.55 66.42 249.8Z" fill="#EBEBEB"/><path d="M440.641 39.6717L343.108 77.1893L368.394 142.924L465.927 105.406L440.641 39.6717Z" fill="#EBEBEB"/><path d="M441.25 40.34C441.106 40.7696 440.915 41.1821 440.68 41.57L438.88 45L432.1 57.51L409.37 98.74L409.18 99.08L408.81 98.96L407.91 98.67L362.46 84.14L348.72 79.64L345 78.36C344.56 78.2313 344.131 78.064 343.72 77.86C344.176 77.9263 344.624 78.0333 345.06 78.18L348.84 79.28L362.67 83.5L408.2 97.77L409.1 98.05L408.54 98.28L431.54 57.18L438.54 44.81C439.35 43.42 440 42.31 440.54 41.47C440.749 41.0763 440.986 40.6986 441.25 40.34Z" fill="#E0E0E0"/><path d="M369 143.6C368.76 143.51 372.62 131.68 377.64 117.17C382.66 102.66 386.93 90.97 387.18 91.05C387.43 91.13 383.56 102.97 378.54 117.48C373.52 131.99 369.26 143.68 369 143.6Z" fill="#E0E0E0"/><path d="M419.29 77.76C419.42 77.54 430.11 83.69 443.16 91.51C456.21 99.33 466.68 105.85 466.54 106.08C466.4 106.31 455.72 100.15 442.67 92.33C429.62 84.51 419.15 78 419.29 77.76Z" fill="#E0E0E0"/><path d="M413.301 189.891L407.931 235.537L475.654 243.504L481.024 197.859L413.301 189.891Z" fill="#EBEBEB"/><path d="M481.2 198.46C480.981 198.66 480.744 198.837 480.49 198.99L478.41 200.42L470.7 205.59L445 222.49L444.79 222.63L444.61 222.45L444.18 222.01L422.35 199.81C419.61 196.99 417.35 194.68 415.79 193.03L414.02 191.17C413.807 190.961 413.613 190.733 413.44 190.49C413.682 190.664 413.906 190.862 414.11 191.08L415.96 192.86L422.66 199.5L444.66 221.58L445.09 222.01H444.7L470.46 205.27L478.28 200.27L480.43 198.94C480.669 198.754 480.927 198.593 481.2 198.46Z" fill="#E0E0E0"/><path d="M408.11 236.13C407.99 236.01 413.82 230.35 421.11 223.5C428.4 216.65 434.44 211.19 434.56 211.31C434.68 211.43 428.85 217.09 421.56 223.95C414.27 230.81 408.22 236.26 408.11 236.13Z" fill="#E0E0E0"/><path d="M457.14 213.39C457.29 213.3 461.59 220.11 466.75 228.59C471.91 237.07 476 244 475.82 244.1C475.64 244.2 471.38 237.39 466.22 228.91C461.06 220.43 457 213.48 457.14 213.39Z" fill="#E0E0E0"/><path d="M460.69 376.67C465.77 374.05 471.74 373.67 477.37 374.67C480.37 375.17 483.55 376.08 485.61 378.35C487.67 380.62 488.06 384.62 485.7 386.58C484.29 387.74 482.33 387.92 480.5 387.89C476.09 387.84 471.2 387.07 467.68 389.72C465.68 391.23 464.33 393.72 461.93 394.49C460.728 394.769 459.467 394.648 458.339 394.146C457.212 393.645 456.278 392.789 455.68 391.71C454.533 389.503 454.279 386.939 454.97 384.55C455.25 382.884 455.912 381.306 456.905 379.939C457.897 378.571 459.193 377.453 460.69 376.67Z" fill="#EBEBEB"/><path d="M449.07 354.23C452.17 358.66 458.2 357.23 461 354.49C463.8 351.75 465 347.87 466.05 344.13C468.51 335.59 470.98 326.63 469.16 317.94C468.718 315.301 467.559 312.835 465.81 310.81C464.924 309.817 463.793 309.073 462.529 308.654C461.266 308.234 459.914 308.154 458.61 308.42C455.61 309.22 453.68 312.2 452.31 315.03C448.288 323.394 446.18 332.549 446.14 341.83C446.14 346.14 446.64 350.67 449.07 354.23Z" fill="#EBEBEB"/><path d="M440.55 360.59C443.92 356.59 444.55 350.76 443.06 345.76C441.57 340.76 438.18 336.49 434.27 333.01C429.682 328.921 424.338 325.769 418.54 323.73C416.295 322.821 413.88 322.408 411.46 322.52C410.253 322.59 409.081 322.955 408.047 323.582C407.013 324.21 406.149 325.081 405.53 326.12C403.87 329.27 405.46 333.12 407.17 336.23C410.2 341.749 413.657 347.021 417.51 352C420.61 356 424.15 359.93 428.87 361.73C433.59 363.53 438.5 363.3 441 360" fill="#EBEBEB"/><path d="M448.86 421.07C449.022 420.415 449.116 419.744 449.14 419.07C449.28 417.61 449.46 415.77 449.68 413.58C449.95 410.874 450.361 408.183 450.91 405.52C451.629 402.276 452.609 399.096 453.84 396.01C455.045 392.924 456.681 390.026 458.7 387.4C460.341 385.264 462.439 383.521 464.84 382.3C466.466 381.489 468.212 380.946 470.01 380.69C470.685 380.66 471.355 380.563 472.01 380.4C471.346 380.325 470.675 380.325 470.01 380.4C468.143 380.536 466.317 381.01 464.62 381.8C462.089 382.99 459.871 384.753 458.14 386.95C456.049 389.614 454.364 392.573 453.14 395.73C451.891 398.859 450.917 402.091 450.23 405.39C449.708 408.086 449.351 410.811 449.16 413.55C448.99 415.89 448.92 417.78 448.89 419.08C448.809 419.74 448.799 420.407 448.86 421.07Z" fill="#E0E0E0"/><path d="M449.24 416.84C449.298 416.53 449.315 416.214 449.29 415.9V413.23C449.29 410.91 449.29 407.56 449.4 403.42C449.61 395.13 450.32 386.21 451.7 373.64C453.01 361.82 454.76 348.06 456.61 339.12C457 337.12 457.4 335.26 457.78 333.65C458.16 332.04 458.44 330.65 458.78 329.54C459.12 328.43 459.24 327.63 459.4 326.94C459.49 326.641 459.544 326.332 459.56 326.02C459.428 326.303 459.32 326.598 459.24 326.9C459.04 327.57 458.78 328.42 458.46 329.46C458.14 330.5 457.77 331.94 457.36 333.54C456.95 335.14 456.47 337 456 339C453.713 349.567 451.993 360.249 450.85 371C449.46 383.6 448.85 395.07 448.79 403.38C448.74 407.53 448.79 410.89 448.93 413.21C449 414.3 449.05 415.21 449.1 415.88C449.104 416.205 449.151 416.528 449.24 416.84Z" fill="#E0E0E0"/><path d="M449.29 394.71C449.366 393.782 449.366 392.848 449.29 391.92C449.135 389.387 448.851 386.864 448.44 384.36C447.827 380.65 447.006 376.978 445.98 373.36C444.783 368.915 443.245 364.569 441.38 360.36C438.179 352.577 433.595 345.439 427.85 339.29C426.853 338.241 425.791 337.255 424.67 336.34C424.18 335.92 423.75 335.51 423.31 335.18L422.07 334.33C421.327 333.769 420.542 333.267 419.72 332.83C419.59 333.01 423.05 335.05 427.42 339.7C432.982 345.897 437.443 352.999 440.61 360.7C442.443 364.895 443.993 369.208 445.25 373.61C446.45 377.66 447.25 381.38 447.86 384.52C448.47 387.66 448.77 390.22 448.97 392C449.014 392.91 449.121 393.815 449.29 394.71Z" fill="#E0E0E0"/><path d="M427.91 433.74L430.13 464.11H469.14L471.36 433.74H427.91Z" fill="#E0E0E0"/><path d="M476.01 421.77H424.14V433.74H476.01V421.77Z" fill="#E0E0E0"/><path d="M424.14 462.95V466.27H426.58H475.16V462.95H424.14Z" fill="#EBEBEB"/><path d="M428.97 472.11L426.58 466.27H473.3L470.51 472.11H428.97Z" fill="#E0E0E0"/><path d="M470.64 443.67C470.585 443.769 470.521 443.862 470.45 443.95L469.87 444.72L467.6 447.63L467.5 447.76L467.4 447.62C465.97 445.62 464.06 443.01 461.82 439.9H462.14L456.64 447.68L456.47 447.93L456.27 447.7C454.27 445.28 452.04 442.7 449.75 439.94H450.13L449.77 440.4L443.94 447.7L443.75 447.95L443.57 447.69L438.07 439.91H438.39L431.61 447.63L431.49 447.76L431.4 447.61L429.28 444.04L428.74 443.1C428.672 442.992 428.616 442.879 428.57 442.76C428.57 442.76 428.66 442.85 428.8 443.06L429.4 443.97L431.63 447.47H431.41L438.08 439.66L438.25 439.46L438.4 439.68L443.95 447.42H443.58L449.39 440.1L449.75 439.65L449.94 439.42L450.13 439.65L456.63 447.42H456.26L461.82 439.68L461.98 439.45L462.14 439.68L467.6 447.49H467.4L469.77 444.66L470.4 443.92C470.55 443.74 470.63 443.66 470.64 443.67Z" fill="#F5F5F5"/><path d="M471.9 433.54C471.9 433.67 462.13 433.78 450.07 433.78C438.01 433.78 428.24 433.67 428.24 433.54C428.24 433.41 438.01 433.3 450.07 433.3C462.13 433.3 471.9 433.41 471.9 433.54Z" fill="#F5F5F5"/><path d="M473.88 466.59C473.88 466.73 463.25 466.84 450.15 466.84C437.05 466.84 426.42 466.73 426.42 466.59C426.42 466.45 437.04 466.35 450.15 466.35C463.26 466.35 473.88 466.46 473.88 466.59Z" fill="#F5F5F5"/><path d="M296.28 470.77L140.28 470.85C134.248 470.853 128.462 468.46 124.194 464.197C119.926 459.935 117.525 454.152 117.52 448.12L117.34 96.71C117.337 93.3053 118.005 89.9334 119.306 86.787C120.607 83.6406 122.515 80.7813 124.921 78.3724C127.327 75.9635 130.184 74.0523 133.329 72.7478C136.474 71.4434 139.845 70.7713 143.25 70.77L296.37 70.69C302.47 70.69 308.32 73.1132 312.633 77.4265C316.947 81.7399 319.37 87.59 319.37 93.69L319.56 447.51C319.555 453.681 317.1 459.597 312.734 463.959C308.369 468.32 302.451 470.77 296.28 470.77Z" fill="#455A64"/><path d="M120.69 440L120.51 101.61C120.523 94.2845 123.442 87.2634 128.626 82.0873C133.809 76.9111 140.835 74.0026 148.16 74L288.5 73.92C292.133 73.9174 295.732 74.6305 299.089 76.0188C302.447 77.407 305.498 79.4431 308.068 82.0108C310.639 84.5785 312.678 87.6274 314.07 90.9834C315.462 94.3394 316.179 97.9368 316.18 101.57L316.36 439.96C316.363 443.593 315.65 447.191 314.261 450.549C312.873 453.906 310.837 456.957 308.269 459.528C305.702 462.098 302.653 464.138 299.297 465.53C295.941 466.922 292.343 467.639 288.71 467.64L148.37 467.72C144.732 467.721 141.128 467.005 137.767 465.612C134.405 464.219 131.352 462.176 128.78 459.602C126.209 457.027 124.171 453.97 122.783 450.607C121.395 447.243 120.684 443.639 120.69 440Z" fill="#263238"/><path d="M203.83 86.53C203.233 86.53 202.661 86.2929 202.239 85.871C201.817 85.449 201.58 84.8767 201.58 84.28C201.58 83.6833 201.817 83.111 202.239 82.689C202.661 82.267 203.233 82.03 203.83 82.03H232.72C233.027 82.0095 233.336 82.0523 233.626 82.1558C233.916 82.2594 234.182 82.4214 234.407 82.6319C234.632 82.8423 234.811 83.0968 234.934 83.3794C235.057 83.6621 235.12 83.9669 235.12 84.275C235.12 84.5831 235.057 84.8879 234.934 85.1706C234.811 85.4532 234.632 85.7077 234.407 85.9181C234.182 86.1286 233.916 86.2906 233.626 86.3942C233.336 86.4977 233.027 86.5405 232.72 86.52L203.83 86.53Z" fill="#455A64"/><path d="M188.34 86.54C187.895 86.542 187.459 86.4117 187.087 86.1657C186.716 85.9197 186.426 85.5689 186.254 85.158C186.082 84.747 186.036 84.2943 186.122 83.8572C186.208 83.4201 186.421 83.0182 186.736 82.7026C187.05 82.3869 187.451 82.1716 187.887 82.084C188.324 81.9964 188.777 82.0403 189.189 82.2103C189.6 82.3803 189.953 82.6687 190.2 83.0389C190.448 83.4092 190.58 83.8446 190.58 84.29C190.58 84.885 190.344 85.4558 189.925 85.8775C189.505 86.2991 188.935 86.5374 188.34 86.54Z" fill="#455A64"/><path d="M196.61 86.53C196.165 86.532 195.729 86.4017 195.357 86.1557C194.986 85.9097 194.696 85.559 194.524 85.148C194.352 84.737 194.306 84.2843 194.392 83.8472C194.478 83.4101 194.691 83.0083 195.006 82.6926C195.32 82.3769 195.721 82.1616 196.157 82.074C196.594 81.9864 197.047 82.0303 197.459 82.2003C197.871 82.3703 198.223 82.6587 198.47 83.0289C198.718 83.3992 198.85 83.8346 198.85 84.28C198.85 84.875 198.614 85.4458 198.195 85.8675C197.775 86.2891 197.205 86.5274 196.61 86.53Z" fill="#455A64"/><path d="M248.34 86.5C247.894 86.5 247.459 86.3678 247.089 86.1201C246.719 85.8724 246.43 85.5204 246.26 85.1087C246.09 84.697 246.046 84.2441 246.134 83.8074C246.221 83.3706 246.437 82.9697 246.752 82.6555C247.068 82.3412 247.47 82.1277 247.907 82.042C248.344 81.9563 248.797 82.0023 249.208 82.1742C249.619 82.346 249.969 82.6359 250.216 83.0073C250.462 83.3786 250.592 83.8146 250.59 84.26C250.59 84.555 250.532 84.8471 250.418 85.1195C250.305 85.392 250.139 85.6393 249.93 85.8475C249.721 86.0556 249.473 86.2204 249.2 86.3324C248.927 86.4443 248.635 86.5013 248.34 86.5Z" fill="#455A64"/><path d="M240.07 86.51C239.625 86.51 239.19 86.378 238.82 86.1308C238.45 85.8836 238.161 85.5322 237.991 85.121C237.821 84.7099 237.776 84.2575 237.863 83.821C237.95 83.3846 238.164 82.9837 238.479 82.669C238.793 82.3543 239.194 82.14 239.631 82.0532C240.067 81.9664 240.52 82.011 240.931 82.1813C241.342 82.3516 241.693 82.64 241.941 83.01C242.188 83.38 242.32 83.815 242.32 84.26C242.321 84.5558 242.264 84.849 242.151 85.1226C242.039 85.3962 241.873 85.6447 241.664 85.8539C241.455 86.0631 241.206 86.2288 240.932 86.3414C240.659 86.454 240.366 86.5113 240.07 86.51Z" fill="#455A64"/><path d="M290 78.51H262.8C261.517 78.5095 260.269 78.9241 259.241 79.692C258.214 80.4599 257.463 81.5397 257.1 82.77L254.88 90.39C254.479 91.7682 253.641 92.9787 252.492 93.839C251.343 94.6994 249.945 95.163 248.51 95.16H188.25C186.815 95.1609 185.419 94.6979 184.269 93.84C183.119 92.9821 182.278 91.7754 181.87 90.4L179.64 82.78C179.278 81.5499 178.527 80.4704 177.499 79.704C176.471 78.9376 175.222 78.5256 173.94 78.53H146.72C140.99 78.5194 135.491 80.7846 131.431 84.8276C127.371 88.8706 125.083 94.3604 125.07 100.09L125.25 440.71C125.259 443.547 125.827 446.354 126.921 448.971C128.015 451.588 129.614 453.964 131.626 455.963C133.638 457.962 136.024 459.546 138.649 460.623C141.273 461.7 144.083 462.249 146.92 462.24L290.17 462.17C295.899 462.181 301.399 459.915 305.459 455.872C309.518 451.829 311.807 446.34 311.82 440.61L311.64 100C311.611 94.2835 309.317 88.8116 305.26 84.7834C301.204 80.7553 295.716 78.4993 290 78.51Z" fill="#FAFAFA"/><path d="M319.39 157.63C319.742 157.633 320.079 157.774 320.328 158.022C320.577 158.271 320.718 158.608 320.72 158.96V202.29C320.72 202.641 320.581 202.978 320.334 203.227C320.087 203.476 319.751 203.617 319.4 203.62L319.39 157.63Z" fill="#455A64"/><path d="M117.37 186.08C117.007 186.08 116.658 186.224 116.401 186.481C116.144 186.738 116 187.087 116 187.45V213.82C116.003 214.184 116.149 214.533 116.408 214.789C116.666 215.046 117.016 215.19 117.38 215.19L117.37 186.08Z" fill="#455A64"/><path d="M117.35 148C117.169 148 116.99 148.036 116.823 148.105C116.657 148.175 116.505 148.277 116.378 148.405C116.25 148.533 116.15 148.685 116.081 148.853C116.013 149.02 115.979 149.199 115.98 149.38V175.74C115.983 176.105 116.129 176.455 116.387 176.713C116.645 176.971 116.995 177.117 117.36 177.12L117.35 148Z" fill="#455A64"/><path d="M117.34 119.49C117.024 119.49 116.722 119.615 116.498 119.839C116.275 120.062 116.15 120.364 116.15 120.68V131.85C116.15 132.006 116.181 132.16 116.241 132.304C116.301 132.448 116.388 132.578 116.499 132.688C116.61 132.798 116.741 132.884 116.885 132.943C117.03 133.002 117.184 133.031 117.34 133.03V119.49Z" fill="#455A64"/><path d="M267.72 89.6H266.33V91.55H267.72V89.6Z" fill="white"/><path d="M269.98 88.73H268.59V91.54H269.98V88.73Z" fill="white"/><path d="M272.24 88.08H270.85V91.54H272.24V88.08Z" fill="white"/><path d="M274.5 86.82H273.11V91.54H274.5V86.82Z" fill="white"/><path d="M295 91.63H288C287.935 91.6313 287.87 91.6196 287.809 91.5956C287.749 91.5716 287.694 91.5357 287.647 91.4901C287.6 91.4444 287.563 91.39 287.538 91.3299C287.513 91.2697 287.5 91.2052 287.5 91.14V87.67C287.5 87.5391 287.551 87.4134 287.643 87.3199C287.734 87.2265 287.859 87.1726 287.99 87.17H294.99C295.024 87.1723 295.055 87.1868 295.079 87.2107C295.103 87.2346 295.118 87.2663 295.12 87.3V88.44H295.87C295.887 88.4399 295.903 88.4433 295.918 88.45C295.934 88.4566 295.947 88.4664 295.959 88.4786C295.97 88.4908 295.979 88.5053 295.984 88.521C295.989 88.5367 295.991 88.5534 295.99 88.57V90.23C295.99 90.2645 295.976 90.2975 295.952 90.3219C295.928 90.3463 295.894 90.36 295.86 90.36H295.11V91.5C295.111 91.5158 295.11 91.5317 295.105 91.5467C295.1 91.5618 295.092 91.5758 295.082 91.5879C295.072 91.6 295.059 91.6099 295.045 91.6171C295.031 91.6244 295.016 91.6287 295 91.63ZM294.87 87.42H288C287.936 87.42 287.875 87.4453 287.83 87.4903C287.785 87.5353 287.76 87.5964 287.76 87.66V91.13C287.76 91.1936 287.785 91.2547 287.83 91.2997C287.875 91.3447 287.936 91.37 288 91.37H294.84V90.23C294.84 90.1982 294.853 90.1677 294.875 90.1451C294.898 90.1226 294.928 90.11 294.96 90.11H295.71V88.69H295C294.968 88.69 294.938 88.6774 294.915 88.6549C294.893 88.6323 294.88 88.6018 294.88 88.57L294.87 87.42Z" fill="white"/><path d="M288.34 90.81V88L294.29 87.99V89.26V89.54V90.81H288.34Z" fill="white"/><path d="M281.14 91.37C281.14 91.2691 281.11 91.1705 281.054 91.0867C280.998 91.0028 280.918 90.9374 280.825 90.8988C280.732 90.8602 280.63 90.8501 280.531 90.8698C280.432 90.8895 280.341 90.9381 280.27 91.0094C280.198 91.0807 280.15 91.1716 280.13 91.2705C280.11 91.3694 280.12 91.472 280.159 91.5652C280.198 91.6584 280.263 91.738 280.347 91.7941C280.431 91.8501 280.529 91.88 280.63 91.88C280.765 91.88 280.895 91.8263 280.991 91.7306C281.086 91.635 281.14 91.5053 281.14 91.37Z" fill="white"/><path d="M278.89 90.15L279.54 90.79C279.83 90.503 280.222 90.342 280.63 90.342C281.038 90.342 281.43 90.503 281.72 90.79L282.37 90.14C281.907 89.6806 281.282 89.4219 280.63 89.42C280.306 89.4206 279.986 89.4855 279.687 89.6108C279.388 89.7361 279.118 89.9194 278.89 90.15Z" fill="white"/><path d="M280.63 88C279.596 88.001 278.604 88.4107 277.87 89.14L278.52 89.79C279.082 89.2343 279.84 88.9226 280.63 88.9226C281.42 88.9226 282.178 89.2343 282.74 89.79L283.39 89.14C283.028 88.7771 282.598 88.4895 282.124 88.2938C281.65 88.0982 281.143 87.9983 280.63 88Z" fill="white"/><path d="M276.81 88.07L277.46 88.72C277.874 88.3001 278.368 87.967 278.912 87.7404C279.456 87.5137 280.04 87.398 280.63 87.4C281.818 87.401 282.958 87.8719 283.8 88.71L284.45 88.06C283.949 87.5581 283.353 87.1599 282.698 86.8882C282.042 86.6166 281.34 86.4767 280.63 86.4767C279.921 86.4767 279.218 86.6166 278.562 86.8882C277.907 87.1599 277.312 87.5581 276.81 88.06V88.07Z" fill="white"/><path d="M163.47 173.7C163.448 176.249 162.671 178.735 161.236 180.842C159.802 182.95 157.775 184.585 155.411 185.54C153.048 186.495 150.454 186.729 147.958 186.21C145.462 185.691 143.176 184.444 141.388 182.626C139.601 180.808 138.393 178.501 137.917 175.996C137.441 173.492 137.718 170.902 138.714 168.556C139.71 166.209 141.379 164.21 143.511 162.811C145.642 161.413 148.141 160.678 150.69 160.7C152.383 160.714 154.056 161.062 155.614 161.723C157.173 162.384 158.586 163.346 159.772 164.553C160.959 165.76 161.897 167.189 162.531 168.759C163.165 170.328 163.484 172.007 163.47 173.7Z" fill="#F09242"/><path d="M227.9 163.77C227.9 163.91 215.9 163.93 201.2 163.77C186.5 163.61 174.49 163.44 174.49 163.29C174.49 163.14 186.49 163.13 201.2 163.29C215.91 163.45 227.91 163.63 227.9 163.77Z" fill="#263238"/><path d="M271.49 176C271.49 176.14 249.69 176.08 222.8 175.86C195.91 175.64 174.11 175.34 174.11 175.2C174.11 175.06 195.91 175.12 222.81 175.34C249.71 175.56 271.49 175.85 271.49 176Z" fill="#E0E0E0"/><path d="M271.41 185.61C271.41 185.75 249.61 185.69 222.72 185.47C195.83 185.25 174 185 174 184.81C174 184.62 195.79 184.73 222.69 184.95C249.59 185.17 271.41 185.46 271.41 185.61Z" fill="#E0E0E0"/><path d="M300.15 161.92C300.15 162.07 295.43 162.14 289.62 162.1C283.81 162.06 279.1 161.89 279.1 161.75C279.1 161.61 283.81 161.53 289.63 161.58C295.45 161.63 300.15 161.78 300.15 161.92Z" fill="#263238"/><path d="M292 175.33L292.87 177.13C292.942 177.284 293.051 177.419 293.187 177.521C293.323 177.624 293.482 177.692 293.65 177.72L295.65 178.02C295.855 178.029 296.052 178.1 296.215 178.224C296.378 178.349 296.499 178.52 296.561 178.716C296.623 178.911 296.624 179.121 296.563 179.317C296.502 179.512 296.382 179.685 296.22 179.81L294.77 181.2C294.648 181.319 294.556 181.466 294.502 181.627C294.448 181.789 294.434 181.962 294.46 182.13L294.79 184.13C294.82 184.324 294.795 184.522 294.719 184.703C294.643 184.884 294.518 185.04 294.358 185.154C294.199 185.268 294.011 185.335 293.815 185.349C293.619 185.362 293.424 185.321 293.25 185.23L291.49 184.28C291.336 184.198 291.164 184.155 290.99 184.155C290.815 184.155 290.644 184.198 290.49 184.28L288.71 185.2C288.539 185.313 288.337 185.371 288.131 185.366C287.926 185.36 287.727 185.292 287.562 185.169C287.397 185.047 287.274 184.877 287.209 184.682C287.144 184.487 287.141 184.277 287.2 184.08L287.55 182.08C287.585 181.913 287.577 181.74 287.526 181.577C287.475 181.415 287.383 181.267 287.26 181.15L285.84 179.74C285.699 179.602 285.601 179.427 285.555 179.236C285.509 179.045 285.518 178.844 285.58 178.657C285.643 178.471 285.757 178.306 285.909 178.18C286.061 178.055 286.245 177.975 286.44 177.95L288.44 177.68C288.609 177.66 288.771 177.597 288.909 177.498C289.047 177.398 289.158 177.264 289.23 177.11L290.13 175.33C290.22 175.161 290.355 175.019 290.52 174.92C290.684 174.822 290.873 174.769 291.065 174.769C291.257 174.769 291.445 174.822 291.61 174.92C291.775 175.019 291.909 175.161 292 175.33Z" fill="#F09242"/><path d="M242.16 163.19C242.156 163.669 242.01 164.135 241.741 164.531C241.472 164.927 241.092 165.234 240.648 165.413C240.204 165.593 239.717 165.637 239.249 165.539C238.78 165.442 238.351 165.208 238.015 164.867C237.679 164.526 237.452 164.093 237.363 163.622C237.273 163.152 237.325 162.666 237.512 162.225C237.699 161.785 238.012 161.409 238.412 161.147C238.813 160.884 239.282 160.746 239.76 160.75C240.078 160.753 240.392 160.818 240.685 160.942C240.977 161.066 241.243 161.246 241.466 161.473C241.688 161.7 241.865 161.968 241.984 162.262C242.103 162.557 242.163 162.872 242.16 163.19Z" fill="#F09242"/><path d="M310.9 139.84C310.9 139.98 269.25 139.76 217.9 139.34C166.55 138.92 124.9 138.46 124.9 138.34C124.9 138.22 166.54 138.42 217.9 138.84C269.26 139.26 310.91 139.7 310.9 139.84Z" fill="#E0E0E0"/><path d="M310.36 206.46C310.36 206.61 268.7 206.38 217.36 205.96C166.02 205.54 124.36 205.08 124.36 204.96C124.36 204.84 166.01 205.04 217.36 205.46C268.71 205.88 310.36 206.32 310.36 206.46Z" fill="#E0E0E0"/><path d="M158.606 315.725C163.64 310.691 163.64 302.53 158.606 297.496C153.572 292.462 145.411 292.462 140.377 297.496C135.343 302.53 135.343 310.691 140.377 315.725C145.411 320.759 153.572 320.759 158.606 315.725Z" fill="#F09242"/><path d="M226.81 296.79C226.81 296.93 214.86 296.95 200.11 296.79C185.36 296.63 173.4 296.46 173.4 296.31C173.4 296.16 185.4 296.15 200.11 296.31C214.82 296.47 226.82 296.65 226.81 296.79Z" fill="#263238"/><path d="M270.4 309C270.4 309.14 248.6 309.08 221.71 308.86C194.82 308.64 173.02 308.34 173.02 308.2C173.02 308.06 194.82 308.12 221.72 308.34C248.62 308.56 270.4 308.87 270.4 309Z" fill="#E0E0E0"/><path d="M270.32 318.63C270.32 318.77 248.52 318.71 221.63 318.49C194.74 318.27 172.94 317.97 172.95 317.83C172.96 317.69 194.74 317.75 221.64 317.97C248.54 318.19 270.32 318.48 270.32 318.63Z" fill="#E0E0E0"/><path d="M299.06 294.94C299.06 295.09 294.35 295.16 288.53 295.12C282.71 295.08 278.01 294.91 278.01 294.77C278.01 294.63 282.72 294.55 288.54 294.6C294.36 294.65 299.06 294.8 299.06 294.94Z" fill="#263238"/><path d="M290.9 308.35L291.77 310.15C291.843 310.304 291.951 310.439 292.087 310.541C292.223 310.644 292.382 310.712 292.55 310.74L294.55 311.04C294.755 311.049 294.952 311.12 295.115 311.244C295.278 311.369 295.399 311.54 295.461 311.736C295.523 311.931 295.524 312.141 295.463 312.337C295.402 312.532 295.282 312.705 295.12 312.83L293.67 314.22C293.548 314.339 293.456 314.486 293.402 314.647C293.349 314.809 293.334 314.982 293.36 315.15L293.69 317.15C293.72 317.344 293.696 317.542 293.619 317.723C293.543 317.904 293.418 318.06 293.259 318.174C293.099 318.288 292.911 318.355 292.715 318.369C292.52 318.382 292.324 318.341 292.15 318.25L290.39 317.25C290.236 317.168 290.065 317.125 289.89 317.125C289.716 317.125 289.544 317.168 289.39 317.25L287.61 318.17C287.439 318.283 287.237 318.341 287.032 318.336C286.826 318.33 286.628 318.262 286.463 318.139C286.298 318.017 286.175 317.847 286.11 317.652C286.045 317.457 286.042 317.247 286.1 317.05L286.46 315.05C286.494 314.882 286.484 314.709 286.432 314.546C286.379 314.383 286.286 314.236 286.16 314.12L284.74 312.71C284.6 312.572 284.501 312.397 284.455 312.206C284.409 312.015 284.418 311.814 284.481 311.627C284.543 311.441 284.657 311.276 284.809 311.15C284.961 311.025 285.145 310.946 285.34 310.92L287.34 310.65C287.51 310.63 287.671 310.567 287.809 310.468C287.948 310.368 288.058 310.234 288.13 310.08L289.03 308.3C289.125 308.133 289.264 307.995 289.431 307.9C289.598 307.806 289.788 307.759 289.98 307.764C290.172 307.769 290.359 307.826 290.521 307.93C290.683 308.033 290.814 308.178 290.9 308.35Z" fill="#F09242"/><path d="M241.03 296.692C241.29 295.381 240.439 294.107 239.128 293.847C237.817 293.586 236.543 294.438 236.283 295.749C236.022 297.06 236.874 298.334 238.185 298.594C239.496 298.855 240.769 298.003 241.03 296.692Z" fill="#F09242"/><path d="M309.81 272.86C309.81 273 268.16 272.78 216.81 272.36C165.46 271.94 123.81 271.48 123.81 271.36C123.81 271.24 165.45 271.44 216.81 271.86C268.17 272.28 309.82 272.72 309.81 272.86Z" fill="#E0E0E0"/><path d="M309.27 339.48C309.27 339.63 268.27 339.36 217.68 338.88C167.09 338.4 126.09 337.88 126.09 337.76C126.09 337.64 167.09 337.88 217.69 338.36C268.29 338.84 309.27 339.34 309.27 339.48Z" fill="#E0E0E0"/><path d="M161.35 433.22C161.328 435.769 160.551 438.254 159.117 440.361C157.683 442.469 155.656 444.103 153.293 445.059C150.93 446.015 148.337 446.249 145.841 445.731C143.346 445.213 141.059 443.967 139.272 442.15C137.484 440.333 136.275 438.027 135.798 435.523C135.321 433.019 135.597 430.43 136.591 428.083C137.585 425.735 139.253 423.736 141.383 422.336C143.513 420.937 146.011 420.2 148.56 420.22C151.979 420.249 155.248 421.635 157.646 424.072C160.044 426.51 161.376 429.8 161.35 433.22Z" fill="#E0E0E0"/><path d="M225.78 423.3C225.78 423.44 213.78 423.46 199.07 423.3C184.36 423.14 172.37 422.97 172.37 422.82C172.37 422.67 184.37 422.66 199.08 422.82C213.79 422.98 225.78 423.16 225.78 423.3Z" fill="#263238"/><path d="M269.36 435.53C269.36 435.67 247.56 435.61 220.68 435.39C193.8 435.17 171.99 434.87 171.99 434.73C171.99 434.59 193.79 434.65 220.68 434.87C247.57 435.09 269.36 435.38 269.36 435.53Z" fill="#E0E0E0"/><path d="M269.28 445.13C269.28 445.28 247.48 445.22 220.6 445C193.72 444.78 171.91 444.48 171.91 444.34C171.91 444.2 193.71 444.25 220.6 444.47C247.49 444.69 269.29 445 269.28 445.13Z" fill="#E0E0E0"/><path d="M298 421.45C298 421.59 293.29 421.67 287.48 421.62C281.67 421.57 276.95 421.42 276.95 421.28C276.95 421.14 281.67 421.06 287.48 421.1C293.29 421.14 298 421.31 298 421.45Z" fill="#263238"/><path d="M240 422.72C239.996 423.199 239.85 423.665 239.581 424.061C239.312 424.457 238.931 424.764 238.488 424.943C238.044 425.123 237.557 425.167 237.088 425.069C236.62 424.972 236.191 424.738 235.855 424.397C235.519 424.056 235.292 423.623 235.203 423.152C235.113 422.682 235.165 422.196 235.352 421.755C235.539 421.315 235.852 420.939 236.252 420.677C236.652 420.414 237.121 420.276 237.6 420.28C237.918 420.283 238.232 420.348 238.525 420.472C238.817 420.596 239.083 420.776 239.305 421.003C239.528 421.229 239.704 421.498 239.824 421.792C239.943 422.087 240.003 422.402 240 422.72Z" fill="#F09242"/><path d="M311.392 206.475L125.948 204.954L125.402 271.572L310.846 273.093L311.392 206.475Z" fill="#F5F5F5"/><path d="M159.535 247.919C164.569 242.885 164.569 234.723 159.535 229.69C154.501 224.656 146.339 224.656 141.306 229.69C136.272 234.723 136.272 242.885 141.306 247.919C146.339 252.953 154.501 252.953 159.535 247.919Z" fill="#455A64"/><path d="M227.74 229C227.74 229.15 215.74 229.17 201.04 229.05C186.34 228.93 174.33 228.71 174.33 228.57C174.33 228.43 186.33 228.4 201.04 228.57C215.75 228.74 227.74 228.84 227.74 229Z" fill="#263238"/><path d="M271.33 241.21C271.33 241.36 249.53 241.29 222.64 241.07C195.75 240.85 173.95 240.56 173.95 240.41C173.95 240.26 195.75 240.33 222.64 240.55C249.53 240.77 271.33 241.07 271.33 241.21Z" fill="#E0E0E0"/><path d="M271.25 250.82C271.25 250.96 249.45 250.9 222.56 250.68C195.67 250.46 173.87 250.17 173.87 250.02C173.87 249.87 195.67 249.94 222.57 250.16C249.47 250.38 271.25 250.68 271.25 250.82Z" fill="#E0E0E0"/><path d="M300 227.14C300 227.28 295.28 227.36 289.47 227.31C285.96 227.37 282.449 227.253 278.95 226.96C278.95 226.82 283.66 226.74 289.48 226.79C292.991 226.73 296.502 226.847 300 227.14Z" fill="#263238"/><path d="M291.83 240.55C291.83 240.55 291.75 240.44 291.57 240.28C291.443 240.174 291.291 240.101 291.129 240.068C290.967 240.034 290.799 240.042 290.64 240.09C290.416 240.151 290.226 240.299 290.11 240.5C289.98 240.72 289.85 241.02 289.71 241.31L289.25 242.31C289.169 242.52 289.034 242.705 288.858 242.845C288.683 242.986 288.473 243.077 288.25 243.11L286.96 243.31L286.28 243.41C286.089 243.442 285.915 243.542 285.79 243.69C285.659 243.841 285.586 244.035 285.586 244.235C285.586 244.435 285.659 244.629 285.79 244.78L286.93 245.9L287.23 246.19C287.351 246.304 287.449 246.44 287.52 246.59C287.66 246.905 287.685 247.259 287.59 247.59C287.49 248.157 287.39 248.737 287.29 249.33C287.258 249.446 287.253 249.567 287.275 249.685C287.297 249.803 287.345 249.914 287.417 250.01C287.488 250.107 287.58 250.185 287.686 250.241C287.793 250.296 287.91 250.327 288.03 250.33C288.26 250.33 288.47 250.21 288.77 250.06L289.62 249.63C289.91 249.455 290.218 249.314 290.54 249.21C290.723 249.174 290.91 249.175 291.092 249.213C291.274 249.25 291.447 249.324 291.6 249.43L293.2 250.29C293.301 250.339 293.41 250.367 293.522 250.372C293.633 250.377 293.745 250.358 293.849 250.318C293.954 250.278 294.048 250.216 294.128 250.137C294.207 250.058 294.269 249.964 294.31 249.86C294.38 249.628 294.38 249.382 294.31 249.15C294.31 248.87 294.23 248.6 294.18 248.33L294.06 247.52C294 247.203 294.06 246.875 294.23 246.6C294.4 246.382 294.591 246.181 294.8 246L295.35 245.49L295.87 245C296.011 244.873 296.109 244.705 296.15 244.52C296.182 244.344 296.16 244.161 296.084 243.998C296.009 243.836 295.885 243.7 295.73 243.61C295.372 243.494 295.004 243.414 294.63 243.37L293.63 243.19C293.46 243.175 293.294 243.124 293.145 243.042C292.995 242.959 292.864 242.846 292.76 242.71C292.627 242.478 292.51 242.238 292.41 241.99C292.19 241.562 292.012 241.113 291.88 240.65C292.156 241.045 292.397 241.463 292.6 241.9C292.706 242.127 292.827 242.348 292.96 242.56C293.05 242.663 293.161 242.746 293.285 242.805C293.409 242.863 293.543 242.896 293.68 242.9L294.68 243.04C295.096 243.07 295.506 243.154 295.9 243.29C296.072 243.385 296.22 243.519 296.33 243.681C296.441 243.843 296.512 244.029 296.537 244.224C296.563 244.419 296.542 244.617 296.476 244.802C296.411 244.987 296.302 245.154 296.16 245.29L295.64 245.79L295.11 246.32C294.929 246.472 294.765 246.643 294.62 246.83C294.517 247.012 294.481 247.224 294.52 247.43C294.57 247.7 294.61 247.97 294.66 248.24C294.71 248.51 294.75 248.78 294.8 249.06C294.901 249.386 294.901 249.734 294.8 250.06C294.737 250.231 294.638 250.387 294.51 250.517C294.382 250.648 294.228 250.75 294.059 250.817C293.889 250.884 293.707 250.914 293.524 250.906C293.342 250.898 293.163 250.852 293 250.77L291.39 249.91C291.289 249.833 291.172 249.778 291.048 249.749C290.924 249.719 290.795 249.716 290.67 249.74C290.398 249.843 290.134 249.967 289.88 250.11L289.04 250.54L288.61 250.76C288.431 250.841 288.236 250.879 288.04 250.87C287.851 250.861 287.667 250.811 287.499 250.724C287.331 250.637 287.183 250.515 287.067 250.366C286.95 250.217 286.867 250.045 286.823 249.861C286.778 249.677 286.774 249.486 286.81 249.3C286.92 248.71 287.03 248.13 287.13 247.57C287.212 247.347 287.212 247.103 287.13 246.88C287.003 246.664 286.837 246.474 286.64 246.32L285.45 245C285.249 244.766 285.139 244.468 285.139 244.16C285.139 243.852 285.249 243.554 285.45 243.32C285.646 243.104 285.911 242.962 286.2 242.92L286.89 242.83L288.19 242.67C288.36 242.651 288.521 242.586 288.657 242.482C288.793 242.378 288.898 242.239 288.96 242.08L289.45 241.14C289.61 240.85 289.74 240.59 289.9 240.32C290.062 240.082 290.309 239.914 290.59 239.85C290.778 239.805 290.974 239.81 291.159 239.867C291.343 239.923 291.51 240.028 291.64 240.17C291.81 240.4 291.84 240.54 291.83 240.55Z" fill="#263238"/><path d="M242 228.41C241.996 228.889 241.85 229.355 241.581 229.751C241.312 230.147 240.931 230.454 240.488 230.633C240.044 230.813 239.557 230.857 239.088 230.759C238.62 230.662 238.191 230.428 237.855 230.087C237.519 229.746 237.292 229.313 237.203 228.842C237.113 228.372 237.165 227.886 237.352 227.445C237.539 227.005 237.852 226.629 238.252 226.367C238.652 226.104 239.121 225.966 239.6 225.97C240.241 225.978 240.853 226.239 241.303 226.696C241.752 227.153 242.003 227.769 242 228.41Z" fill="#F09242"/><path d="M311.533 339.282L126.089 337.761L125.542 404.378L310.986 405.9L311.533 339.282Z" fill="#F5F5F5"/><path d="M159.674 380.721C164.708 375.687 164.708 367.525 159.674 362.491C154.641 357.457 146.479 357.457 141.445 362.491C136.411 367.525 136.411 375.687 141.445 380.721C146.479 385.754 154.641 385.754 159.674 380.721Z" fill="#455A64"/><path d="M227.88 361.79C227.88 361.93 215.88 361.95 201.18 361.79C186.48 361.63 174.47 361.46 174.47 361.31C174.47 361.16 186.47 361.15 201.18 361.31C215.89 361.47 227.88 361.65 227.88 361.79Z" fill="#263238"/><path d="M271.47 374C271.47 374.14 249.67 374.08 222.78 373.86C195.89 373.64 174.09 373.34 174.09 373.2C174.09 373.06 195.89 373.12 222.78 373.34C249.67 373.56 271.47 373.87 271.47 374Z" fill="#E0E0E0"/><path d="M271.39 383.63C271.39 383.77 249.59 383.71 222.7 383.49C195.81 383.27 174 383 174 382.83C174 382.66 195.8 382.75 222.7 382.97C249.6 383.19 271.39 383.48 271.39 383.63Z" fill="#E0E0E0"/><path d="M300.13 359.94C300.13 360.09 295.41 360.16 289.6 360.12C283.79 360.08 279.08 359.91 279.08 359.77C279.08 359.63 283.79 359.55 289.61 359.6C295.43 359.65 300.13 359.8 300.13 359.94Z" fill="#263238"/><path d="M292 373.35C292 373.35 291.92 373.24 291.74 373.09C291.614 372.982 291.462 372.907 291.3 372.872C291.138 372.837 290.969 372.844 290.81 372.89C290.588 372.955 290.399 373.102 290.28 373.3C290.15 373.53 290.02 373.83 289.88 374.12C289.74 374.41 289.58 374.74 289.42 375.07C289.341 375.282 289.207 375.47 289.031 375.612C288.855 375.755 288.644 375.847 288.42 375.88L287.13 376.07L286.45 376.18C286.302 376.202 286.163 376.264 286.048 376.359C285.932 376.454 285.845 376.579 285.796 376.72C285.747 376.861 285.737 377.013 285.767 377.159C285.798 377.306 285.868 377.441 285.97 377.55L287.11 378.66L287.41 378.95C287.533 379.066 287.632 379.205 287.7 379.36C287.846 379.673 287.871 380.029 287.77 380.36C287.67 380.933 287.57 381.513 287.47 382.1C287.445 382.212 287.445 382.329 287.47 382.441C287.495 382.553 287.545 382.659 287.616 382.75C287.686 382.84 287.776 382.914 287.879 382.966C287.982 383.018 288.095 383.047 288.21 383.05C288.476 383.035 288.733 382.945 288.95 382.79L289.8 382.35C290.091 382.179 290.4 382.039 290.72 381.93C291.09 381.865 291.47 381.947 291.78 382.16L293.38 383.02C293.48 383.069 293.59 383.097 293.701 383.102C293.813 383.107 293.925 383.088 294.029 383.048C294.133 383.008 294.228 382.946 294.307 382.867C294.387 382.788 294.449 382.694 294.49 382.59C294.56 382.359 294.56 382.112 294.49 381.88C294.49 381.6 294.41 381.32 294.36 381.05L294.24 380.25C294.178 379.933 294.239 379.604 294.41 379.33C294.579 379.112 294.77 378.911 294.98 378.73L295.53 378.22L296.05 377.72C296.194 377.596 296.293 377.427 296.33 377.24C296.361 377.065 296.338 376.884 296.263 376.723C296.188 376.562 296.064 376.428 295.91 376.34C295.553 376.22 295.184 376.139 294.81 376.1L293.81 375.92C293.639 375.903 293.473 375.851 293.323 375.766C293.174 375.682 293.043 375.568 292.94 375.43C292.807 375.202 292.69 374.964 292.59 374.72C292.366 374.29 292.189 373.837 292.06 373.37C292.334 373.77 292.575 374.191 292.78 374.63C292.886 374.854 293.006 375.071 293.14 375.28C293.229 375.385 293.339 375.47 293.463 375.53C293.587 375.59 293.722 375.624 293.86 375.63L294.86 375.77C295.247 375.804 295.63 375.881 296 376C296.229 376.122 296.415 376.314 296.529 376.547C296.644 376.78 296.683 377.044 296.64 377.3C296.596 377.575 296.462 377.828 296.26 378.02L295.74 378.52L295.21 379.04C295.031 379.198 294.866 379.372 294.72 379.56C294.615 379.741 294.58 379.955 294.62 380.16C294.67 380.43 294.71 380.69 294.76 380.96C294.81 381.23 294.85 381.51 294.9 381.79C294.996 382.116 294.996 382.464 294.9 382.79C294.833 382.96 294.731 383.113 294.602 383.242C294.473 383.37 294.318 383.471 294.148 383.536C293.978 383.602 293.796 383.632 293.614 383.624C293.432 383.616 293.253 383.57 293.09 383.49C292.56 383.21 292.02 382.93 291.48 382.63C291.27 382.483 291.013 382.423 290.76 382.46C290.488 382.567 290.224 382.694 289.97 382.84L289.13 383.27L288.7 383.49C288.519 383.564 288.325 383.598 288.13 383.59C287.942 383.58 287.758 383.531 287.591 383.444C287.424 383.358 287.277 383.237 287.161 383.089C287.044 382.941 286.961 382.77 286.916 382.588C286.871 382.405 286.865 382.215 286.9 382.03C287.01 381.44 287.12 380.86 287.22 380.29C287.302 380.067 287.302 379.823 287.22 379.6C287.087 379.389 286.922 379.199 286.73 379.04L285.59 377.89C285.389 377.656 285.279 377.358 285.279 377.05C285.279 376.742 285.389 376.444 285.59 376.21C285.788 375.995 286.051 375.85 286.34 375.8L287.03 375.71L288.33 375.55C288.5 375.535 288.662 375.473 288.798 375.37C288.934 375.268 289.039 375.129 289.1 374.97L289.59 374.03C289.75 373.73 289.88 373.47 290.04 373.21C290.199 372.967 290.446 372.794 290.73 372.73C290.91 372.696 291.096 372.707 291.27 372.763C291.445 372.819 291.603 372.918 291.73 373.05C292 373.21 292 373.35 292 373.35Z" fill="#263238"/><path d="M242.14 361.21C242.136 361.689 241.99 362.155 241.721 362.551C241.452 362.947 241.072 363.254 240.628 363.433C240.184 363.613 239.697 363.657 239.229 363.559C238.76 363.462 238.331 363.228 237.995 362.887C237.659 362.546 237.432 362.113 237.343 361.642C237.253 361.172 237.305 360.686 237.492 360.245C237.679 359.805 237.992 359.429 238.392 359.167C238.793 358.904 239.262 358.766 239.74 358.77C240.058 358.773 240.372 358.838 240.665 358.962C240.957 359.086 241.223 359.266 241.446 359.493C241.668 359.719 241.844 359.988 241.964 360.282C242.083 360.577 242.143 360.892 242.14 361.21Z" fill="#F09242"/><path d="M226.199 115.141L210.659 115.014C209.417 115.003 208.401 116.002 208.391 117.245L208.295 128.925C208.285 130.167 209.284 131.183 210.526 131.193L226.066 131.321C227.308 131.331 228.324 130.332 228.334 129.089L228.43 117.409C228.44 116.167 227.441 115.151 226.199 115.141Z" fill="#F09242"/><path d="M227.35 115.76C227.183 116.067 226.974 116.35 226.73 116.6C226.31 117.12 225.73 117.86 224.9 118.77L222.14 121.94L220.49 123.8C220.204 124.149 219.9 124.482 219.58 124.8C219.175 125.135 218.654 125.296 218.13 125.25C217.611 125.196 217.134 124.941 216.8 124.54L215.91 123.54L214.24 121.7L211.44 118.57C210.64 117.67 210.01 116.94 209.58 116.42C209.335 116.172 209.123 115.893 208.95 115.59C208.95 115.59 209.25 115.81 209.73 116.29C210.21 116.77 210.88 117.45 211.73 118.29L214.61 121.35L216.31 123.17L217.2 124.17C217.321 124.321 217.471 124.446 217.642 124.539C217.812 124.631 217.999 124.689 218.191 124.708C218.384 124.728 218.578 124.709 218.764 124.653C218.949 124.596 219.121 124.504 219.27 124.38C219.54 124.14 219.85 123.75 220.13 123.45L221.8 121.61L224.65 118.51C225.46 117.64 226.13 116.93 226.65 116.51C226.851 116.232 227.086 115.98 227.35 115.76Z" fill="white"/><path d="M215.31 123.09C214.341 124.386 213.268 125.6 212.1 126.72C211.049 127.963 209.838 129.063 208.5 129.99C209.471 128.693 210.548 127.479 211.72 126.36C212.769 125.118 213.976 124.019 215.31 123.09Z" fill="white"/><path d="M228.32 130.37C226.96 129.285 225.717 128.062 224.61 126.72C223.37 125.497 222.252 124.158 221.27 122.72C222.632 123.806 223.878 125.029 224.99 126.37C226.228 127.591 227.344 128.931 228.32 130.37Z" fill="white"/><path d="M153.77 121.64C153.77 121.73 150.35 121.8 146.13 121.8C141.91 121.8 138.49 121.73 138.49 121.64C138.49 121.55 141.91 121.48 146.13 121.48C150.35 121.48 153.77 121.55 153.77 121.64Z" fill="#263238"/><path d="M153.77 125.55C153.77 125.64 150.35 125.71 146.13 125.71C141.91 125.71 138.49 125.64 138.49 125.55C138.49 125.46 141.91 125.39 146.13 125.39C150.35 125.39 153.77 125.46 153.77 125.55Z" fill="#263238"/><path d="M153.77 129.46C153.77 129.55 150.35 129.63 146.13 129.63C141.91 129.63 138.49 129.55 138.49 129.47C138.49 129.39 141.91 129.3 146.13 129.3C150.35 129.3 153.77 129.38 153.77 129.46Z" fill="#263238"/><path d="M297.18 124.13C297.13 124.13 297.18 123.75 296.96 123.13C296.713 122.245 296.179 121.467 295.44 120.92C294.849 120.471 294.145 120.196 293.406 120.125C292.667 120.054 291.923 120.189 291.257 120.517C290.591 120.844 290.03 121.35 289.635 121.979C289.24 122.607 289.028 123.333 289.022 124.075C289.016 124.817 289.217 125.546 289.602 126.181C289.987 126.815 290.541 127.33 291.202 127.668C291.862 128.006 292.604 128.153 293.344 128.093C294.084 128.034 294.792 127.769 295.39 127.33C296.133 126.788 296.68 126.019 296.95 125.14C297.13 124.51 297.13 124.14 297.18 124.14C297.193 124.23 297.193 124.32 297.18 124.41C297.186 124.672 297.159 124.934 297.1 125.19C296.883 126.148 296.338 127 295.56 127.6C294.904 128.091 294.123 128.389 293.306 128.461C292.489 128.532 291.669 128.373 290.937 128.003C290.206 127.633 289.592 127.066 289.166 126.365C288.739 125.665 288.517 124.859 288.524 124.039C288.531 123.22 288.767 122.418 289.205 121.725C289.644 121.032 290.267 120.475 291.005 120.118C291.743 119.76 292.566 119.616 293.381 119.701C294.197 119.786 294.972 120.098 295.62 120.6C296.388 121.213 296.916 122.077 297.11 123.04C297.167 123.296 297.191 123.558 297.18 123.82C297.204 123.922 297.204 124.028 297.18 124.13Z" fill="#263238"/><path d="M299.43 131.39C298.662 130.876 297.986 130.238 297.43 129.5C296.747 128.863 296.176 128.116 295.74 127.29C296.508 127.804 297.184 128.442 297.74 129.18C298.426 129.814 298.998 130.562 299.43 131.39Z" fill="#263238"/><path d="M287.81 333L287.67 386.74L263.92 381.86L243.92 377.68C243.92 377.68 271.3 431.68 301.08 431.68C330.86 431.68 334.71 386.75 334.71 386.75L336.48 333H287.81Z" fill="#9B7564"/><path d="M411.18 194.37C409 195.61 406 194 405 191.68C404 189.36 404.46 186.68 405.22 184.24C405.98 181.8 407.04 179.46 407.22 176.93C407.309 174.62 406.653 172.343 405.35 170.435C404.046 168.526 402.164 167.087 399.98 166.33C404.28 162.92 404.63 155.61 400.68 151.8C398.83 150.02 396.37 149.05 394.22 147.65C392.997 146.842 391.858 145.914 390.82 144.88C392.739 145.353 394.736 145.414 396.68 145.06C398.238 144.718 399.686 143.989 400.888 142.941C402.09 141.892 403.009 140.557 403.56 139.06C404.068 137.543 404.142 135.915 403.775 134.359C403.407 132.802 402.613 131.379 401.48 130.25C400.312 129.156 398.839 128.444 397.256 128.209C395.673 127.973 394.056 128.224 392.62 128.93C389.84 130.4 388.32 133.42 386.97 136.26L385.71 138.89C381.8 133.71 378.12 128.36 372.09 126.54C366.62 124.89 360.74 126.73 355.04 126.32C350.89 126.01 346.91 124.52 342.77 124.06C338.63 123.6 333.92 124.49 331.48 127.86C330.04 129.86 329.59 132.4 328.14 134.37C325.14 138.43 318.68 138.98 316.22 143.37C314.22 146.95 315.76 151.47 314.9 155.48C313.97 159.84 310.37 163.03 307.43 166.38C304.49 169.73 301.92 174.33 303.57 178.47C305.03 182.12 309.28 184.08 310.66 187.75C311.66 190.43 310.94 193.4 310.89 196.26C310.84 199.12 311.98 202.52 314.77 203.17L346.5 211.55C357.43 215.99 368.7 220.55 380.5 220.49C392.3 220.43 404.89 214.81 409.5 203.97C407.784 203.905 406.158 203.19 404.95 201.97C406.491 201.25 407.85 200.193 408.929 198.878C410.007 197.563 410.776 196.022 411.18 194.37Z" fill="#263238"/><path d="M385.17 204.32C387.79 196.32 390.37 188.17 391.56 179.79C392.75 171.41 392.5 162.67 389.56 154.79C389.12 153.59 385.31 145.52 384.03 145.65C383.12 145.74 385.46 153.26 385.03 154.06C380.63 161.62 379.43 170.71 380.14 179.44C380.898 187.913 382.598 196.274 385.21 204.37" fill="#263238"/><path d="M357.15 274.66C370.27 274.38 385.15 245.66 385.15 245.66L386 172C386.68 150.79 374.91 132.71 353.69 132.61L351.69 132.71C342.172 133.23 333.198 137.309 326.546 144.136C319.894 150.964 316.052 160.042 315.78 169.57C315.29 187.96 314.97 208.29 315.62 218.11C316.96 238.43 337.47 240.5 337.47 240.5C337.47 240.5 337.59 245.22 337.65 251.2C337.79 264.62 351.84 275.08 357.1 274.63L357.15 274.66Z" fill="#9B7564"/><path d="M337.52 240.53C337.52 240.53 350.38 240.6 363.58 231.28C363.58 231.28 357.92 246.42 337.53 245.68L337.52 240.53Z" fill="#7F6358"/><path d="M324.61 185.56C324.644 186.325 324.978 187.046 325.539 187.566C326.101 188.086 326.845 188.364 327.61 188.34C327.98 188.349 328.348 188.285 328.693 188.15C329.038 188.015 329.352 187.812 329.617 187.554C329.883 187.296 330.094 186.988 330.239 186.647C330.384 186.306 330.459 185.94 330.46 185.57C330.429 184.803 330.096 184.08 329.534 183.558C328.972 183.035 328.227 182.756 327.46 182.78C327.089 182.771 326.72 182.836 326.375 182.971C326.029 183.107 325.714 183.31 325.449 183.569C325.183 183.828 324.972 184.138 324.828 184.48C324.684 184.822 324.61 185.189 324.61 185.56Z" fill="#263238"/><path d="M320.63 177.81C321.01 178.17 323.12 176.42 326.25 176.26C329.38 176.1 331.75 177.55 332.07 177.14C332.22 176.97 331.82 176.3 330.78 175.63C329.38 174.762 327.744 174.353 326.1 174.46C324.474 174.541 322.916 175.136 321.65 176.16C320.73 177 320.44 177.65 320.63 177.81Z" fill="#263238"/><path d="M352.76 184.81C352.794 185.575 353.128 186.296 353.689 186.816C354.251 187.336 354.995 187.614 355.76 187.59C356.131 187.599 356.5 187.534 356.846 187.399C357.191 187.263 357.506 187.06 357.771 186.801C358.037 186.542 358.248 186.232 358.392 185.89C358.536 185.548 358.61 185.181 358.61 184.81C358.577 184.054 358.25 183.341 357.699 182.822C357.148 182.303 356.417 182.019 355.66 182.03C355.286 182.015 354.912 182.076 354.561 182.209C354.21 182.342 353.89 182.544 353.62 182.804C353.349 183.063 353.133 183.375 352.986 183.719C352.838 184.064 352.761 184.435 352.76 184.81Z" fill="#263238"/><path d="M351.31 177.43C351.69 177.79 353.81 176.05 356.93 175.89C360.05 175.73 362.43 177.17 362.75 176.77C362.91 176.59 362.51 175.93 361.46 175.25C360.058 174.388 358.423 173.979 356.78 174.08C355.154 174.163 353.597 174.758 352.33 175.78C351.42 176.57 351.13 177.27 351.31 177.43Z" fill="#263238"/><path d="M341.39 202.05C341.39 201.87 339.39 201.64 336.26 201.41C335.46 201.41 334.7 201.25 334.53 200.71C334.416 199.89 334.56 199.055 334.94 198.32C335.607 196.32 336.274 194.25 336.94 192.11C339.76 183.29 341.75 176.04 341.39 175.93C341.03 175.82 338.46 182.93 335.65 191.72C334.98 193.89 334.33 195.97 333.72 197.95C333.266 198.941 333.177 200.06 333.47 201.11C333.602 201.385 333.795 201.626 334.034 201.815C334.273 202.004 334.552 202.135 334.85 202.2C335.296 202.299 335.754 202.339 336.21 202.32C339.42 202.32 341.38 202.23 341.39 202.05Z" fill="#263238"/><path d="M350.7 203.72C350.19 203.72 350.37 207.11 347.59 209.67C344.81 212.23 341.19 212.06 341.19 212.53C341.19 212.75 342.03 213.15 343.55 213.11C345.54 213.03 347.437 212.251 348.91 210.91C350.327 209.618 351.184 207.824 351.3 205.91C351.36 204.51 350.93 203.69 350.7 203.72Z" fill="#263238"/><path d="M350.8 164.74C351.16 165.58 354.26 165.01 357.95 165.25C361.64 165.49 364.66 166.34 365.1 165.55C365.3 165.17 364.74 164.4 363.5 163.64C361.85 162.719 360.012 162.186 358.126 162.08C356.239 161.974 354.353 162.299 352.61 163.03C351.29 163.64 350.65 164.35 350.8 164.74Z" fill="#263238"/><path d="M321.36 167.35C321.95 168.03 324.07 167.18 326.65 167.01C329.23 166.84 331.46 167.23 331.92 166.46C332.13 166.09 331.74 165.39 330.75 164.77C329.419 164.036 327.901 163.712 326.386 163.84C324.871 163.968 323.429 164.542 322.24 165.49C321.36 166.27 321.1 167 321.36 167.35Z" fill="#263238"/><path d="M385.15 187.18C385.49 187.01 398.9 182.3 399.21 196.18C399.52 210.06 385.46 207.53 385.43 207.18C385.4 206.83 385.15 187.18 385.15 187.18Z" fill="#9B7564"/><path d="M389.57 201.82C389.63 201.82 389.82 201.98 390.23 202.16C390.811 202.394 391.46 202.394 392.04 202.16C393.5 201.59 394.69 199.22 394.71 196.71C394.714 195.515 394.455 194.334 393.95 193.25C393.81 192.819 393.567 192.429 393.244 192.112C392.92 191.795 392.524 191.561 392.09 191.43C391.809 191.363 391.513 191.396 391.254 191.524C390.995 191.652 390.788 191.866 390.67 192.13C390.49 192.52 390.59 192.8 390.51 192.82C390.43 192.84 390.21 192.59 390.31 192.02C390.381 191.672 390.568 191.358 390.84 191.13C391.025 190.981 391.238 190.871 391.467 190.806C391.695 190.74 391.934 190.721 392.17 190.75C392.744 190.851 393.282 191.096 393.734 191.464C394.185 191.832 394.535 192.309 394.75 192.85C395.373 194.044 395.693 195.373 395.68 196.72C395.68 199.53 394.27 202.18 392.27 202.81C391.898 202.928 391.505 202.961 391.119 202.905C390.732 202.85 390.364 202.708 390.04 202.49C389.6 202.15 389.52 201.84 389.57 201.82Z" fill="#7F6358"/><path d="M324.55 146.41C322.28 145.2 328.95 137.81 334.46 135.22C342.78 131.32 355.54 128.82 363.28 130.91C372.61 133.42 380.39 137.91 385.17 146.35C389.95 154.79 391.83 164.58 391.68 174.24C391.63 177.19 391.37 180.24 389.82 182.78C387.92 185.88 384.21 187.87 384.43 192.12C384.492 192.888 384.401 193.661 384.163 194.394C383.924 195.127 383.543 195.805 383.04 196.39C380.52 199.13 377.37 196.62 375.91 194.09C372.77 188.67 372.35 182.16 372 175.92C371.75 171.48 371.51 166.92 372.71 162.66C373.36 160.33 374.43 158.12 374.95 155.76C375.47 153.4 375.37 150.76 373.87 148.81C373.526 148.399 373.144 148.021 372.73 147.68C370.764 146.012 368.39 144.896 365.851 144.446C363.313 143.997 360.7 144.229 358.28 145.12C350.47 148 337.13 152.32 333.6 149.7C328.52 145.93 327.28 143.45 327.28 143.45L324.55 146.41Z" fill="#263238"/><path d="M362.53 129C354.85 126.54 346.13 126.79 339.02 130.6C335.24 132.6 331.84 135.82 330.74 139.95C329.64 144.08 331.46 149.15 335.44 150.71L335.72 150.88C341.72 152.8 345.54 151.96 351.44 149.83C356.44 148.04 360.8 144.91 365.77 143.14C371.098 141.266 376.864 141.025 382.33 142.45C376.93 136.47 370.22 131.49 362.53 129Z" fill="#263238"/><path d="M389 142.8C388.88 142.9 387.76 141.57 385.5 140C384.185 139.082 382.765 138.323 381.27 137.74C379.482 136.987 377.548 136.645 375.61 136.74C372.062 137.135 368.697 138.521 365.9 140.74C363.74 142.45 362.74 143.89 362.61 143.79C362.48 143.69 362.76 143.36 363.22 142.72C363.876 141.813 364.631 140.981 365.47 140.24C368.282 137.755 371.798 136.207 375.53 135.81C377.607 135.691 379.682 136.061 381.59 136.89C383.131 137.535 384.578 138.386 385.89 139.42C388.14 141.23 389.1 142.74 389 142.8Z" fill="#455A64"/><path d="M390.41 147.73C390.294 149.115 389.935 150.469 389.35 151.73C386.847 157.973 382.251 163.152 376.35 166.38C375.177 167.11 373.883 167.624 372.53 167.9C372.36 167.63 378.38 165.35 383.43 159.57C388.48 153.79 390.12 147.6 390.41 147.73Z" fill="#455A64"/><path d="M396.08 150C396.189 150.52 396.206 151.054 396.13 151.58C396.057 153.022 395.856 154.454 395.53 155.86C394.461 160.547 392.249 164.896 389.091 168.52C385.932 172.144 381.926 174.93 377.43 176.63C376.08 177.143 374.688 177.538 373.27 177.81C372.757 177.959 372.222 178.013 371.69 177.97C371.69 177.81 373.88 177.43 377.18 175.97C381.485 174.157 385.319 171.383 388.389 167.861C391.458 164.34 393.682 160.163 394.89 155.65C395.83 152.23 395.91 150 396.08 150Z" fill="#455A64"/><path d="M346.58 127.75C346.58 127.91 345.13 128.25 342.89 129.14C337.012 131.476 332.014 135.595 328.6 140.92C327.969 142.072 327.278 143.19 326.53 144.27C326.796 142.957 327.305 141.706 328.03 140.58C329.628 137.759 331.73 135.254 334.23 133.19C336.731 131.127 339.593 129.547 342.67 128.53C343.916 128.038 345.241 127.774 346.58 127.75Z" fill="#455A64"/><path d="M400.45 129.5C400.68 129.5 400.07 133.5 396.92 137.25C393.77 141 389.92 142.3 389.92 142.07C389.92 141.84 393.29 140.21 396.23 136.65C399.17 133.09 400.17 129.41 400.45 129.5Z" fill="#455A64"/><path d="M252.46 378.13L260.72 373.06C262.122 372.208 263.73 371.755 265.37 371.75H281.37L297.89 386.8L302.82 389.26L300.98 415.26L290.24 413.94C290.24 413.94 267.31 414.94 265.09 413.45C262.87 411.96 259.66 407.28 259.66 407.28C259.66 407.28 247.09 403.21 245.86 402.11C241.19 397.92 243.07 396.92 243.07 396.92L240.92 395.92C240.52 396.68 237.39 391.58 237.72 389.02C237.91 387.53 237.47 387.54 237.47 387.54C236.428 386.942 235.53 386.122 234.839 385.139C234.148 384.156 233.68 383.033 233.47 381.85C233.24 380.33 239.47 381.42 239.47 381.42L255 381.63L252.46 378.13Z" fill="#9B7564"/><path d="M266.27 381.28L251.66 361.39C251.132 360.666 250.439 360.078 249.64 359.673C248.84 359.268 247.956 359.058 247.06 359.06H218.18C217.623 359.06 217.089 359.281 216.695 359.675C216.301 360.069 216.08 360.603 216.08 361.16C216.085 361.662 216.265 362.147 216.59 362.53L233.14 381.73L266.27 381.28Z" fill="#455A64"/><path d="M259.19 389.43C258.127 389.716 257.031 389.86 255.93 389.86C250.639 390.168 245.331 389.71 240.17 388.5C239.085 388.304 238.029 387.968 237.03 387.5C238.122 387.574 239.206 387.738 240.27 387.99C242.27 388.34 245 388.77 248.06 388.99C251.12 389.21 253.9 389.31 255.91 389.3C257.005 389.246 258.103 389.29 259.19 389.43Z" fill="#7F6358"/><path d="M263.34 398.14C262.277 398.423 261.181 398.568 260.08 398.57C257.438 398.728 254.787 398.691 252.15 398.46C249.51 398.234 246.89 397.817 244.31 397.21C243.228 397.015 242.175 396.679 241.18 396.21C242.272 396.285 243.355 396.449 244.42 396.7C246.42 397.05 249.15 397.48 252.21 397.7C255.27 397.92 258.05 398.02 260.06 398.01C261.155 397.956 262.253 398 263.34 398.14Z" fill="#7F6358"/><path d="M233.51 381.85C233.631 382.466 233.791 383.074 233.99 383.67C234.646 385.315 235.915 386.642 237.53 387.37L237.64 387.42V387.54C237.605 389.299 237.992 391.041 238.77 392.62C239.731 394.561 241.32 396.119 243.28 397.04L243.55 397.16L243.42 397.41C243.27 397.722 243.192 398.064 243.192 398.41C243.192 398.756 243.27 399.098 243.42 399.41C243.76 400.084 244.245 400.675 244.84 401.14C246.162 402.157 247.615 402.991 249.16 403.62C252.584 405.041 256.128 406.152 259.75 406.94H259.89L259.96 407.06C260.887 408.404 261.979 409.627 263.21 410.7C264.394 411.874 265.851 412.737 267.45 413.21C268.682 413.513 269.952 413.641 271.22 413.59L275.02 413.69L282.35 413.89L295.55 414.26H295.6L311.33 417.47L315.7 418.41L316.84 418.68C316.976 418.696 317.108 418.737 317.23 418.8C317.097 418.816 316.963 418.816 316.83 418.8L315.67 418.62L311.26 417.84L295.48 414.84H295.53L282.33 414.56L275.01 414.39L271.2 414.3C269.874 414.341 268.548 414.2 267.26 413.88C265.557 413.38 264.004 412.466 262.74 411.22C261.465 410.105 260.34 408.832 259.39 407.43L259.6 407.58C255.939 406.775 252.361 405.633 248.91 404.17C247.315 403.509 245.818 402.635 244.46 401.57C243.792 401.03 243.256 400.347 242.89 399.57C242.717 399.185 242.632 398.765 242.642 398.343C242.653 397.921 242.758 397.506 242.95 397.13L243.09 397.5C241.026 396.508 239.362 394.844 238.37 392.78C237.588 391.126 237.221 389.307 237.3 387.48L237.41 387.65C236.574 387.26 235.826 386.704 235.21 386.016C234.595 385.329 234.126 384.524 233.83 383.65C233.614 383.075 233.505 382.465 233.51 381.85Z" fill="#7F6358"/><path d="M268.07 405.79C268.15 405.95 266.21 406.94 263.58 407.29C260.95 407.64 258.83 407.2 258.86 407.03C258.89 406.86 260.97 406.94 263.49 406.59C266.01 406.24 268 405.6 268.07 405.79Z" fill="#7F6358"/><path d="M275.49 381.25C275.49 381.44 272.32 381.71 268.38 381.86C264.44 382.01 261.25 381.96 261.25 381.76C261.25 381.56 264.42 381.3 268.36 381.15C272.3 381 275.49 381.05 275.49 381.25Z" fill="#7F6358"/><path d="M302.51 387.13C302.51 387.13 302.21 387.42 301.51 387.53C300.506 387.639 299.494 387.414 298.63 386.89C297.422 386.101 296.294 385.197 295.26 384.19L291.32 380.74L284.12 374.55C283.075 373.749 282.098 372.863 281.2 371.9C282.348 372.55 283.429 373.311 284.43 374.17C286.36 375.65 288.98 377.77 291.79 380.17C293.19 381.39 294.51 382.57 295.69 383.66C296.676 384.666 297.743 385.59 298.88 386.42C299.65 386.935 300.554 387.213 301.48 387.22C302.14 387.23 302.49 387.07 302.51 387.13Z" fill="#7F6358"/><path d="M263.19 381.71C263.045 381.581 262.915 381.437 262.8 381.28L261.8 380L258 375.21L252.52 368.07L249.3 363.85C248.732 363.158 247.985 362.636 247.14 362.34C246.708 362.19 246.257 362.099 245.8 362.07C245.35 362.07 244.8 362.07 244.36 362.07L224.36 361.99L218.29 361.91H216.64C216.445 361.915 216.251 361.898 216.06 361.86C216.25 361.815 216.445 361.798 216.64 361.81L218.29 361.76L224.36 361.67L244.36 361.6C244.86 361.6 245.36 361.6 245.84 361.6C246.341 361.634 246.836 361.735 247.31 361.9C248.242 362.233 249.065 362.814 249.69 363.58L252.9 367.83L258.29 375.04C259.78 377.04 261 378.71 261.89 379.93C262.28 380.47 262.59 380.93 262.89 381.27C263.008 381.403 263.109 381.551 263.19 381.71Z" fill="#263238"/><path d="M231.78 364.89C231.966 364.747 232.189 364.662 232.423 364.646C232.656 364.629 232.89 364.682 233.093 364.798C233.297 364.913 233.462 365.087 233.568 365.295C233.674 365.504 233.715 365.74 233.688 365.973C233.66 366.205 233.565 366.425 233.413 366.603C233.262 366.782 233.061 366.911 232.836 366.976C232.611 367.041 232.371 367.038 232.148 366.968C231.925 366.897 231.727 366.762 231.58 366.58C231.394 366.335 231.307 366.03 231.337 365.724C231.366 365.418 231.51 365.134 231.74 364.93" fill="#F5F5F5"/><path d="M386.58 239.87L427.26 263.78L434.74 395.78L444.46 470.46H298.26C298.26 470.46 299.87 379.57 300.37 352.08C300.73 332.81 300.21 295.46 306.73 272.49C309.51 262.7 336.73 250.05 336.73 250.05C351.64 263.22 368.31 259.29 386.58 239.87Z" fill="#485FE6"/><path d="M440.16 437.46C440.16 437.6 408.6 437.72 369.66 437.72C330.72 437.72 299.16 437.6 299.16 437.46C299.16 437.32 330.72 437.2 369.66 437.2C408.6 437.2 440.16 437.31 440.16 437.46Z" fill="white"/><g opacity="0.3"><path d="M299.07 415C310.39 424.49 327.98 429.63 342.46 432.56C356.94 435.49 371.73 436.56 386.25 439.22C396.4 441.11 407.05 443.78 416.84 440.48C421.714 438.749 425.988 435.655 429.155 431.565C432.321 427.475 434.246 422.562 434.7 417.41C434.773 417.064 434.771 416.707 434.695 416.363C434.62 416.018 434.471 415.693 434.26 415.41C433.969 415.188 433.634 415.029 433.278 414.943C432.921 414.857 432.551 414.846 432.19 414.91C388.48 416.85 342.19 416.58 299.07 414.97" fill="black"/></g><path d="M291.33 387.64H393.49L393.99 333.81L441.13 327.73C441.13 327.73 441.34 382.4 441.34 400.33C441.34 421.85 422.74 436.81 407.12 434.51C391.5 432.21 291.33 413.51 291.33 413.51V387.64Z" fill="#9B7564"/><path d="M444.4 338.91L389.46 344.62V280.16C389.46 280.16 394.86 258.38 413.84 259.29C432.82 260.2 444 280.73 444.4 299.56C444.8 318.39 444.4 338.91 444.4 338.91Z" fill="#485FE6"/><path d="M312.54 264.93C312.54 264.93 294.93 276.52 290.21 289.31C285.26 302.72 278.31 346.16 278.31 346.16H303L312.54 264.93Z" fill="#485FE6"/><path d="M389 282.72C389.065 283.502 389.065 284.288 389 285.07C388.95 286.7 388.88 288.86 388.8 291.48C388.64 296.88 388.47 304.35 388.49 312.6C388.51 320.85 388.73 328.32 388.94 333.72C389.04 336.34 389.12 338.5 389.18 340.13C389.241 340.912 389.241 341.698 389.18 342.48C389.023 341.709 388.929 340.926 388.9 340.14C388.76 338.64 388.59 336.45 388.43 333.75C388.1 328.34 387.81 320.87 387.78 312.6C387.75 304.33 388 296.86 388.3 291.45C388.44 288.75 388.59 286.57 388.72 285.06C388.753 284.274 388.847 283.492 389 282.72Z" fill="#263238"/><path d="M416.66 260.33C416.66 260.47 414.82 259.98 411.84 260.03C407.96 260.07 404.164 261.163 400.856 263.192C397.549 265.221 394.854 268.109 393.06 271.55C391.67 274.18 391.28 276.02 391.15 275.99C391.158 275.548 391.232 275.11 391.37 274.69C391.671 273.53 392.09 272.404 392.62 271.33C394.346 267.72 397.078 264.686 400.488 262.592C403.898 260.499 407.84 259.435 411.84 259.53C413.04 259.551 414.236 259.688 415.41 259.94C415.844 260.005 416.266 260.136 416.66 260.33Z" fill="#263238"/><path d="M301.23 295.29C301.277 295.531 301.3 295.775 301.3 296.02C301.3 296.58 301.3 297.27 301.36 298.11C301.36 299.92 301.42 302.54 301.42 305.78C301.42 312.26 301.32 321.21 301.13 331.09C300.94 340.97 300.75 349.82 300.62 356.39C300.56 359.55 300.51 362.15 300.47 364.06C300.47 364.9 300.41 365.59 300.39 366.15C300.403 366.392 300.379 366.635 300.32 366.87C300.268 366.634 300.244 366.392 300.25 366.15C300.25 365.59 300.25 364.9 300.19 364.06C300.19 362.25 300.13 359.63 300.13 356.39C300.13 349.91 300.23 340.96 300.42 331.07C300.61 321.18 300.79 312.34 300.92 305.78C300.99 302.61 301.04 300.02 301.08 298.11C301.08 297.27 301.14 296.58 301.15 296.02C301.142 295.774 301.169 295.528 301.23 295.29Z" fill="#263238"/><path d="M300.6 316.88C297.82 317.115 295.028 317.179 292.24 317.07C289.449 317.13 286.657 317.017 283.88 316.73C286.66 316.495 289.452 316.431 292.24 316.54C295.031 316.473 297.823 316.587 300.6 316.88Z" fill="white"/><path d="M388.06 302C388.06 302.14 369.06 302.26 345.71 302.26C322.36 302.26 303.34 302.14 303.34 302C303.34 301.86 322.34 301.74 345.71 301.74C369.08 301.74 388.06 301.83 388.06 302Z" fill="white"/><path d="M443.21 293.18C443.024 293.202 442.836 293.202 442.65 293.18L441.07 293.05L435.27 292.55C430.36 292.14 423.58 291.69 416.08 291.48C408.58 291.27 401.78 291.36 396.86 291.48L391.03 291.66H389.45C389.264 291.687 389.076 291.687 388.89 291.66C389.07 291.613 389.254 291.586 389.44 291.58L391.02 291.44C392.4 291.33 394.38 291.21 396.85 291.09C401.77 290.86 408.57 290.73 416.09 290.93C423.61 291.13 430.4 291.65 435.3 292.15C437.75 292.4 439.73 292.63 441.09 292.82L442.66 293.04C442.849 293.062 443.034 293.109 443.21 293.18Z" fill="white"/><path d="M443.73 331.37C443.73 331.52 431.32 331.37 416.03 331.01C400.74 330.65 388.32 330.26 388.33 330.12C388.34 329.98 400.73 330.12 416.04 330.49C431.35 330.86 443.73 331.23 443.73 331.37Z" fill="white"/><path d="M393.82 269.89C393.82 270.04 374.24 270.15 350.09 270.15C325.94 270.15 306.36 270.04 306.36 269.89C306.36 269.74 325.94 269.63 350.09 269.63C374.24 269.63 393.82 269.75 393.82 269.89Z" fill="white"/><path d="M388.34 342.55C388.34 342.69 368.7 342.81 344.47 342.81C320.24 342.81 300.6 342.69 300.6 342.55C300.6 342.41 320.24 342.29 344.47 342.29C368.7 342.29 388.34 342.4 388.34 342.55Z" fill="white"/><path d="M394.64 374.63C394.64 374.77 373.28 374.89 346.94 374.89C320.6 374.89 299.23 374.77 299.23 374.63C299.23 374.49 320.59 374.37 346.94 374.37C373.29 374.37 394.64 374.48 394.64 374.63Z" fill="white"/><path d="M442.93 467.13C442.93 467.27 410.72 467.39 371 467.39C331.28 467.39 299.07 467.27 299.07 467.13C299.07 466.99 331.27 466.87 371 466.87C410.73 466.87 442.93 467 442.93 467.13Z" fill="white"/><g opacity="0.3"><path d="M388.79 345.23C388.15 332.49 388.61 320.57 387.96 307.84C383.622 326.522 381.574 345.663 381.86 364.84C381.93 369.39 382.15 374.02 383.62 378.33C385.09 382.64 389.16 386.33 393.32 388.17L393.72 344.68C391.85 344.82 390.67 345.14 388.79 345.23Z" fill="black"/></g><path d="M471.08 470.66C471.08 470.8 372.08 470.92 250.01 470.92C127.94 470.92 28.9199 470.8 28.9199 470.66C28.9199 470.52 127.92 470.4 250.01 470.4C372.1 470.4 471.08 470.51 471.08 470.66Z" fill="#263238"/></svg>