<svg viewBox="0 0 70 70" fill="currentColor" xmlns="http://www.w3.org/2000/svg" class="icon"><path d="M48.1536 14.6125L42.437 8.89584C38.3536 4.81251 31.6453 4.81251 27.562 8.89584L21.8453 14.6125C20.7078 15.75 20.7078 17.6167 21.8453 18.7542L32.9578 29.8667C34.0953 31.0042 35.9328 31.0042 37.0703 29.8667L48.1828 18.7542C49.2911 17.6167 49.2911 15.75 48.1536 14.6125Z" fill="currentColor"/><path d="M14.6122 21.8458L8.89551 27.5625C4.81217 31.6458 4.81217 38.3542 8.89551 42.4375L14.6122 48.1542C15.7497 49.2917 17.5872 49.2917 18.7247 48.1542L29.8372 37.0417C30.9747 35.9042 30.9747 34.0667 29.8372 32.9292L18.7538 21.8458C17.6163 20.7083 15.7497 20.7083 14.6122 21.8458Z" fill="currentColor"/><path d="M61.1034 27.5625L55.3867 21.8458C54.2492 20.7083 52.4117 20.7083 51.2742 21.8458L40.1617 32.9583C39.0242 34.0958 39.0242 35.9333 40.1617 37.0708L51.2742 48.1833C52.4117 49.3208 54.2492 49.3208 55.3867 48.1833L61.1034 42.4667C65.1867 38.3542 65.1867 31.6458 61.1034 27.5625Z" fill="currentColor"/><path d="M21.8451 55.3875L27.5618 61.1042C31.6451 65.1875 38.3534 65.1875 42.4368 61.1042L48.1534 55.3875C49.2909 54.25 49.2909 52.4125 48.1534 51.275L37.0409 40.1625C35.9034 39.025 34.0659 39.025 32.9284 40.1625L21.8159 51.275C20.7076 52.3833 20.7076 54.25 21.8451 55.3875Z" fill="currentColor"/></svg>