<svg viewBox="0 0 844 288" fill="none" xmlns="http://www.w3.org/2000/svg" class="logo"><path fill-rule="evenodd" clip-rule="evenodd" d="M8.98153 228.358C5.99577 230.975 4.14113 234.845 4.22298 239.127L4.8779 273.372C5.02513 281.078 11.3863 287.202 19.0856 287.052L36.8945 286.706C45.1042 286.547 52.8791 282.979 58.3576 276.856C75.5974 257.589 61.5975 227.022 35.7628 227.524L9.88888 228.027C9.55721 228.034 9.23117 228.138 8.98153 228.358ZM128.92 225.713L233.467 223.682C237.613 223.602 242.32 222.132 245.132 225.181C247.365 227.602 248.755 230.819 248.822 234.373L249.477 268.617C249.625 276.323 243.504 282.69 235.804 282.84L130.052 284.896C104.218 285.398 90.2169 254.832 107.457 235.565C112.936 229.442 120.71 225.874 128.92 225.713ZM116.038 201.022C113.775 203.551 110.564 205.026 107.174 205.091L32.4019 206.545C31.5958 206.56 31.065 204.737 31.6031 204.136L203.01 12.5709C210.001 4.75904 219.92 0.206207 230.395 0.00268863C238.094 -0.147069 244.455 5.97806 244.603 13.6834L245.257 47.9281C245.344 52.4521 243.923 57.1491 241.326 60.8536C241.01 61.3046 240.663 61.7416 240.287 62.162L116.038 201.022ZM119.541 64.3287C128.163 64.1612 136.327 60.4139 142.08 53.9841C160.184 33.7512 145.483 1.65314 118.353 2.18046L13.6767 4.21515C5.97736 4.36481 -0.144753 10.7325 0.00260531 18.4377L0.657455 52.6827C0.804814 60.3879 7.16582 66.5131 14.8651 66.3633L119.541 64.3287Z" fill="#F7931A"/><path d="M311.114 282.564C314.655 282.564 317.843 282.106 320.676 281.189C323.51 280.231 325.968 278.939 328.051 277.314C330.135 275.648 331.843 273.689 333.176 271.439C334.551 269.189 335.53 266.773 336.114 264.189H326.989C326.322 266.273 325.28 268.106 323.864 269.689C322.489 271.273 320.76 272.523 318.676 273.439C316.593 274.314 314.155 274.752 311.364 274.752C305.697 274.752 301.26 272.71 298.051 268.627C294.885 264.502 293.301 259.085 293.301 252.377V251.002H337.051V245.377C337.051 239.252 336.01 233.918 333.926 229.377C331.843 224.835 328.822 221.314 324.864 218.814C320.947 216.273 316.197 215.002 310.614 215.002C304.989 215.002 300.197 216.273 296.239 218.814C292.322 221.314 289.322 224.793 287.239 229.252C285.197 233.71 284.176 238.835 284.176 244.627V252.064C284.176 258.231 285.239 263.606 287.364 268.189C289.53 272.773 292.635 276.314 296.676 278.814C300.718 281.314 305.53 282.564 311.114 282.564ZM293.301 243.189C293.301 243.148 293.301 243.127 293.301 243.127C293.301 243.085 293.301 243.043 293.301 243.002C293.301 239.168 294.01 235.731 295.426 232.689C296.843 229.648 298.843 227.252 301.426 225.502C304.051 223.71 307.114 222.814 310.614 222.814C314.114 222.814 317.155 223.71 319.739 225.502C322.364 227.252 324.385 229.648 325.801 232.689C327.26 235.731 327.989 239.168 327.989 243.002C327.989 243.043 327.989 243.085 327.989 243.127C327.989 243.127 327.989 243.148 327.989 243.189H293.301Z" fill="white"/><path d="M353.989 281.502H363.051V241.439C363.051 238.314 363.635 235.377 364.801 232.627C366.01 229.835 367.885 227.585 370.426 225.877C373.01 224.168 376.301 223.314 380.301 223.314C383.718 223.314 386.676 224.002 389.176 225.377C391.718 226.71 393.676 228.689 395.051 231.314C396.426 233.898 397.114 237.064 397.114 240.814V281.502H406.176V239.439C406.176 231.523 403.947 225.481 399.489 221.314C395.03 217.106 389.426 215.002 382.676 215.002C379.093 215.002 375.989 215.543 373.364 216.627C370.78 217.71 368.655 219.043 366.989 220.627C365.322 222.168 364.093 223.689 363.301 225.189H363.051V216.064H353.989V281.502Z" fill="white"/><path d="M448.551 215.002C443.176 215.002 438.53 216.314 434.614 218.939C430.739 221.523 427.739 225.085 425.614 229.627C423.489 234.168 422.426 239.418 422.426 245.377V252.189C422.426 258.148 423.426 263.418 425.426 268.002C427.468 272.585 430.426 276.148 434.301 278.689C438.176 281.231 442.926 282.502 448.551 282.502C450.968 282.502 453.176 282.21 455.176 281.627C457.218 281.043 459.051 280.252 460.676 279.252C462.343 278.252 463.801 277.064 465.051 275.689C466.343 274.273 467.405 272.793 468.239 271.252H468.489V281.502H477.051V191.689H468.051V225.627H467.801C466.76 223.752 465.322 222.002 463.489 220.377C461.655 218.752 459.489 217.46 456.989 216.502C454.489 215.502 451.676 215.002 448.551 215.002ZM449.364 223.064C453.28 223.064 456.635 224.023 459.426 225.939C462.26 227.814 464.426 230.46 465.926 233.877C467.426 237.293 468.176 241.273 468.176 245.814V251.877C468.176 256.543 467.426 260.564 465.926 263.939C464.468 267.314 462.343 269.918 459.551 271.752C456.76 273.543 453.405 274.439 449.489 274.439C446.03 274.439 442.947 273.606 440.239 271.939C437.53 270.273 435.385 267.752 433.801 264.377C432.26 261.002 431.489 256.814 431.489 251.814V245.814C431.489 240.731 432.26 236.502 433.801 233.127C435.385 229.752 437.53 227.231 440.239 225.564C442.947 223.898 445.989 223.064 449.364 223.064Z" fill="white"/><path d="M545.989 281.502L564.926 211.939H565.239L584.114 281.502H592.301L615.801 196.252H605.614L588.114 265.439H587.801L569.926 196.252H560.176L542.239 265.439H541.989L524.489 196.252H514.301L537.739 281.502H545.989Z" fill="white"/><path d="M642.114 282.564C645.489 282.564 648.426 282.127 650.926 281.252C653.426 280.377 655.53 279.21 657.239 277.752C658.989 276.293 660.385 274.689 661.426 272.939H661.676V281.502H670.426V236.002C670.426 231.502 669.426 227.71 667.426 224.627C665.426 221.502 662.655 219.127 659.114 217.502C655.572 215.835 651.53 215.002 646.989 215.002C643.197 215.002 639.864 215.481 636.989 216.439C634.155 217.356 631.739 218.689 629.739 220.439C627.78 222.148 626.26 224.189 625.176 226.564C624.135 228.898 623.51 231.46 623.301 234.252H631.864C632.155 231.96 632.885 229.96 634.051 228.252C635.218 226.502 636.843 225.168 638.926 224.252C641.051 223.293 643.614 222.814 646.614 222.814C651.322 222.814 654.968 224.043 657.551 226.502C660.135 228.918 661.426 232.418 661.426 237.002V244.189H643.551C636.093 244.231 630.426 245.939 626.551 249.314C622.676 252.648 620.739 257.148 620.739 262.814C620.739 268.773 622.718 273.564 626.676 277.189C630.635 280.773 635.78 282.564 642.114 282.564ZM644.239 274.752C640.489 274.752 637.197 273.752 634.364 271.752C631.53 269.71 630.114 266.648 630.114 262.564C630.114 259.356 631.197 256.731 633.364 254.689C635.53 252.606 639.03 251.564 643.864 251.564H661.426V259.689C661.426 262.648 660.676 265.273 659.176 267.564C657.676 269.814 655.635 271.585 653.051 272.877C650.468 274.127 647.53 274.752 644.239 274.752Z" fill="white"/><path d="M690.176 281.502H699.239V191.689H690.176V281.502Z" fill="white"/><path d="M720.051 281.502H729.114V191.689H720.051V281.502Z" fill="white"/><path d="M773.739 282.564C777.28 282.564 780.468 282.106 783.301 281.189C786.135 280.231 788.593 278.939 790.676 277.314C792.76 275.648 794.468 273.689 795.801 271.439C797.176 269.189 798.155 266.773 798.739 264.189H789.614C788.947 266.273 787.905 268.106 786.489 269.689C785.114 271.273 783.385 272.523 781.301 273.439C779.218 274.314 776.78 274.752 773.989 274.752C768.322 274.752 763.885 272.71 760.676 268.627C757.51 264.502 755.926 259.085 755.926 252.377V251.002H799.676V245.377C799.676 239.252 798.635 233.918 796.551 229.377C794.468 224.835 791.447 221.314 787.489 218.814C783.572 216.273 778.822 215.002 773.239 215.002C767.614 215.002 762.822 216.273 758.864 218.814C754.947 221.314 751.947 224.793 749.864 229.252C747.822 233.71 746.801 238.835 746.801 244.627V252.064C746.801 258.231 747.864 263.606 749.989 268.189C752.155 272.773 755.26 276.314 759.301 278.814C763.343 281.314 768.155 282.564 773.739 282.564ZM755.926 243.189C755.926 243.148 755.926 243.127 755.926 243.127C755.926 243.085 755.926 243.043 755.926 243.002C755.926 239.168 756.635 235.731 758.051 232.689C759.468 229.648 761.468 227.252 764.051 225.502C766.676 223.71 769.739 222.814 773.239 222.814C776.739 222.814 779.78 223.71 782.364 225.502C784.989 227.252 787.01 229.648 788.426 232.689C789.885 235.731 790.614 239.168 790.614 243.002C790.614 243.043 790.614 243.085 790.614 243.127C790.614 243.127 790.614 243.148 790.614 243.189H755.926Z" fill="white"/><path d="M820.426 216.064H811.426V223.814H820.426V263.752C820.426 267.918 820.864 271.377 821.739 274.127C822.655 276.835 824.385 278.856 826.926 280.189C829.468 281.481 833.218 282.127 838.176 282.127C839.26 282.127 840.301 282.064 841.301 281.939C842.301 281.856 843.03 281.773 843.489 281.689V274.252C843.03 274.293 842.551 274.335 842.051 274.377C841.551 274.418 841.01 274.439 840.426 274.439C836.26 274.439 833.385 273.773 831.801 272.439C830.218 271.064 829.426 268.377 829.426 264.377V223.814H842.926V216.064H829.426V199.689H820.426V216.064Z" fill="white"/></svg>