<svg viewBox="0 0 70 70" fill="currentColor" xmlns="http://www.w3.org/2000/svg" class="icon"><path d="M64.1663 61.9792H5.83301C4.63717 61.9792 3.64551 62.9708 3.64551 64.1667C3.64551 65.3625 4.63717 66.3542 5.83301 66.3542H64.1663C65.3622 66.3542 66.3538 65.3625 66.3538 64.1667C66.3538 62.9708 65.3622 61.9792 64.1663 61.9792Z" fill="currentColor"/><path d="M49.5833 5.83333H20.4167C11.6667 5.83333 8.75 11.0542 8.75 17.5V64.1667H61.25V17.5C61.25 11.0542 58.3333 5.83333 49.5833 5.83333ZM29.1667 50.3125H20.4167C19.2208 50.3125 18.2292 49.3208 18.2292 48.125C18.2292 46.9292 19.2208 45.9375 20.4167 45.9375H29.1667C30.3625 45.9375 31.3542 46.9292 31.3542 48.125C31.3542 49.3208 30.3625 50.3125 29.1667 50.3125ZM29.1667 37.1875H20.4167C19.2208 37.1875 18.2292 36.1958 18.2292 35C18.2292 33.8042 19.2208 32.8125 20.4167 32.8125H29.1667C30.3625 32.8125 31.3542 33.8042 31.3542 35C31.3542 36.1958 30.3625 37.1875 29.1667 37.1875ZM29.1667 24.0625H20.4167C19.2208 24.0625 18.2292 23.0708 18.2292 21.875C18.2292 20.6792 19.2208 19.6875 20.4167 19.6875H29.1667C30.3625 19.6875 31.3542 20.6792 31.3542 21.875C31.3542 23.0708 30.3625 24.0625 29.1667 24.0625ZM49.5833 50.3125H40.8333C39.6375 50.3125 38.6458 49.3208 38.6458 48.125C38.6458 46.9292 39.6375 45.9375 40.8333 45.9375H49.5833C50.7792 45.9375 51.7708 46.9292 51.7708 48.125C51.7708 49.3208 50.7792 50.3125 49.5833 50.3125ZM49.5833 37.1875H40.8333C39.6375 37.1875 38.6458 36.1958 38.6458 35C38.6458 33.8042 39.6375 32.8125 40.8333 32.8125H49.5833C50.7792 32.8125 51.7708 33.8042 51.7708 35C51.7708 36.1958 50.7792 37.1875 49.5833 37.1875ZM49.5833 24.0625H40.8333C39.6375 24.0625 38.6458 23.0708 38.6458 21.875C38.6458 20.6792 39.6375 19.6875 40.8333 19.6875H49.5833C50.7792 19.6875 51.7708 20.6792 51.7708 21.875C51.7708 23.0708 50.7792 24.0625 49.5833 24.0625Z" fill="currentColor"/></svg>