<svg viewBox="0 0 580 558" fill="none" xmlns="http://www.w3.org/2000/svg"><path d="M510.815 220.67H371.35C371.35 220.67 385.185 182.556 406.471 182.556C427.757 182.556 434.42 208.862 434.42 208.862C434.42 208.862 448.788 194.575 460.584 194.575C472.38 194.575 482.6 213.457 482.6 213.457C482.6 213.457 499.309 203.262 510.815 220.67Z" fill="#E2E6FD"></path><path d="M354.088 21.3134H288.897C288.897 21.3134 303.463 0 314.946 0C326.429 0 329.813 14.2168 329.813 14.2168C329.813 14.2168 337.924 7.59943 345.409 8.78028C352.894 9.96113 354.088 21.3134 354.088 21.3134Z" fill="#E2E6FD"></path><path d="M473.062 65.7877H407.86C407.86 65.7877 422.425 44.4858 433.897 44.4858C445.369 44.4858 448.729 58.6909 448.729 58.6909C448.729 58.6909 456.84 52.0619 464.326 53.2427C471.811 54.4236 473.062 65.7877 473.062 65.7877Z" fill="#E2E6FD"></path><path d="M381.337 172.204H316.146C316.146 172.204 330.711 150.902 342.183 150.902C353.655 150.902 357.049 165.107 357.049 165.107C357.049 165.107 365.161 158.478 372.658 159.659C380.155 160.839 381.337 172.204 381.337 172.204Z" fill="#E2E6FD"></path><path d="M114.121 217.647H48.9656C48.9656 217.647 63.4961 196.416 74.9676 196.416C86.4393 196.416 89.8455 210.609 89.8455 210.609C89.8455 210.609 97.9567 203.981 105.442 205.173C112.928 206.365 114.121 217.647 114.121 217.647Z" fill="#E2E6FD"></path><path d="M212.54 85.6639H85.5547C85.5547 85.6639 102.936 46.4973 121.545 44.0421C140.154 41.5869 149.042 73.1538 149.042 73.1538C149.042 73.1538 161.046 62.0002 170.478 62.0002C179.91 62.0002 187.153 76.6846 187.153 76.6846C187.153 76.6846 206.063 66.6417 212.54 85.6639Z" fill="#E2E6FD"></path><path d="M445.543 69.178L445.265 68.3479C445.995 68.0907 446.736 67.8569 447.478 67.623L447.733 68.4532L445.543 69.178Z" fill="#263238"></path><path d="M335.695 163.679L335.509 162.814C337.039 162.498 338.556 162.112 340.029 161.645L340.26 162.487C338.777 162.966 337.235 163.352 335.695 163.679ZM345.834 160.628L345.52 159.81C346.946 159.248 348.382 158.641 349.773 157.939L350.144 158.734C348.731 159.424 347.282 160.055 345.834 160.628ZM355.323 155.951L354.871 155.203C356.181 154.408 357.49 153.543 358.765 152.643L359.263 153.356C357.965 154.233 356.644 155.097 355.323 155.905V155.951ZM363.933 149.755L363.377 149.077C364.536 148.107 365.694 147.054 366.853 145.967L367.444 146.61C366.297 147.662 365.115 148.715 363.933 149.708V149.755ZM371.662 142.436L371.025 141.828C372.067 140.741 373.122 139.571 374.187 138.321L374.837 138.905C373.771 140.109 372.704 141.29 371.662 142.39V142.436ZM378.614 134.416L377.942 133.854C378.927 132.685 379.889 131.411 380.85 130.16L381.534 130.698C380.584 131.914 379.614 133.138 378.626 134.369L378.614 134.416ZM385.08 125.974L384.385 125.46L387.165 121.649L387.861 122.163L385.08 125.974ZM391.303 117.369L390.596 116.855L393.365 113.021L394.06 113.535L391.303 117.369ZM397.548 108.729L396.853 108.204C397.791 106.941 398.741 105.678 399.703 104.427L400.386 104.965C399.425 106.216 398.486 107.467 397.548 108.729ZM404.025 100.347L403.353 99.7857C404.35 98.6166 405.358 97.3536 406.389 96.1612L407.038 96.7341C406.018 97.9265 405.01 99.1314 404.025 100.347ZM410.977 92.3615L410.34 91.7653C411.441 90.5961 412.553 89.427 413.643 88.3749L414.257 89.006C413.156 90.0232 412.044 91.1923 410.966 92.3615H410.977ZM418.544 85.0195L417.976 84.3527C419.135 83.3006 420.398 82.2837 421.603 81.3367L422.147 82.0264C420.919 83.0085 419.761 83.9674 418.533 85.0195H418.544ZM426.852 78.5658L426.366 77.8409C427.664 76.9524 428.996 76.0872 430.328 75.2922L430.78 76.0404C429.448 76.8355 428.127 77.6889 426.841 78.5658H426.852ZM435.878 73.2344L435.497 72.4512C436.887 71.7497 438.335 71.0832 439.772 70.4636L440.108 71.2703C438.672 71.8783 437.258 72.5447 435.867 73.2344H435.878Z" fill="#263238"></path><path d="M327.468 164.918L327.387 164.041C328.159 163.971 328.932 163.889 329.704 163.796L329.809 164.661L327.468 164.918Z" fill="#263238"></path><path d="M425.028 69.7494L420.358 83.5533L430.57 75.1598L469.952 59.8331L425.028 69.7494Z" fill="#485FE6"></path><path d="M431.971 78.3272L420.357 83.5532L430.569 75.1596L431.971 78.3272Z" fill="#263238"></path><path opacity="0.1" d="M425.028 69.7494L420.358 83.5533L430.57 75.1598L469.952 59.8331L425.028 69.7494Z" fill="black"></path><path d="M430.57 75.1599L469.952 59.8332L438.045 92.538L430.57 75.1599Z" fill="#485FE6"></path><path d="M425.027 69.7493L408.332 59.3474L469.951 59.833L425.027 69.7493Z" fill="#485FE6"></path><path d="M220.33 391.664C220.33 391.664 183.599 423.078 183.564 423.09C176.508 429.065 170.424 434.43 167.539 437.493C166.791 438.13 166.197 438.929 165.801 439.832C165.801 439.832 165.801 439.891 165.801 439.914C166.137 443.235 211.779 501.527 214.05 503.048C216.321 504.567 220.713 498.137 220.725 494.443C220.736 490.748 213.158 460.538 213.158 460.538L249.577 428.784L220.33 391.664Z" fill="#D3766A"></path><path d="M191.107 416.624C191.107 416.624 183.599 423.055 183.564 423.066C176.508 429.041 170.424 434.407 167.539 437.47C166.87 438.178 166.286 438.963 165.801 439.809C165.801 439.809 165.801 439.867 165.801 439.89C166.137 443.211 211.779 501.504 214.05 503.024C216.321 504.544 220.713 498.114 220.725 494.42C220.736 490.725 213.158 460.514 213.158 460.514L220.898 454.072L191.107 416.624Z" fill="#E2E6FD"></path><path d="M213.992 503.07C211.674 501.585 166.079 443.292 165.742 439.936C165.592 438.662 173.622 431.46 183.564 423.042L183.889 422.773L213.738 460.046L213.1 460.537C213.1 460.537 220.679 490.736 220.666 494.442C220.655 498.148 216.252 504.578 213.992 503.07Z" fill="#485FE6"></path><path d="M215.707 500.627C208.257 490.619 177.261 450.927 169.138 441.597C169.068 441.527 169.011 441.597 169.08 441.597C176.253 451.687 207.562 491.122 215.557 500.709C215.719 500.955 215.823 500.837 215.707 500.627Z" fill="#263238"></path><path d="M215.465 463.823C213.148 459.392 208.86 455.124 203.819 454.353C203.623 454.353 203.576 454.598 203.715 454.692C207.791 457.447 211.563 460.633 214.966 464.197C215.019 464.253 215.091 464.287 215.166 464.294C215.243 464.3 215.319 464.278 215.379 464.233C215.441 464.186 215.483 464.12 215.499 464.044C215.514 463.969 215.502 463.89 215.465 463.823Z" fill="#263238"></path><path d="M215.974 467.938C213.657 463.506 209.369 459.251 204.387 458.468C204.19 458.468 204.155 458.713 204.294 458.806C208.366 461.561 212.134 464.748 215.534 468.311C215.589 468.34 215.65 468.35 215.711 468.344C215.773 468.336 215.829 468.311 215.876 468.272C215.923 468.232 215.958 468.179 215.975 468.119C215.992 468.06 215.992 467.997 215.974 467.938Z" fill="#263238"></path><path d="M216.496 472.066C214.179 467.622 209.891 463.367 204.85 462.584C204.654 462.584 204.619 462.841 204.758 462.934C208.829 465.685 212.598 468.868 215.997 472.428C216.051 472.478 216.119 472.508 216.192 472.513C216.264 472.517 216.336 472.497 216.395 472.454C216.453 472.411 216.496 472.349 216.514 472.278C216.533 472.207 216.527 472.132 216.496 472.066Z" fill="#263238"></path><path d="M239.74 354.776C237.422 368.058 184.26 422.084 184.26 422.084L223.17 465.342C223.17 465.342 298.488 385.84 293.853 356.705C289.762 331.382 249.705 230.11 249.705 230.11L206.218 231.139C206.218 231.139 242.046 341.717 239.74 354.776Z" fill="#37474F"></path><path d="M227.237 454.727C222.057 448.519 223.633 450.225 218.384 444.076C215.811 441.072 198.917 421.325 196.031 418.939C195.962 418.939 195.858 418.939 195.904 419.056C197.874 422.248 215.116 441.691 217.735 444.649C223.1 450.694 221.628 448.904 227.005 454.879C227.014 454.894 227.028 454.908 227.042 454.918C227.057 454.929 227.075 454.935 227.092 454.939C227.11 454.943 227.128 454.944 227.146 454.94C227.163 454.937 227.181 454.93 227.196 454.919C227.211 454.909 227.224 454.897 227.234 454.882C227.245 454.867 227.252 454.85 227.256 454.832C227.26 454.814 227.26 454.796 227.256 454.777C227.253 454.759 227.247 454.743 227.237 454.727Z" fill="#263238"></path><path d="M247.109 350.252C246.414 346.967 245.626 343.693 244.861 340.432C243.316 333.76 241.667 327.103 239.913 320.462C236.468 307.298 232.757 294.216 228.778 281.215C224.769 268.179 220.551 255.154 215.742 242.387C215.139 240.809 214.526 239.243 213.923 237.711C213.914 237.684 213.894 237.662 213.87 237.651C213.845 237.638 213.816 237.637 213.79 237.647C213.763 237.656 213.742 237.675 213.731 237.701C213.718 237.725 213.717 237.755 213.726 237.781C217.933 250.583 222.266 263.35 226.229 276.234C230.191 289.118 233.853 301.955 237.341 314.945C239.091 321.456 240.725 327.992 242.335 334.539C243.108 337.758 243.88 340.981 244.653 344.208C245.578 347.473 246.263 350.802 246.703 354.169C246.896 357.368 246.085 360.546 244.386 363.253C242.822 365.977 240.91 368.561 239.172 371.133C235.568 376.312 201.096 416.94 199.984 418.039C199.891 418.133 199.984 418.262 200.123 418.168C204.758 413.76 234.05 380.252 237.746 375.085C239.566 372.536 241.35 369.941 243.1 367.333C244.848 364.955 246.242 362.332 247.237 359.547C247.997 356.491 247.953 353.286 247.109 350.252Z" fill="#263238"></path><path d="M240.759 230.321L239.126 346.686C234.236 317.645 206.218 231.14 206.218 231.14L240.759 230.321Z" fill="#263238"></path><path d="M228.5 445.947C228.5 445.947 238.929 491.847 238.929 491.87C239.264 501.224 239.728 509.29 240.365 513.476C240.36 513.499 240.36 513.523 240.365 513.546C240.403 514.541 240.669 515.513 241.142 516.388L241.199 516.446C244.004 518.223 317.676 517.615 320.191 516.75C322.705 515.884 320.433 508.414 317.56 506.146C314.687 503.877 286.39 491.367 286.39 491.367L275.475 445.502L228.5 445.947Z" fill="#D3766A"></path><path d="M320.226 516.761C317.664 517.661 244.039 518.246 241.234 516.469L241.176 516.411C240.697 515.54 240.431 514.566 240.4 513.569C240.395 513.558 240.392 513.547 240.392 513.534C240.392 513.522 240.395 513.51 240.4 513.499C239.774 509.314 239.322 501.188 238.975 491.905L237.167 483.908L284.397 482.798L286.437 491.379C286.437 491.379 314.722 503.889 317.618 506.169C320.515 508.448 322.798 515.861 320.226 516.761Z" fill="#E2E6FD"></path><path d="M320.226 516.761C317.665 517.65 244.051 518.234 241.234 516.457C240.146 515.803 239.439 504.988 238.917 491.905C238.917 491.776 238.917 491.636 238.917 491.496L286.425 490.596V491.403C286.425 491.403 314.699 503.901 317.596 506.181C320.493 508.46 322.786 515.861 320.226 516.761Z" fill="#485FE6"></path><path d="M319.368 513.873C306.958 513.663 256.877 514.002 244.595 514.738C244.491 514.738 244.491 514.821 244.595 514.821C256.89 515.3 306.969 514.552 319.368 514.084C319.635 514.072 319.635 513.873 319.368 513.873Z" fill="#263238"></path><path d="M290.411 491.484C285.521 490.596 279.554 491.402 275.857 494.992C275.707 495.132 275.857 495.33 276.066 495.284C280.718 493.72 285.524 492.669 290.4 492.15C290.443 492.151 290.486 492.143 290.526 492.127C290.567 492.111 290.604 492.087 290.635 492.057C290.666 492.026 290.691 491.99 290.708 491.95C290.726 491.91 290.735 491.867 290.736 491.823C290.736 491.779 290.729 491.736 290.712 491.695C290.697 491.654 290.673 491.617 290.643 491.586C290.613 491.554 290.577 491.529 290.537 491.512C290.498 491.494 290.455 491.485 290.411 491.484Z" fill="#263238"></path><path d="M293.957 493.601C289.067 492.712 283.099 493.519 279.392 497.108C279.253 497.249 279.392 497.447 279.6 497.401C284.256 495.838 289.066 494.787 293.945 494.267C293.989 494.268 294.031 494.26 294.072 494.244C294.112 494.228 294.149 494.204 294.18 494.174C294.212 494.143 294.236 494.107 294.254 494.067C294.271 494.027 294.281 493.984 294.282 493.94C294.282 493.896 294.274 493.853 294.259 493.812C294.242 493.771 294.219 493.734 294.189 493.702C294.158 493.671 294.123 493.646 294.082 493.628C294.043 493.611 294 493.602 293.957 493.601Z" fill="#263238"></path><path d="M297.491 495.717C292.601 494.828 286.634 495.635 282.937 499.224C282.786 499.364 282.937 499.564 283.146 499.516C287.798 497.954 292.604 496.903 297.48 496.383C297.567 496.385 297.652 496.351 297.715 496.289C297.777 496.228 297.814 496.144 297.815 496.056C297.817 495.967 297.783 495.882 297.722 495.819C297.662 495.755 297.578 495.718 297.491 495.717Z" fill="#263238"></path><path d="M245.499 230.192C245.499 231.117 241.964 268.774 240.782 269.839C239.6 270.902 231.907 276.35 229.624 277.835C229.624 277.835 251.988 342.863 258.013 364.574C266.762 396.059 288.14 490.619 288.14 490.619L236.982 491.788C236.982 491.788 219.334 401.706 211.837 371.718C205.418 345.997 181.293 268.985 181.293 268.985C178.073 256.706 178.399 243.753 182.232 231.654C182.232 231.654 245.51 230.158 245.499 230.192Z" fill="#37474F"></path><path d="M286.078 480.622C278.036 480.763 280.342 480.622 272.3 480.845C268.372 480.962 242.521 481.745 238.871 482.505C238.79 482.505 238.802 482.657 238.871 482.668C242.567 483.137 268.395 481.897 272.323 481.71C280.354 481.312 278.048 481.336 286.078 480.856C286.108 480.856 286.138 480.844 286.16 480.822C286.181 480.8 286.194 480.771 286.194 480.739C286.194 480.709 286.181 480.679 286.16 480.657C286.138 480.635 286.108 480.622 286.078 480.622Z" fill="#263238"></path><path d="M243.007 267.886C238.096 270.759 233.443 274.062 229.102 277.753C229.084 277.767 229.067 277.783 229.054 277.803C229.042 277.822 229.033 277.844 229.028 277.866C229.024 277.89 229.024 277.913 229.029 277.935C229.034 277.959 229.043 277.979 229.056 277.999C229.069 278.018 229.085 278.035 229.105 278.047C229.124 278.06 229.145 278.069 229.168 278.073C229.191 278.077 229.214 278.077 229.237 278.072C229.259 278.068 229.28 278.059 229.299 278.046C234.004 274.9 238.836 271.85 243.378 268.458C243.433 268.401 243.466 268.327 243.474 268.248C243.482 268.169 243.462 268.09 243.42 268.023C243.376 267.956 243.312 267.906 243.237 267.881C243.162 267.856 243.081 267.858 243.007 267.886Z" fill="#263238"></path><path d="M238.268 232.321C238.268 232.145 237.909 232.169 237.944 232.321C238.971 238.082 239.71 243.892 240.157 249.729C240.389 252.418 240.875 267.465 236.136 267.266C235.337 267.266 234.815 266.541 234.479 265.407C234.232 263.885 234.169 262.338 234.294 260.801C234.294 257.632 234.108 254.487 233.818 251.331C233.329 245.46 232.233 239.657 230.551 234.015C230.537 233.982 230.513 233.954 230.481 233.937C230.448 233.921 230.411 233.917 230.376 233.925C230.341 233.933 230.31 233.955 230.29 233.984C230.268 234.014 230.258 234.049 230.262 234.086C231.821 242.068 232.778 250.158 233.123 258.287C233.239 262.203 232.347 268.295 236.414 268.166C240.481 268.038 241.443 257.948 241.466 255.224C241.392 247.481 240.317 239.782 238.268 232.321Z" fill="#263238"></path><path d="M236.309 267.593C236.084 268.659 235.922 269.736 235.823 270.82C235.661 271.674 235.661 272.551 235.823 273.404C235.823 273.556 236.078 273.533 236.147 273.404C236.491 272.57 236.703 271.686 236.773 270.785C236.958 269.78 237.155 268.786 237.306 267.78C237.3 267.662 237.255 267.55 237.177 267.461C237.1 267.373 236.995 267.313 236.881 267.291C236.766 267.269 236.647 267.288 236.543 267.343C236.44 267.397 236.358 267.485 236.309 267.593Z" fill="#263238"></path><path d="M230.169 453.487C230.007 452.318 229.822 451.149 229.624 449.922C229.254 447.641 228.813 445.374 228.465 443.094C227.655 438.522 226.774 433.962 225.858 429.414C224.039 420.342 221.976 411.293 219.822 402.302C218.593 397.216 217.191 392.189 215.719 387.173C215.615 386.823 215.128 387.01 215.198 387.349C216.125 391.944 217.029 396.55 218.072 401.133C219.115 405.716 220.146 410.264 221.166 414.836C223.159 423.872 225.036 432.946 227.017 441.983C227.585 444.532 228.095 447.092 228.651 449.641C228.929 450.919 229.218 452.193 229.52 453.464C229.822 454.727 230.239 455.966 230.482 457.24C230.482 457.357 230.679 457.299 230.655 457.24C230.389 455.966 230.342 454.714 230.169 453.487Z" fill="#263238"></path><path d="M263.854 384.075C261.953 375.552 259.461 367.157 256.959 358.798C251.918 341.974 246.055 325.408 240.215 308.852L235.163 294.542C234.317 292.204 230.157 279.285 229.659 278.069C229.65 278.043 229.631 278.021 229.606 278.009C229.58 277.997 229.552 277.995 229.526 278.004C229.5 278.014 229.478 278.033 229.466 278.058C229.454 278.083 229.453 278.112 229.462 278.139C230.621 282.523 232.336 288.919 233.703 293.268C235.07 297.617 236.542 301.802 237.979 306.129C240.783 314.511 243.633 322.882 246.368 331.3C251.768 347.925 257.132 364.55 261.605 381.468C262.845 386.203 264.096 390.938 265.244 395.708C266.391 400.478 267.399 405.248 268.5 410.019C268.5 410.147 268.743 410.1 268.731 410.019C267.537 401.293 265.909 392.635 263.854 384.075Z" fill="#263238"></path><path d="M233.088 429.625C229.902 413.35 226.136 397.181 222.034 381.129C217.932 365.077 213.355 348.954 208.373 333.065C203.39 317.177 197.944 301.44 192.081 285.844C189.154 278.512 186.658 271.013 184.606 263.384C182.753 255.785 181.698 247.554 183.286 239.815C183.681 237.851 184.224 235.92 184.908 234.039C184.908 233.911 184.758 233.805 184.711 233.934C178.917 248.548 183.251 264.273 188.269 278.361C191.015 286.113 193.923 293.805 196.635 301.569C199.43 309.535 202.108 317.539 204.665 325.583C209.763 341.53 214.514 357.571 218.813 373.751C223.111 389.932 226.993 406.207 230.4 422.587C233.807 438.967 236.854 455.533 239.867 472.053C240.261 474.205 240.585 476.368 240.91 478.53C240.91 478.647 241.119 478.647 241.107 478.53C238.801 462.198 236.275 445.876 233.088 429.625Z" fill="#263238"></path><path d="M222.776 163.341C228.072 183.076 240.504 213.614 250.864 213.241C260.307 212.866 280.991 195.458 289.716 189.706C298.441 183.953 278.129 162.582 273.124 166.241C265.394 171.9 253.877 181.955 251.872 181.358C249.381 180.609 246.078 174.554 231.571 156.806C225.568 149.511 220.459 154.936 222.776 163.341Z" fill="#D3766A"></path><path d="M282.369 157.6C286.494 156.011 291.106 153.859 295.741 153.836C300.376 153.813 304.35 159.892 304.397 161.657C304.443 163.422 302.936 174.518 298.314 174.588C293.69 174.658 296.286 166.17 296.088 165.235C295.892 164.299 295.683 163.037 294.814 163.153C293.945 163.271 278.835 170.929 278.835 170.929L282.369 157.6Z" fill="#D3766A"></path><path d="M282.671 158.232C282.937 158.232 295.219 153.007 299.854 152.982C304.489 152.959 308.522 159.004 308.522 160.793C308.522 162.581 307.062 173.653 302.439 173.723C297.815 173.794 300.411 165.306 300.214 164.37C300.017 163.435 299.808 162.16 298.939 162.278C298.07 162.395 282.961 170.064 282.961 170.064L282.671 158.232Z" fill="#D3766A"></path><path d="M300.84 173.174C300.333 172.345 300.046 171.399 300.005 170.427C299.889 169.433 299.924 168.427 300.11 167.445C300.344 166.599 300.511 165.734 300.607 164.861C300.582 163.997 300.343 163.154 299.913 162.406C299.542 161.763 298.858 161.997 298.278 162.219C297.428 162.564 296.596 162.954 295.787 163.388L293.192 164.849C292.277 165.313 291.39 165.832 290.538 166.404C290.521 166.412 290.508 166.426 290.501 166.444C290.495 166.462 290.496 166.481 290.504 166.498C290.511 166.515 290.525 166.528 290.543 166.535C290.56 166.541 290.58 166.541 290.596 166.533C291.389 166.184 292.162 165.794 292.914 165.364L295.532 164.078C296.355 163.692 297.155 163.247 297.989 162.909C298.278 162.78 298.858 162.441 299.148 162.511C299.437 162.582 299.692 163.458 299.785 163.739C299.994 164.573 299.958 165.45 299.681 166.264C299.456 167.105 299.316 167.967 299.264 168.837C299.199 169.655 299.282 170.479 299.507 171.268C299.814 171.971 300.203 172.634 300.666 173.244C300.758 173.35 300.909 173.244 300.84 173.174Z" fill="#263238"></path><path d="M268.279 170.835C268.279 170.835 280.829 158.734 283.447 156.338C288.696 151.51 311.036 141.676 314.177 141.268C317.317 140.859 318.592 147.335 303.436 154.456C295.452 158.196 294.166 162.897 294.339 165.48C294.513 168.064 297.109 172.823 301.408 172.601C305.707 172.378 308.36 165.972 312.311 165.176C316.262 164.382 313.807 171.759 311.152 176.05C308.314 180.191 304.368 183.435 299.774 185.403C296.077 186.899 284.711 192.184 284.711 192.184L268.279 170.835Z" fill="#D3766A"></path><path d="M306.691 169.42C305.092 170.73 303.296 172.414 301.164 172.542C299.032 172.67 297.491 171.268 296.425 169.479C295.255 167.722 294.799 165.579 295.151 163.493C295.611 161.605 296.596 159.89 297.989 158.548C299.719 156.923 301.67 155.558 303.783 154.491C303.876 154.491 303.783 154.304 303.691 154.35C301.732 155.298 295.58 157.986 294.525 163.505C294.182 165.636 294.659 167.819 295.858 169.607C296.853 171.314 298.279 172.951 300.377 173.115C302.925 173.267 305.069 171.128 306.866 169.526C306.889 169.409 306.773 169.351 306.691 169.42Z" fill="#263238"></path><path d="M268.245 169.186L288.117 198.754C288.117 198.754 258.083 216.701 249.427 214.128C240.771 211.556 227.167 186.957 221.305 165.234C215.441 143.512 228.941 151.556 234.259 158.22C239.578 164.884 251.131 180.2 251.745 179.977C252.358 179.756 268.245 169.186 268.245 169.186Z" fill="#485FE6"></path><path d="M279.485 203.607C277.619 204.612 275.568 205.676 273.413 206.74L256.09 177.184C257.828 176.015 259.844 174.729 261.733 173.49C267.191 182.726 273.818 193.961 279.485 203.607Z" fill="#E2E6FD"></path><path d="M271.072 207.886L269.079 208.809L252.022 179.78C252.393 179.569 253.019 179.171 253.83 178.611C259.195 187.73 265.579 198.556 271.072 207.886Z" fill="#E2E6FD"></path><path d="M266.912 209.779C260.04 212.796 253.286 215.029 249.716 214.211L249.404 214.128C240.736 211.557 227.156 186.969 221.281 165.235C220.407 162.327 219.92 159.317 219.833 156.279C219.833 156.163 219.833 156.069 219.833 155.952C219.833 155.835 219.833 155.613 219.833 155.438C219.827 155.367 219.827 155.298 219.833 155.227C219.82 155.072 219.82 154.915 219.833 154.76L266.912 209.779Z" fill="#263238"></path><path d="M277.341 196.077C276.715 195.024 276.066 193.972 275.429 192.932C274.143 190.839 266.425 178.435 263.401 174.681C263.32 174.576 263.17 174.681 263.216 174.81C265.371 179.159 273.355 191.33 274.687 193.341C275.371 194.358 276.043 195.387 276.739 196.404C277.433 197.421 278.245 198.368 278.94 199.397C279.009 199.491 279.171 199.397 279.114 199.304C278.477 198.251 277.966 197.129 277.341 196.077Z" fill="#263238"></path><path d="M177.933 250.746C178.119 250.946 254.769 241.721 255.441 240.891C256.391 239.722 236.797 162.652 228.512 152.48C226.739 150.306 221.119 149.873 216.38 150.633C215.144 150.816 213.926 151.11 212.742 151.51H212.626C211.667 151.823 210.769 152.302 209.972 152.924C197.087 164.043 187.18 201.701 184.955 212.995C181.247 231.632 177.273 250.033 177.933 250.746Z" fill="#485FE6"></path><path d="M253.865 232.532C235.325 234.951 195.105 240.212 179.115 242.141C179.671 239.277 180.343 235.863 181.108 232.099L251.594 223.202C252.486 226.709 253.262 229.889 253.865 232.532Z" fill="#E2E6FD"></path><path d="M250.643 219.402C232.336 221.798 198.5 226.207 181.885 228.253L182.533 225.049L249.89 216.479C250.146 217.461 250.401 218.443 250.643 219.402Z" fill="#E2E6FD"></path><path d="M204.758 173.138C208.639 193.306 226.356 230.765 237.411 234.074C250.214 237.897 293.98 222.64 302.485 216.034C305.869 213.416 286.993 191.482 282.786 193.119C264.988 200.204 249.183 204.004 246.808 202.473C243.193 200.134 228.268 179.522 218.512 166.755C206.264 150.715 203.007 164.101 204.758 173.138Z" fill="#D3766A"></path><path d="M301.361 216.677C303.307 215.918 316.587 205.711 320.456 200.975C324.663 196.069 328.046 190.5 330.469 184.491C334.258 174.974 335.984 168.041 334.952 164.978C333.793 161.412 333.411 160.839 324.431 176.669C319.356 185.636 314.338 186.747 309.97 186.759C299.215 186.81 288.629 189.463 279.102 194.499C279.102 194.499 293.887 219.565 301.361 216.677Z" fill="#D3766A"></path><path d="M341.384 153.158L318.743 183.403C318.418 183.819 317.983 184.132 317.489 184.308C316.995 184.484 316.461 184.515 315.95 184.397L299.554 179.323C299.343 179.28 299.148 179.177 298.992 179.028C298.834 178.879 298.722 178.689 298.666 178.479C298.611 178.268 298.615 178.047 298.678 177.838C298.741 177.631 298.859 177.444 299.02 177.3L321.663 147.054C321.985 146.638 322.42 146.322 322.914 146.145C323.41 145.969 323.944 145.94 324.455 146.061L340.851 151.135C341.062 151.179 341.257 151.281 341.414 151.43C341.57 151.58 341.683 151.77 341.738 151.98C341.793 152.19 341.79 152.412 341.727 152.62C341.665 152.828 341.545 153.014 341.384 153.158Z" fill="#37474F"></path><path d="M339.38 150.633L322.984 145.559C322.472 145.442 321.937 145.475 321.442 145.653C320.949 145.831 320.514 146.147 320.192 146.564L297.561 176.81C297.386 176.951 297.254 177.14 297.183 177.355C297.111 177.569 297.104 177.8 297.16 178.02C297.217 178.239 297.335 178.437 297.501 178.589C297.666 178.742 297.873 178.842 298.094 178.88L314.49 183.953C315.001 184.069 315.534 184.036 316.028 183.861C316.522 183.685 316.956 183.373 317.282 182.959L339.913 152.714C340.092 152.574 340.227 152.384 340.301 152.168C340.374 151.951 340.383 151.718 340.326 151.496C340.269 151.275 340.15 151.074 339.981 150.921C339.813 150.768 339.604 150.668 339.38 150.633ZM316.935 181.65C316.641 182.042 316.245 182.342 315.789 182.515C315.334 182.689 314.84 182.729 314.362 182.632L299.705 178.096C298.882 177.839 298.697 176.927 299.299 176.19L320.377 148.025C321.535 146.412 322.311 146.529 323.134 146.786L326.066 147.698C326.24 147.698 326.251 147.967 326.066 148.177L325.997 148.271C325.614 148.786 325.927 148.879 326.309 148.996L333.1 151.1C333.28 151.202 333.492 151.229 333.691 151.174C333.891 151.12 334.061 150.988 334.165 150.808L334.235 150.715C334.298 150.614 334.388 150.532 334.495 150.481C334.601 150.429 334.72 150.409 334.838 150.423L337.781 151.334C338.592 151.58 339.102 152.001 337.989 153.486L316.935 181.65Z" fill="#263238"></path><path d="M331.117 149.709L329.275 149.125C329.266 149.116 329.257 149.107 329.252 149.096C329.247 149.085 329.244 149.072 329.244 149.06C329.244 149.048 329.247 149.036 329.252 149.024C329.257 149.013 329.266 149.004 329.275 148.996C329.297 148.965 329.327 148.943 329.363 148.93C329.398 148.918 329.436 148.916 329.472 148.925L331.325 149.498C331.338 149.506 331.348 149.516 331.354 149.528C331.362 149.541 331.365 149.555 331.365 149.569C331.365 149.583 331.362 149.596 331.354 149.609C331.348 149.621 331.338 149.631 331.325 149.639C331.301 149.669 331.269 149.692 331.232 149.704C331.195 149.716 331.155 149.718 331.117 149.709Z" fill="white"></path><path d="M338.013 153.485L316.935 181.65C316.641 182.042 316.244 182.342 315.789 182.515C315.334 182.689 314.84 182.729 314.362 182.632L299.705 178.096C298.882 177.838 298.696 176.927 299.299 176.19L320.377 148.025C321.535 146.412 322.311 146.529 323.134 146.786L326.066 147.698C326.239 147.698 326.251 147.967 326.066 148.177L325.997 148.271C325.614 148.785 325.927 148.879 326.309 148.996L333.1 151.1C333.28 151.202 333.492 151.229 333.691 151.174C333.891 151.119 334.061 150.988 334.165 150.808L334.234 150.714C334.298 150.614 334.388 150.532 334.495 150.48C334.601 150.428 334.72 150.408 334.838 150.422L337.781 151.334C338.65 151.579 339.125 151.989 338.013 153.485Z" fill="white"></path><path d="M338.012 153.485L336.436 155.59L318.8 150.129L320.376 148.025C321.535 146.412 322.311 146.529 323.134 146.786L326.065 147.698C326.239 147.698 326.25 147.967 326.065 148.177L325.996 148.271C325.613 148.785 325.926 148.879 326.309 148.996L333.099 151.1C333.279 151.202 333.491 151.229 333.691 151.174C333.891 151.119 334.06 150.988 334.165 150.808L334.235 150.714C334.297 150.614 334.387 150.532 334.494 150.48C334.6 150.428 334.719 150.408 334.837 150.422L337.768 151.334C338.649 151.579 339.124 151.989 338.012 153.485Z" fill="#485FE6"></path><path d="M321.35 149.651L321.164 149.054L322.01 148.786L322.033 148.879L321.338 149.113L321.489 149.604L321.35 149.651Z" fill="white"></path><path d="M336.401 153.556C336.377 153.571 336.349 153.58 336.32 153.58C336.291 153.58 336.263 153.571 336.238 153.556C336.229 153.55 336.221 153.541 336.216 153.531C336.21 153.521 336.208 153.509 336.208 153.497C336.208 153.486 336.21 153.474 336.216 153.464C336.221 153.454 336.229 153.445 336.238 153.439C336.257 153.413 336.28 153.392 336.309 153.379C336.338 153.367 336.37 153.364 336.401 153.369C336.424 153.451 336.447 153.509 336.401 153.556Z" fill="white"></path><path d="M336.158 153.883C336.132 153.9 336.102 153.908 336.071 153.908C336.041 153.908 336.01 153.9 335.985 153.883C335.975 153.877 335.967 153.868 335.962 153.858C335.956 153.848 335.953 153.836 335.953 153.824C335.953 153.813 335.956 153.801 335.962 153.791C335.967 153.781 335.975 153.772 335.985 153.766C336 153.739 336.025 153.717 336.054 153.705C336.083 153.692 336.116 153.689 336.147 153.696C336.171 153.694 336.195 153.702 336.213 153.719C336.232 153.736 336.244 153.759 336.245 153.784C336.246 153.809 336.238 153.833 336.222 153.852C336.206 153.87 336.183 153.882 336.158 153.883Z" fill="white"></path><path d="M335.915 154.211C335.889 154.227 335.859 154.236 335.829 154.236C335.797 154.236 335.768 154.227 335.741 154.211C335.684 154.211 335.671 154.14 335.741 154.082C335.764 154.059 335.791 154.041 335.821 154.031C335.852 154.02 335.884 154.018 335.915 154.023C335.94 154.023 335.964 154.033 335.981 154.05C335.998 154.069 336.008 154.092 336.008 154.117C336.008 154.142 335.998 154.166 335.981 154.183C335.964 154.201 335.94 154.211 335.915 154.211Z" fill="white"></path><path d="M325.092 148.177H325.012C324.999 148.131 324.975 148.088 324.94 148.055C324.905 148.022 324.861 148 324.814 147.99C324.701 147.956 324.58 147.956 324.467 147.99H324.524H324.64H324.838H324.919V148.06L325.092 148.177Z" fill="white"></path><path d="M324.501 148.142C324.581 148.119 324.665 148.119 324.745 148.142C324.792 148.143 324.838 148.159 324.876 148.189C324.913 148.218 324.94 148.26 324.953 148.306H324.884C324.87 148.277 324.852 148.251 324.828 148.231C324.803 148.211 324.775 148.196 324.745 148.189C324.673 148.142 324.585 148.124 324.501 148.142Z" fill="white"></path><path d="M324.744 148.283H324.675C324.669 148.266 324.661 148.251 324.649 148.239C324.636 148.226 324.622 148.217 324.605 148.212C324.563 148.201 324.52 148.201 324.478 148.212C324.64 148.142 324.744 148.177 324.744 148.283Z" fill="white"></path><path d="M324.641 148.318C324.641 148.318 324.641 148.318 324.571 148.318C324.501 148.318 324.571 148.318 324.571 148.318H324.629C324.629 148.318 324.652 148.305 324.641 148.318Z" fill="white"></path><path d="M322.265 147.394C322.283 147.368 322.307 147.346 322.336 147.332C322.364 147.318 322.395 147.311 322.427 147.312C322.439 147.32 322.449 147.33 322.456 147.342C322.462 147.354 322.466 147.369 322.466 147.383C322.466 147.397 322.462 147.411 322.456 147.423C322.449 147.435 322.439 147.446 322.427 147.452C322.405 147.483 322.374 147.506 322.339 147.519C322.304 147.531 322.266 147.532 322.23 147.523C322.222 147.513 322.216 147.501 322.214 147.488C322.21 147.476 322.211 147.462 322.215 147.45C322.218 147.437 322.224 147.425 322.233 147.416C322.242 147.406 322.252 147.398 322.265 147.394Z" fill="white"></path><path d="M322.635 147.511C322.658 147.48 322.688 147.458 322.723 147.446C322.759 147.432 322.797 147.431 322.833 147.441C322.844 147.448 322.854 147.458 322.862 147.471C322.868 147.483 322.872 147.497 322.872 147.511C322.872 147.525 322.868 147.539 322.862 147.551C322.854 147.564 322.844 147.573 322.833 147.581C322.809 147.609 322.778 147.631 322.743 147.643C322.709 147.655 322.672 147.658 322.635 147.652C322.624 147.644 322.614 147.633 322.607 147.622C322.6 147.609 322.597 147.595 322.597 147.581C322.597 147.567 322.6 147.553 322.607 147.541C322.614 147.529 322.624 147.518 322.635 147.511Z" fill="white"></path><path d="M323.006 147.616C323.027 147.588 323.056 147.566 323.089 147.555C323.123 147.545 323.159 147.545 323.191 147.558C323.261 147.558 323.273 147.639 323.191 147.698C323.162 147.716 323.128 147.726 323.094 147.726C323.058 147.726 323.024 147.716 322.995 147.698C322.972 147.745 322.96 147.674 323.006 147.616Z" fill="white"></path><path d="M323.365 147.733C323.39 147.706 323.421 147.685 323.455 147.672C323.489 147.661 323.526 147.657 323.562 147.662C323.574 147.67 323.584 147.68 323.591 147.692C323.598 147.705 323.602 147.719 323.602 147.733C323.602 147.747 323.598 147.761 323.591 147.773C323.584 147.785 323.574 147.796 323.562 147.803C323.539 147.832 323.509 147.854 323.473 147.867C323.439 147.879 323.401 147.882 323.365 147.873C323.353 147.866 323.343 147.856 323.336 147.843C323.329 147.831 323.326 147.817 323.326 147.803C323.326 147.789 323.329 147.775 323.336 147.763C323.343 147.75 323.353 147.74 323.365 147.733Z" fill="white"></path><path d="M323.737 147.85C323.759 147.819 323.789 147.797 323.825 147.784C323.859 147.772 323.898 147.77 323.933 147.779C324.003 147.779 324.015 147.862 323.933 147.92C323.912 147.951 323.881 147.973 323.846 147.986C323.811 147.999 323.773 148 323.737 147.99C323.724 147.983 323.715 147.973 323.708 147.96C323.701 147.948 323.697 147.934 323.697 147.92C323.697 147.906 323.701 147.892 323.708 147.88C323.715 147.867 323.724 147.858 323.737 147.85Z" fill="white"></path><path d="M337.363 152.631L335.868 152.164L336.505 151.322L338 151.778L337.363 152.631Z" fill="white"></path><path d="M337.247 151.906L336.633 151.719L336.436 151.977L337.05 152.175L337.247 151.906Z" fill="white"></path><path d="M337.409 152.246L337.328 152.223L337.49 152.012L337.572 152.036L337.409 152.246Z" fill="white"></path><path d="M302.184 176.739L302.056 176.693L301.639 177.254L301.385 177.172L301.593 176.891L301.153 176.751L300.944 177.031L300.689 176.962L301.106 176.4L300.967 176.365L301.999 175.991L302.184 176.739Z" fill="#E2E6FD"></path><path d="M315.961 180.539L314.489 180.083L314.628 179.908L316.1 180.352L315.961 180.539Z" fill="#E2E6FD"></path><path d="M315.613 181.006L314.153 180.55L314.292 180.364L315.752 180.819L315.613 181.006Z" fill="#E2E6FD"></path><path d="M315.266 181.475L313.806 181.019L313.945 180.831L315.406 181.288L315.266 181.475Z" fill="#E2E6FD"></path><path d="M308.8 178.692L308.082 178.961L307.966 178.435L308.082 178.388L308.186 178.832L308.766 178.598L308.8 178.692Z" fill="#E2E6FD"></path><path d="M308.07 179.943C307.928 179.967 307.783 179.967 307.642 179.943C307.473 179.891 307.319 179.8 307.191 179.679C307.062 179.557 306.963 179.408 306.9 179.242C306.848 179.06 306.842 178.868 306.88 178.682C306.918 178.497 307 178.324 307.12 178.178C307.33 177.91 307.613 177.71 307.934 177.599C308.254 177.49 308.599 177.475 308.928 177.558C309.097 177.606 309.252 177.695 309.379 177.818C309.506 177.94 309.602 178.092 309.658 178.259C309.71 178.441 309.719 178.632 309.683 178.817C309.647 179.002 309.566 179.176 309.449 179.324C309.278 179.523 309.067 179.682 308.828 179.789C308.59 179.896 308.331 179.948 308.07 179.943ZM308.476 178.611C308.334 178.623 308.2 178.68 308.093 178.774C308.25 178.769 308.401 178.712 308.522 178.611H308.476Z" fill="#E2E6FD"></path><path d="M327.062 151.054C327.156 150.939 327.278 150.852 327.417 150.803C327.557 150.753 327.705 150.743 327.849 150.773C327.9 150.785 327.947 150.808 327.987 150.84C328.026 150.873 328.059 150.913 328.082 150.96C328.082 150.96 328.082 151.042 328.024 151.054C327.966 151.065 327.931 151.054 327.919 151.054C327.904 151.02 327.882 150.992 327.854 150.97C327.825 150.947 327.792 150.932 327.757 150.925C327.659 150.89 327.553 150.89 327.456 150.925C327.362 150.958 327.279 151.015 327.213 151.088C327.185 151.12 327.166 151.157 327.157 151.198C327.146 151.239 327.146 151.281 327.155 151.322C327.169 151.361 327.192 151.397 327.222 151.425C327.253 151.453 327.289 151.474 327.329 151.486C327.412 151.509 327.5 151.509 327.584 151.486H327.676C327.673 151.507 327.664 151.526 327.65 151.541C327.635 151.556 327.616 151.565 327.595 151.568C327.473 151.602 327.345 151.602 327.224 151.568C327.175 151.55 327.131 151.521 327.095 151.484C327.059 151.446 327.032 151.401 327.017 151.351C327.001 151.301 326.997 151.249 327.004 151.196C327.013 151.145 327.032 151.096 327.062 151.054Z" fill="white"></path><path d="M327.781 151.719L328.29 151.042C328.31 151.031 328.332 151.026 328.354 151.026C328.377 151.026 328.398 151.031 328.418 151.042C328.425 151.047 328.431 151.054 328.435 151.062C328.439 151.07 328.442 151.079 328.442 151.088C328.442 151.098 328.439 151.107 328.435 151.114C328.431 151.122 328.425 151.13 328.418 151.135L328.21 151.404L328.545 151.509L328.754 151.229C328.772 151.219 328.791 151.213 328.812 151.213C328.833 151.213 328.852 151.219 328.87 151.229C328.87 151.229 328.928 151.229 328.87 151.31L328.36 152C328.343 152.011 328.322 152.016 328.303 152.016C328.282 152.016 328.262 152.011 328.244 152C328.244 152 328.186 152 328.244 151.907L328.453 151.626L328.117 151.521L327.908 151.802C327.889 151.812 327.866 151.817 327.844 151.817C327.822 151.817 327.801 151.812 327.781 151.802C327.781 151.802 327.758 151.767 327.781 151.719Z" fill="white"></path><path d="M329.183 151.988L328.858 151.895L328.684 152.024C328.67 152.032 328.654 152.037 328.638 152.037C328.621 152.037 328.606 152.032 328.592 152.024C328.592 152.024 328.592 151.954 328.592 151.919L329.391 151.323C329.407 151.314 329.425 151.31 329.443 151.31C329.461 151.31 329.479 151.314 329.495 151.323C329.495 151.323 329.495 151.323 329.495 151.381L329.275 152.152C329.266 152.173 329.252 152.19 329.233 152.203C329.215 152.215 329.193 152.222 329.171 152.223C329.171 152.223 329.171 152.223 329.171 152.164L329.183 151.988ZM329.183 151.848L329.263 151.556L328.974 151.778L329.183 151.848Z" fill="white"></path><path d="M330.341 151.755L330.144 151.685L329.68 152.316C329.661 152.327 329.639 152.333 329.617 152.333C329.594 152.333 329.572 152.327 329.553 152.316V152.234L330.016 151.615L329.819 151.544C329.819 151.544 329.762 151.544 329.819 151.463C329.837 151.452 329.857 151.447 329.877 151.447C329.898 151.447 329.917 151.452 329.935 151.463L330.492 151.638V151.72C330.474 151.741 330.449 151.757 330.422 151.763C330.395 151.769 330.367 151.767 330.341 151.755Z" fill="white"></path><path d="M311.93 162.488L324.537 166.392L327.201 162.838L314.583 158.933L311.93 162.488Z" fill="#455A64"></path><path d="M325.707 166.755L324.536 166.393L325.359 165.293L325.707 166.755Z" fill="#455A64"></path><path d="M325.973 163.295L314.803 159.834L314.85 159.776L326.02 163.225L325.973 163.295Z" fill="white"></path><path d="M323.378 162.943L314.524 160.207L314.571 160.138L323.424 162.873L323.378 162.943Z" fill="white"></path><path d="M324.235 164.101L313.98 160.932L314.027 160.863L324.282 164.042L324.235 164.101Z" fill="white"></path><path d="M324.872 164.755L313.714 161.295L313.76 161.225L324.93 164.686L324.872 164.755Z" fill="white"></path><path d="M324.606 165.118L313.436 161.657L313.482 161.587L324.652 165.047L324.606 165.118Z" fill="white"></path><path d="M321.234 164.521L313.157 162.019L313.215 161.961L321.291 164.451L321.234 164.521Z" fill="white"></path><path d="M305.648 170.87L318.267 174.775L320.921 171.221L308.314 167.316L305.648 170.87Z" fill="#455A64"></path><path d="M319.437 175.138L318.267 174.775L319.078 173.688L319.437 175.138Z" fill="#455A64"></path><path d="M319.693 171.677L308.522 168.216L308.569 168.158L319.739 171.607L319.693 171.677Z" fill="white"></path><path d="M317.097 171.326L308.244 168.591L308.302 168.52L317.155 171.256L317.097 171.326Z" fill="white"></path><path d="M317.954 172.484L307.711 169.316L307.758 169.245L318 172.425L317.954 172.484Z" fill="white"></path><path d="M318.604 173.139L307.433 169.678L307.48 169.608L318.65 173.068L318.604 173.139Z" fill="white"></path><path d="M318.325 173.501L307.155 170.041L307.213 169.97L318.383 173.431L318.325 173.501Z" fill="white"></path><path d="M314.964 172.904L306.889 170.403L306.935 170.344L315.011 172.846L314.964 172.904Z" fill="white"></path><path d="M331.002 159.682L318.395 155.777L320.631 152.771L333.25 156.677L331.002 159.682Z" fill="#485FE6"></path><path d="M317.225 155.414L318.395 155.777L319.206 154.677L317.225 155.414Z" fill="#485FE6"></path><path d="M330.202 156.502L320.909 153.625L320.955 153.555L330.26 156.443L330.202 156.502Z" fill="white"></path><path d="M331.801 157.448L320.631 153.988L320.688 153.917L331.847 157.378L331.801 157.448Z" fill="white"></path><path d="M331.523 157.811L320.364 154.35L320.41 154.291L331.58 157.741L331.523 157.811Z" fill="white"></path><path d="M330.376 157.904L320.087 154.724L320.133 154.654L330.423 157.834L330.376 157.904Z" fill="white"></path><path d="M330.979 158.536L319.82 155.087L319.866 155.017L331.036 158.477L330.979 158.536Z" fill="white"></path><path d="M327.792 157.998L319.542 155.449L319.588 155.379L327.85 157.94L327.792 157.998Z" fill="white"></path><path d="M328.974 162.383L316.367 158.478L318.025 156.257L330.643 160.161L328.974 162.383Z" fill="#485FE6"></path><path d="M315.197 158.115L316.367 158.477L317.178 157.39L315.197 158.115Z" fill="#485FE6"></path><path d="M329.449 160.559L318.302 157.11L318.349 157.04L329.496 160.489L329.449 160.559Z" fill="white"></path><path d="M327.201 160.313L318.024 157.472L318.082 157.403L327.259 160.243L327.201 160.313Z" fill="white"></path><path d="M327.85 160.956L317.758 157.834L317.804 157.764L327.908 160.897L327.85 160.956Z" fill="white"></path><path d="M325.266 160.606L317.479 158.197L317.537 158.127L325.324 160.547L325.266 160.606Z" fill="white"></path><path d="M322.717 170.753L310.099 166.849L312.451 163.715L325.058 167.62L322.717 170.753Z" fill="#DBDBDB"></path><path d="M308.939 166.486L310.098 166.849L310.921 165.749L308.939 166.486Z" fill="#DBDBDB"></path><path d="M322.45 168.906L311.906 165.645L311.964 165.574L322.509 168.848L322.45 168.906Z" fill="white"></path><path d="M321.326 169.012L311.639 166.007L311.686 165.937L321.373 168.941L321.326 169.012Z" fill="white"></path><path d="M322.392 167.995L312.45 164.92L312.509 164.849L322.439 167.924L322.392 167.995Z" fill="white"></path><path d="M323.76 167.971L312.729 164.557L312.775 164.487L323.806 167.901L323.76 167.971Z" fill="white"></path><path d="M321.396 169.479L311.361 166.369L311.419 166.311L321.442 169.409L321.396 169.479Z" fill="white"></path><path d="M316.796 178.669L304.177 174.764L306.136 172.156L318.743 176.061L316.796 178.669Z" fill="#485FE6"></path><path d="M303.007 174.402L304.177 174.764L304.988 173.665L303.007 174.402Z" fill="#485FE6"></path><path d="M317.584 176.435L306.425 172.975L306.472 172.916L317.642 176.365L317.584 176.435Z" fill="white"></path><path d="M317.318 176.798L306.147 173.337L306.194 173.279L317.364 176.727L317.318 176.798Z" fill="white"></path><path d="M316.158 176.891L305.869 173.711L305.927 173.641L316.205 176.821L316.158 176.891Z" fill="white"></path><path d="M316.772 177.523L305.602 174.074L305.648 174.004L316.818 177.464L316.772 177.523Z" fill="white"></path><path d="M313.586 176.985L305.324 174.437L305.382 174.366L313.632 176.927L313.586 176.985Z" fill="white"></path><path d="M312.149 186.665C307.641 186.841 322.091 177.312 322.195 172.062C322.299 166.814 317.328 168.626 313.446 171.642C299.993 182.164 289.646 181.872 282.925 191.739C276.205 201.607 312.149 186.665 312.149 186.665Z" fill="#D3766A"></path><path d="M298.36 180.667C295.435 181.475 292.624 182.654 289.994 184.175C287.655 185.724 285.63 187.707 284.027 190.021C283.957 190.126 284.096 190.255 284.177 190.149C287.769 185.473 293.192 183.052 298.395 180.714C298.393 180.705 298.388 180.695 298.382 180.687C298.377 180.679 298.369 180.672 298.36 180.667Z" fill="#263238"></path><path d="M247.689 201.198C251.223 202.075 275.498 194.745 275.498 194.745L289.983 227.983C289.983 227.983 247.643 238.974 237.631 235.734C227.619 232.496 211.397 198.754 205.94 179.078C200.806 160.582 206.797 148.294 220.412 167.258C220.458 167.258 245.846 200.742 247.689 201.198Z" fill="#485FE6"></path><path d="M282.288 229.831C279.554 230.462 276.286 231.21 272.752 231.969L259.484 199.233C262.659 198.45 265.985 197.539 268.754 196.755C272.845 206.693 277.804 218.817 282.288 229.831Z" fill="#E2E6FD"></path><path d="M269.044 232.73L265.974 233.349L252.741 200.719C253.668 200.544 254.676 200.333 255.719 200.099C259.728 209.873 264.607 221.798 269.044 232.73Z" fill="#E2E6FD"></path><path d="M237.121 234.67C228.697 230.566 217.909 208.294 215.835 203.922C214.503 201.127 213.285 198.274 212.081 195.422C209.682 189.693 207.446 183.906 205.326 178.083C205.33 178.071 205.332 178.058 205.331 178.044C205.329 178.031 205.325 178.019 205.317 178.007C205.31 177.996 205.299 177.987 205.288 177.981C205.276 177.975 205.263 177.971 205.25 177.971C205.237 177.971 205.224 177.975 205.212 177.981C205.201 177.987 205.19 177.996 205.182 178.007C205.175 178.019 205.171 178.031 205.169 178.044C205.168 178.058 205.169 178.071 205.174 178.083C206.372 182.596 207.79 187.047 209.427 191.435C208.382 189.81 207.434 188.123 206.588 186.384C206.588 186.302 206.403 186.384 206.438 186.454C207.302 188.53 208.411 190.492 209.74 192.3C211.409 196.708 213.274 201.034 215.337 205.243C215.928 206.412 228.442 233.758 237.805 236.096C241.06 236.915 252.115 235.85 254.456 235.254C254.548 235.254 254.571 235.102 254.456 235.102C251.269 235.15 240.157 236.167 237.121 234.67Z" fill="#263238"></path><path d="M280.713 224.09C280.273 222.921 279.832 221.752 279.381 220.652C278.477 218.373 273.031 204.788 270.713 200.555C270.713 200.438 270.481 200.555 270.516 200.648C271.872 205.325 277.619 218.712 278.627 220.921C279.114 222.091 279.6 223.178 280.11 224.3C280.62 225.423 281.269 226.51 281.756 227.644C281.756 227.749 281.988 227.644 281.941 227.574C281.477 226.44 281.176 225.236 280.713 224.09Z" fill="#263238"></path><path d="M275.522 194.791C273.494 194.931 255.302 199.655 251.281 200.637C250.327 200.985 249.318 201.151 248.303 201.128C247.311 200.854 246.448 200.232 245.87 199.374C244.526 197.89 229.775 179.148 228.709 178.236C228.315 177.886 228.002 177.827 228.385 178.423C229.045 179.44 243.39 197.948 244.688 199.467C245.986 200.988 247.005 202.238 249.01 202.11C249.867 202.052 274.421 195.89 275.661 195.352C275.87 195.247 275.834 194.768 275.522 194.791Z" fill="#263238"></path><path d="M227.411 163.586C223.749 164.265 214.398 159.927 212.081 154.584C211.919 154.21 212.776 150.585 213.611 146.12C214.097 143.407 214.583 140.367 214.769 137.573C214.769 137 231.791 143.419 231.791 143.419C230.491 146.832 229.612 150.394 229.172 154.023C229.13 154.412 229.13 154.804 229.172 155.192C229.178 155.254 229.178 155.317 229.172 155.379C229.439 157.554 231.35 162.85 227.411 163.586Z" fill="#D3766A"></path><path d="M229.276 155.145V155.332C228.681 155.358 228.085 155.338 227.492 155.274C217.272 154.105 215.696 140.952 215.465 137.632C218.524 138.356 231.872 143.383 231.872 143.383C230.573 146.797 229.693 150.358 229.253 153.988C229.225 154.373 229.234 154.761 229.276 155.145Z" fill="#263238"></path><path d="M207.805 119.253C207.167 125.754 213.877 142.799 218.987 145.874C226.379 150.34 236.738 148.809 240.041 140.251C243.25 131.95 234.119 109.853 228.581 107.269C220.458 103.411 208.743 109.643 207.805 119.253Z" fill="#D3766A"></path><path d="M227.017 126.385C227.017 126.385 226.948 126.478 227.017 126.513C227.493 127.682 227.863 129.038 227.017 129.834C228.153 129.214 227.655 127.437 227.017 126.385Z" fill="#263238"></path><path d="M225.534 125.578C223.645 126.163 224.943 129.939 226.692 129.39C228.442 128.84 227.11 125.098 225.534 125.578Z" fill="#263238"></path><path d="M233.772 124.222C233.772 124.222 233.888 124.222 233.9 124.292C234.27 125.461 234.885 126.771 236.067 126.794C234.734 127.121 233.934 125.403 233.772 124.222Z" fill="#263238"></path><path d="M234.363 122.643C236.182 121.847 237.618 125.566 235.939 126.302C234.258 127.039 232.868 123.309 234.363 122.643Z" fill="#263238"></path><path d="M223.46 124.373C223.902 124.058 224.327 123.718 224.735 123.356C225.228 123.058 225.615 122.607 225.835 122.071C225.867 121.886 225.839 121.697 225.755 121.531C225.672 121.364 225.537 121.23 225.372 121.147C225.019 121.037 224.644 121.025 224.285 121.112C223.926 121.198 223.597 121.38 223.332 121.638C222.708 122.072 222.27 122.728 222.104 123.473C222.072 123.645 222.092 123.823 222.16 123.984C222.228 124.144 222.341 124.281 222.485 124.378C222.63 124.474 222.8 124.525 222.973 124.524C223.146 124.523 223.316 124.471 223.46 124.373Z" fill="#263238"></path><path d="M235.186 120.247C234.63 120.34 234.12 120.328 233.563 120.375C232.998 120.497 232.409 120.431 231.884 120.188C231.735 120.08 231.626 119.924 231.573 119.747C231.521 119.569 231.528 119.379 231.594 119.206C231.778 118.881 232.045 118.612 232.367 118.425C232.688 118.237 233.054 118.14 233.425 118.142C234.172 118.04 234.931 118.22 235.556 118.645C235.694 118.749 235.798 118.893 235.857 119.057C235.915 119.22 235.926 119.398 235.886 119.567C235.848 119.737 235.761 119.891 235.636 120.012C235.512 120.132 235.356 120.213 235.186 120.247Z" fill="#263238"></path><path d="M233.68 133.82C233.411 134.632 232.941 135.361 232.313 135.936C231.96 136.239 231.523 136.423 231.061 136.463C230.053 136.544 229.74 135.691 229.659 134.907C229.611 134.484 229.611 134.056 229.659 133.634C230.945 134.129 232.355 134.195 233.68 133.82Z" fill="#263238"></path><path d="M232.312 135.937C231.959 136.239 231.522 136.424 231.061 136.463C230.053 136.545 229.74 135.691 229.659 134.908C230.151 134.758 230.68 134.778 231.16 134.964C231.641 135.15 232.046 135.493 232.312 135.937Z" fill="#FF9BBC"></path><path d="M213.668 135.024C216.982 133.645 212.799 124.385 212.799 124.385C214.158 123.7 215.297 122.64 216.082 121.328C216.868 120.016 217.268 118.505 217.237 116.973C217.237 116.973 231.455 115.804 233.46 110.215C235.464 104.627 231.536 97.483 229.786 97.5768C228.036 97.6698 226.31 100.733 226.31 100.733C226.31 100.733 224.468 98.4653 223.031 98.6289C220.817 98.8747 220.47 101.844 219.555 102.815C217.051 105.351 208.431 108.157 206.565 110.647C206.031 111.261 205.655 111.998 205.471 112.794C205.287 113.589 205.3 114.418 205.511 115.207C204.73 115.725 204.087 116.429 203.641 117.257C203.194 118.085 202.956 119.012 202.95 119.954C202.672 124.175 210.331 136.428 213.668 135.024Z" fill="#263238"></path><path d="M213.958 134.218C216.38 130.711 214.028 125.929 211.733 122.924C211.733 122.924 211.733 122.831 211.814 122.924C214.132 125.671 216.889 131.108 214.132 134.382C214.11 134.405 214.08 134.418 214.049 134.42C214.017 134.421 213.987 134.409 213.964 134.388C213.941 134.366 213.927 134.335 213.926 134.304C213.925 134.272 213.936 134.241 213.958 134.218Z" fill="#263238"></path><path d="M214.92 116.459C218.174 116.892 221.474 116.833 224.711 116.283C226.181 115.973 227.612 115.494 228.975 114.857C230.331 114.226 232.741 113.139 233.274 111.583C232.734 112.814 231.771 113.807 230.563 114.378C228.997 115.347 227.293 116.069 225.511 116.517C222.015 117.434 218.355 117.506 214.827 116.728C214.665 116.704 214.746 116.447 214.92 116.459Z" fill="#263238"></path><path d="M207.956 108.508C209.534 107.578 211.172 106.755 212.857 106.041C214.92 105.023 217.422 104.03 219.056 102.37H219.114C217.966 103.555 216.616 104.521 215.128 105.223C213.668 106.029 212.174 106.777 210.667 107.49C208.952 108.309 207.064 109.244 206.032 110.998C205.001 112.752 205.349 114.505 205.568 116.271C205.568 116.306 205.557 116.34 205.535 116.367C205.512 116.394 205.482 116.413 205.447 116.42C205.414 116.427 205.378 116.422 205.347 116.405C205.317 116.389 205.292 116.362 205.279 116.33C204.784 114.912 204.779 113.368 205.266 111.948C205.751 110.527 206.699 109.315 207.956 108.508Z" fill="#263238"></path><path d="M204.722 116.049C201.084 118.715 202.938 124.139 204.804 127.331C206.435 130.46 209.012 132.983 212.162 134.533C212.312 134.592 212.162 134.825 212.046 134.767C208.268 133.271 205.487 129.623 203.749 126.045C202.451 123.345 200.992 117.651 204.722 116.049Z" fill="#263238"></path><path d="M215.14 132.967C215.14 132.967 209.937 128.15 207.69 130.148C205.441 132.148 210.215 139.736 213.483 140.192C213.897 140.28 214.324 140.282 214.739 140.199C215.154 140.117 215.548 139.95 215.897 139.71C216.247 139.47 216.545 139.161 216.773 138.802C217.002 138.442 217.155 138.04 217.226 137.62L215.14 132.967Z" fill="#D3766A"></path><path d="M209.114 132.288V132.371C211.432 132.767 212.961 134.486 214.178 136.369C214.01 136.182 213.804 136.035 213.574 135.937C213.344 135.839 213.096 135.793 212.846 135.802C212.597 135.811 212.353 135.875 212.13 135.988C211.908 136.103 211.713 136.264 211.559 136.463C211.559 136.463 211.559 136.591 211.64 136.567C211.983 136.362 212.381 136.271 212.778 136.306C213.176 136.342 213.552 136.503 213.853 136.766C214.357 137.201 214.812 137.691 215.209 138.228C215.36 138.403 215.672 138.228 215.556 138.017C214.989 135.246 212.057 131.915 209.114 132.288Z" fill="#263238"></path><path d="M230.516 154.701H230.458C231.617 158.069 234.074 165.925 228.813 166.872C226.62 167.06 224.421 166.596 222.486 165.539C220.495 164.61 218.607 163.47 216.855 162.136C214.829 160.697 212.923 159.094 211.154 157.344C211.073 157.261 210.981 157.344 211.05 157.46C212.845 159.214 214.526 161.108 216.426 162.686C218.285 164.228 220.343 165.506 222.544 166.486C224.59 167.555 226.912 167.962 229.195 167.655C230.173 167.424 231.039 166.854 231.643 166.043C232.246 165.234 232.549 164.236 232.498 163.224C232.448 160.273 231.773 157.367 230.516 154.701Z" fill="#263238"></path></svg>