<svg viewBox="0 0 71 70" fill="#485fe6" xmlns="http://www.w3.org/2000/svg" class="icon"><path d="M55.046 12.0167L39.0044 6.00833C37.3419 5.39583 34.6294 5.39583 32.9669 6.00833L16.9252 12.0167C13.8335 13.1833 11.3252 16.8 11.3252 20.0958V43.7208C11.3252 46.0833 12.871 49.2042 14.7669 50.6042L30.8085 62.5917C33.6377 64.7208 38.2752 64.7208 41.1044 62.5917L57.146 50.6042C59.0419 49.175 60.5877 46.0833 60.5877 43.7208V20.0958C60.6169 16.8 58.1085 13.1833 55.046 12.0167ZM46.121 28.35L33.5794 40.8917C33.1419 41.3292 32.5877 41.5333 32.0335 41.5333C31.4794 41.5333 30.9252 41.3292 30.4877 40.8917L25.821 36.1667C24.9752 35.3208 24.9752 33.9208 25.821 33.075C26.6669 32.2292 28.0669 32.2292 28.9127 33.075L32.0627 36.225L43.0585 25.2292C43.9044 24.3833 45.3044 24.3833 46.1502 25.2292C46.996 26.075 46.996 27.5042 46.121 28.35Z" fill="#485fe6"></path></svg>