<svg viewBox="0 0 25 45" fill="currentColor" xmlns="http://www.w3.org/2000/svg" role="img"><path d="M11.1064 40.5606C10.9492 38.8986 10.8968 37.1727 10.6871 35.5746C10.3202 32.8897 9.27179 30.7802 7.27988 29.4378C5.60249 28.3511 3.9251 27.3923 2.19529 26.3695C1.6711 26.0499 1.0945 25.7942 0.570314 25.4745C0.150965 25.2188 -0.111127 24.7714 0.0461283 24.1961C0.150965 23.8125 0.517895 23.5568 0.779988 23.2372C0.832406 23.1733 0.937243 23.1733 1.04208 23.1733C5.18314 22.1505 7.96133 18.8903 9.84839 14.5435C11.5258 10.772 12.8887 6.80868 14.4088 2.97323C14.6185 2.39792 14.8282 1.8226 15.0902 1.37513C15.2475 1.11943 15.6668 0.863735 15.9289 0.92766C16.191 0.991584 16.5055 1.37513 16.558 1.75867C16.6628 2.14222 16.6104 2.65361 16.558 3.10108C16.4531 3.99602 16.3483 4.89096 16.191 5.84982C15.562 9.62134 16.191 13.265 16.8201 16.9087C17.1346 18.5068 17.9208 19.6574 19.0741 20.4245C20.5418 21.3834 22.0619 22.0226 23.6869 22.4701C24.2111 22.5979 24.9449 22.5979 24.9973 23.5568C25.0498 24.5796 24.3159 24.8353 23.7393 25.0271C21.2232 25.7942 19.441 27.8397 17.816 30.2049C16.1386 32.634 14.8282 35.3828 13.9895 38.3872C13.5177 40.0492 13.0983 41.7113 12.6266 43.3094C12.5217 43.629 12.5217 43.9486 12.3645 44.1404C12.1548 44.46 11.7879 44.9075 11.5782 44.8435C11.3161 44.7796 11.1064 44.2682 10.9492 43.8847C10.8443 43.629 10.8968 43.3094 10.8968 42.9898C10.8968 42.1587 10.8968 41.3277 10.8968 40.5606C11.0016 40.5606 11.054 40.5606 11.1064 40.5606Z" fill="currentColor"/></svg>