<svg viewBox="0 0 150 169" fill="currentColor" xmlns="http://www.w3.org/2000/svg" class="off-leaf"><path d="M38.748 117.086C39.7291 94.189 18.6248 67.7607 17.171 51.6209C15.2999 30.4617 29.8291 13.1833 44.8495 15.1054C57.8917 16.7774 55.4541 77.08 55.2063 83.838C54.3731 107.092 48.7733 120.21 42.3669 132.082C49.3384 123.272 55.7229 115.141 60.6325 108.878C76.6816 88.43 81.2913 81.407 82.5933 79.161C82.1943 77.171 81.76 74.9193 81.4605 73.6502C78.8795 62.8542 68.8046 44.1466 67.3948 30.4216C65.3704 10.3871 77.9476 -1.0682 89.7272 0.590302C102.022 2.3181 106.429 26.1883 104.187 44.3388C101.945 62.4894 89.2595 71.073 83.2604 82.584C82.1023 84.887 76.4757 92.569 68.451 103.047C78.5777 94.578 91.5309 90.252 104.718 90.962C122.192 91.344 139.731 88.723 147.268 97.244C154.805 105.765 138.863 115.325 124.185 119.123C111.074 122.468 74.0355 105.819 63.9675 108.901C53.045 123.054 38.9996 140.821 25.8088 157.285C35.1637 150.911 34.1094 148.842 54.5134 144.111C66.6327 141.318 98.1352 151.627 96.5512 159.222C94.9671 166.817 82.4693 173.116 67.7712 172.588C55.9176 172.163 40.0239 158.875 33.3641 159.197C31.8322 159.277 26.4013 160.009 23.2684 160.43C7.17378 180.499 -7.21169 198.089 -12.3734 203.866L-13.9647 202.643C-12.6154 201.179 -4.41551 190.975 6.38746 177.423C8.4204 167.102 -14.2476 141.174 -16.1642 127.089C-18.1742 112.354 -16.7309 98.314 -8.10295 95.303C-0.898735 92.803 17.146 119.437 19.9351 135.885C21.75 146.784 20.749 155.97 15.9182 165.42C23.2553 156.173 31.121 146.241 38.55 136.858C38.522 132.949 38.4752 123.95 38.748 117.086Z" fill="currentColor" fill-opacity="0.1"/></svg>