<svg width="15" height="15" viewBox="0 0 15 15" fill="none" xmlns="http://www.w3.org/2000/svg">
<path d="M1.53328 4.96217C1.70908 4.78642 1.9475 4.68769 2.19609 4.68769C2.44468 4.68769 2.68309 4.78642 2.8589 4.96217L7.49953 9.6028L12.1402 4.96217C12.317 4.7914 12.5538 4.69691 12.7996 4.69904C13.0454 4.70118 13.2805 4.79977 13.4544 4.97359C13.6282 5.14741 13.7268 5.38255 13.7289 5.62836C13.731 5.87417 13.6365 6.11098 13.4658 6.2878L8.16234 11.5912C7.98653 11.767 7.74812 11.8657 7.49953 11.8657C7.25094 11.8657 7.01252 11.767 6.83671 11.5912L1.53328 6.2878C1.35752 6.11199 1.25879 5.87358 1.25879 5.62499C1.25879 5.37639 1.35752 5.13798 1.53328 4.96217Z" fill="white"/>
</svg>
